<?xml version="1.0"?>
<!-- Generated by SVGo -->
<svg width="239.602mm" height="86.202mm"
     viewBox="0.000 0.000 239.602 86.202"
     xmlns="http://www.w3.org/2000/svg" 
     xmlns:xlink="http://www.w3.org/1999/xlink">
<polygon points="231.602,5.001 231.837,5.010 232.071,5.037 232.302,5.083 232.529,5.147 232.750,5.229 232.963,5.327 233.169,5.443 233.365,5.573 233.550,5.719 233.723,5.879 233.883,6.052 234.029,6.237 234.159,6.433 234.275,6.639 234.373,6.852 234.455,7.073 234.519,7.300 234.565,7.531 234.592,7.765 234.602,8.001 234.602,78.202 234.592,78.437 234.565,78.671 234.519,78.902 234.455,79.129 234.373,79.350 234.275,79.563 234.159,79.769 234.029,79.965 233.883,80.150 233.723,80.323 233.550,80.483 233.365,80.629 233.169,80.759 232.963,80.875 232.750,80.973 232.529,81.055 232.302,81.119 232.071,81.165 231.837,81.192 231.602,81.202 8.001,81.202 7.765,81.192 7.531,81.165 7.300,81.119 7.073,81.055 6.852,80.973 6.639,80.875 6.433,80.759 6.237,80.629 6.052,80.483 5.879,80.323 5.719,80.150 5.573,79.965 5.443,79.769 5.327,79.563 5.229,79.350 5.147,79.129 5.083,78.902 5.037,78.671 5.010,78.437 5.000,78.201 5.001,8.001 5.010,7.765 5.037,7.531 5.083,7.300 5.147,7.073 5.229,6.852 5.327,6.639 5.443,6.433 5.573,6.237 5.719,6.052 5.879,5.879 6.052,5.719 6.237,5.573 6.433,5.443 6.639,5.327 6.852,5.229 7.073,5.147 7.300,5.083 7.531,5.037 7.765,5.010 8.001,5.000" style="fill:none;stroke-width:0.050000mm;stroke:black"/>
<polygon points="212.813,64.676 212.813,65.676 212.013,65.676 212.013,68.775 212.813,68.775 212.813,74.576 212.013,74.576 212.013,77.676 212.813,77.676 212.813,78.676 226.813,78.676 226.813,77.676 227.613,77.676 227.613,74.576 226.813,74.576 226.813,68.775 227.613,68.775 227.613,65.676 226.813,65.676 226.813,64.676" style="fill:none;stroke-width:0.050000mm;stroke:black"/>
<polygon points="193.763,64.676 193.763,65.676 192.963,65.676 192.963,68.775 193.763,68.775 193.763,74.576 192.963,74.576 192.963,77.676 193.763,77.676 193.763,78.676 207.763,78.676 207.763,77.676 208.563,77.676 208.563,74.576 207.763,74.576 207.763,68.775 208.563,68.775 208.563,65.676 207.763,65.676 207.763,64.676" style="fill:none;stroke-width:0.050000mm;stroke:black"/>
<polygon points="174.713,64.676 174.713,65.676 173.913,65.676 173.913,68.775 174.713,68.775 174.713,74.576 173.913,74.576 173.913,77.676 174.713,77.676 174.713,78.676 188.713,78.676 188.713,77.676 189.513,77.676 189.513,74.576 188.713,74.576 188.713,68.775 189.513,68.775 189.513,65.676 188.713,65.676 188.713,64.676" style="fill:none;stroke-width:0.050000mm;stroke:black"/>
<polygon points="153.282,64.676 153.282,65.676 152.482,65.676 152.482,68.775 153.282,68.775 153.282,74.576 152.482,74.576 152.482,77.676 153.282,77.676 153.282,78.676 167.282,78.676 167.282,77.676 168.082,77.676 168.082,74.576 167.282,74.576 167.282,68.775 168.082,68.775 168.082,65.676 167.282,65.676 167.282,64.676" style="fill:none;stroke-width:0.050000mm;stroke:black"/>
<polygon points="124.707,64.676 124.707,65.676 123.907,65.676 123.907,68.775 124.707,68.775 124.707,74.576 123.907,74.576 123.907,77.676 124.707,77.676 124.707,78.676 138.707,78.676 138.707,77.676 139.507,77.676 139.507,74.576 138.707,74.576 138.707,68.775 139.507,68.775 139.507,65.676 138.707,65.676 138.707,64.676" style="fill:none;stroke-width:0.050000mm;stroke:black"/>
<polygon points="91.369,64.676 91.369,65.676 90.569,65.676 90.569,68.775 91.369,68.775 91.369,74.576 90.569,74.576 90.569,77.676 91.369,77.676 91.369,78.676 105.369,78.676 105.369,77.676 106.169,77.676 106.169,74.576 105.369,74.576 105.369,68.775 106.169,68.775 106.169,65.676 105.369,65.676 105.369,64.676" style="fill:none;stroke-width:0.050000mm;stroke:black"/>
<polygon points="62.794,64.676 62.794,65.676 61.994,65.676 61.994,68.775 62.794,68.775 62.794,74.576 61.994,74.576 61.994,77.676 62.794,77.676 62.794,78.676 76.794,78.676 76.794,77.676 77.594,77.676 77.594,74.576 76.794,74.576 76.794,68.775 77.594,68.775 77.594,65.676 76.794,65.676 76.794,64.676" style="fill:none;stroke-width:0.050000mm;stroke:black"/>
<polygon points="38.982,64.676 38.982,65.676 38.182,65.676 38.182,68.775 38.982,68.775 38.982,74.576 38.182,74.576 38.182,77.676 38.982,77.676 38.982,78.676 52.982,78.676 52.982,77.676 53.782,77.676 53.782,74.576 52.982,74.576 52.982,68.775 53.782,68.775 53.782,65.676 52.982,65.676 52.982,64.676" style="fill:none;stroke-width:0.050000mm;stroke:black"/>
<polygon points="15.169,64.676 15.169,65.676 14.369,65.676 14.369,68.775 15.169,68.775 15.169,74.576 14.369,74.576 14.369,77.676 15.169,77.676 15.169,78.676 29.169,78.676 29.169,77.676 29.969,77.676 29.969,74.576 29.169,74.576 29.169,68.775 29.969,68.775 29.969,65.676 29.169,65.676 29.169,64.676" style="fill:none;stroke-width:0.050000mm;stroke:black"/>
<polygon points="210.432,45.626 210.432,46.626 209.632,46.626 209.632,49.726 210.432,49.726 210.432,55.526 209.632,55.526 209.632,58.626 210.432,58.626 210.432,59.626 224.432,59.626 224.432,58.626 225.232,58.626 225.232,55.526 224.432,55.526 224.432,49.726 225.232,49.726 225.232,46.626 224.432,46.626 224.432,45.626" style="fill:none;stroke-width:0.050000mm;stroke:black"/>
<polygon points="184.238,45.626 184.238,46.626 183.438,46.626 183.438,49.726 184.238,49.726 184.238,55.526 183.438,55.526 183.438,58.626 184.238,58.626 184.238,59.626 198.238,59.626 198.238,58.626 199.038,58.626 199.038,55.526 198.238,55.526 198.238,49.726 199.038,49.726 199.038,46.626 198.238,46.626 198.238,45.626" style="fill:none;stroke-width:0.050000mm;stroke:black"/>
<polygon points="165.188,45.626 165.188,46.626 164.388,46.626 164.388,49.726 165.188,49.726 165.188,55.526 164.388,55.526 164.388,58.626 165.188,58.626 165.188,59.626 179.188,59.626 179.188,58.626 179.988,58.626 179.988,55.526 179.188,55.526 179.188,49.726 179.988,49.726 179.988,46.626 179.188,46.626 179.188,45.626" style="fill:none;stroke-width:0.050000mm;stroke:black"/>
<polygon points="146.138,45.626 146.138,46.626 145.338,46.626 145.338,49.726 146.138,49.726 146.138,55.526 145.338,55.526 145.338,58.626 146.138,58.626 146.138,59.626 160.138,59.626 160.138,58.626 160.938,58.626 160.938,55.526 160.138,55.526 160.138,49.726 160.938,49.726 160.938,46.626 160.138,46.626 160.138,45.626" style="fill:none;stroke-width:0.050000mm;stroke:black"/>
<polygon points="93.751,45.626 93.751,46.626 92.951,46.626 92.951,49.726 93.751,49.726 93.751,55.526 92.951,55.526 92.951,58.626 93.751,58.626 93.751,59.626 107.751,59.626 107.751,58.626 108.551,58.626 108.551,55.526 107.751,55.526 107.751,49.726 108.551,49.726 108.551,46.626 107.751,46.626 107.751,45.626" style="fill:none;stroke-width:0.050000mm;stroke:black"/>
<polygon points="74.701,45.626 74.701,46.626 73.901,46.626 73.901,49.726 74.701,49.726 74.701,55.526 73.901,55.526 73.901,58.626 74.701,58.626 74.701,59.626 88.701,59.626 88.701,58.626 89.501,58.626 89.501,55.526 88.701,55.526 88.701,49.726 89.501,49.726 89.501,46.626 88.701,46.626 88.701,45.626" style="fill:none;stroke-width:0.050000mm;stroke:black"/>
<polygon points="55.651,45.626 55.651,46.626 54.851,46.626 54.851,49.726 55.651,49.726 55.651,55.526 54.851,55.526 54.851,58.626 55.651,58.626 55.651,59.626 69.651,59.626 69.651,58.626 70.451,58.626 70.451,55.526 69.651,55.526 69.651,49.726 70.451,49.726 70.451,46.626 69.651,46.626 69.651,45.626" style="fill:none;stroke-width:0.050000mm;stroke:black"/>
<polygon points="36.601,45.626 36.601,46.626 35.801,46.626 35.801,49.726 36.601,49.726 36.601,55.526 35.801,55.526 35.801,58.626 36.601,58.626 36.601,59.626 50.601,59.626 50.601,58.626 51.401,58.626 51.401,55.526 50.601,55.526 50.601,49.726 51.401,49.726 51.401,46.626 50.601,46.626 50.601,45.626" style="fill:none;stroke-width:0.050000mm;stroke:black"/>
<polygon points="12.788,45.626 12.788,46.626 11.988,46.626 11.988,49.726 12.788,49.726 12.788,55.526 11.988,55.526 11.988,58.626 12.788,58.626 12.788,59.626 26.788,59.626 26.788,58.626 27.588,58.626 27.588,55.526 26.788,55.526 26.788,49.726 27.588,49.726 27.588,46.626 26.788,46.626 26.788,45.626" style="fill:none;stroke-width:0.050000mm;stroke:black"/>
<polygon points="121.682,10.326 121.682,11.151 115.412,11.151 115.412,12.876 114.432,12.876 114.432,16.176 115.412,16.176 115.412,17.901 119.882,17.901 119.882,26.576 119.282,26.576 119.282,25.776 116.182,25.776 116.182,26.576 115.182,26.576 115.182,40.576 116.182,40.576 116.182,41.376 119.282,41.376 119.282,40.576 119.882,40.576 119.882,49.251 115.412,49.251 115.412,50.976 114.432,50.976 114.432,54.276 115.412,54.276 115.412,56.001 121.682,56.001 121.682,56.826 124.482,56.826 124.482,56.001 127.712,56.001 127.712,54.276 128.632,54.276 128.632,50.976 127.712,50.976 127.712,49.251 124.482,49.251 124.482,40.576 125.082,40.576 125.082,41.376 128.182,41.376 128.182,40.576 129.182,40.576 129.182,26.576 128.182,26.576 128.182,25.776 125.082,25.776 125.082,26.576 124.482,26.576 124.482,17.901 127.712,17.901 127.712,16.176 128.632,16.176 128.632,12.876 127.712,12.876 127.712,11.151 124.482,11.151 124.482,10.326" style="fill:none;stroke-width:0.050000mm;stroke:black"/>
<polygon points="217.576,26.576 217.576,27.576 216.776,27.576 216.776,30.676 217.576,30.676 217.576,36.476 216.776,36.476 216.776,39.576 217.576,39.576 217.576,40.576 231.576,40.576 231.576,39.576 232.376,39.576 232.376,36.476 231.576,36.476 231.576,30.676 232.376,30.676 232.376,27.576 231.576,27.576 231.576,26.576" style="fill:none;stroke-width:0.050000mm;stroke:black"/>
<polygon points="198.526,26.576 198.526,27.576 197.726,27.576 197.726,30.676 198.526,30.676 198.526,36.476 197.726,36.476 197.726,39.576 198.526,39.576 198.526,40.576 212.526,40.576 212.526,39.576 213.326,39.576 213.326,36.476 212.526,36.476 212.526,30.676 213.326,30.676 213.326,27.576 212.526,27.576 212.526,26.576" style="fill:none;stroke-width:0.050000mm;stroke:black"/>
<polygon points="179.476,26.576 179.476,27.576 178.676,27.576 178.676,30.676 179.476,30.676 179.476,36.476 178.676,36.476 178.676,39.576 179.476,39.576 179.476,40.576 193.476,40.576 193.476,39.576 194.276,39.576 194.276,36.476 193.476,36.476 193.476,30.676 194.276,30.676 194.276,27.576 193.476,27.576 193.476,26.576" style="fill:none;stroke-width:0.050000mm;stroke:black"/>
<polygon points="160.426,26.576 160.426,27.576 159.626,27.576 159.626,30.676 160.426,30.676 160.426,36.476 159.626,36.476 159.626,39.576 160.426,39.576 160.426,40.576 174.426,40.576 174.426,39.576 175.226,39.576 175.226,36.476 174.426,36.476 174.426,30.676 175.226,30.676 175.226,27.576 174.426,27.576 174.426,26.576" style="fill:none;stroke-width:0.050000mm;stroke:black"/>
<polygon points="141.376,26.576 141.376,27.576 140.576,27.576 140.576,30.676 141.376,30.676 141.376,36.476 140.576,36.476 140.576,39.576 141.376,39.576 141.376,40.576 155.376,40.576 155.376,39.576 156.176,39.576 156.176,36.476 155.376,36.476 155.376,30.676 156.176,30.676 156.176,27.576 155.376,27.576 155.376,26.576" style="fill:none;stroke-width:0.050000mm;stroke:black"/>
<polygon points="88.988,26.576 88.988,27.576 88.188,27.576 88.188,30.676 88.988,30.676 88.988,36.476 88.188,36.476 88.188,39.576 88.988,39.576 88.988,40.576 102.988,40.576 102.988,39.576 103.788,39.576 103.788,36.476 102.988,36.476 102.988,30.676 103.788,30.676 103.788,27.576 102.988,27.576 102.988,26.576" style="fill:none;stroke-width:0.050000mm;stroke:black"/>
<polygon points="69.938,26.576 69.938,27.576 69.138,27.576 69.138,30.676 69.938,30.676 69.938,36.476 69.138,36.476 69.138,39.576 69.938,39.576 69.938,40.576 83.938,40.576 83.938,39.576 84.738,39.576 84.738,36.476 83.938,36.476 83.938,30.676 84.738,30.676 84.738,27.576 83.938,27.576 83.938,26.576" style="fill:none;stroke-width:0.050000mm;stroke:black"/>
<polygon points="50.888,26.576 50.888,27.576 50.088,27.576 50.088,30.676 50.888,30.676 50.888,36.476 50.088,36.476 50.088,39.576 50.888,39.576 50.888,40.576 64.888,40.576 64.888,39.576 65.688,39.576 65.688,36.476 64.888,36.476 64.888,30.676 65.688,30.676 65.688,27.576 64.888,27.576 64.888,26.576" style="fill:none;stroke-width:0.050000mm;stroke:black"/>
<polygon points="31.838,26.576 31.838,27.576 31.038,27.576 31.038,30.676 31.838,30.676 31.838,36.476 31.038,36.476 31.038,39.576 31.838,39.576 31.838,40.576 45.838,40.576 45.838,39.576 46.638,39.576 46.638,36.476 45.838,36.476 45.838,30.676 46.638,30.676 46.638,27.576 45.838,27.576 45.838,26.576" style="fill:none;stroke-width:0.050000mm;stroke:black"/>
<polygon points="10.407,26.576 10.407,27.576 9.607,27.576 9.607,30.676 10.407,30.676 10.407,36.476 9.607,36.476 9.607,39.576 10.407,39.576 10.407,40.576 24.407,40.576 24.407,39.576 25.207,39.576 25.207,36.476 24.407,36.476 24.407,30.676 25.207,30.676 25.207,27.576 24.407,27.576 24.407,26.576" style="fill:none;stroke-width:0.050000mm;stroke:black"/>
<polygon points="215.194,7.525 215.194,8.525 214.394,8.525 214.394,11.625 215.194,11.625 215.194,17.425 214.394,17.425 214.394,20.526 215.194,20.526 215.194,21.526 229.194,21.526 229.194,20.526 229.994,20.526 229.994,17.425 229.194,17.425 229.194,11.625 229.994,11.625 229.994,8.525 229.194,8.525 229.194,7.525" style="fill:none;stroke-width:0.050000mm;stroke:black"/>
<polygon points="193.763,7.525 193.763,8.525 192.963,8.525 192.963,11.625 193.763,11.625 193.763,17.425 192.963,17.425 192.963,20.526 193.763,20.526 193.763,21.526 207.763,21.526 207.763,20.526 208.563,20.526 208.563,17.425 207.763,17.425 207.763,11.625 208.563,11.625 208.563,8.525 207.763,8.525 207.763,7.525" style="fill:none;stroke-width:0.050000mm;stroke:black"/>
<polygon points="174.713,7.525 174.713,8.525 173.913,8.525 173.913,11.625 174.713,11.625 174.713,17.425 173.913,17.425 173.913,20.526 174.713,20.526 174.713,21.526 188.713,21.526 188.713,20.526 189.513,20.526 189.513,17.425 188.713,17.425 188.713,11.625 189.513,11.625 189.513,8.525 188.713,8.525 188.713,7.525" style="fill:none;stroke-width:0.050000mm;stroke:black"/>
<polygon points="155.663,7.525 155.663,8.525 154.863,8.525 154.863,11.625 155.663,11.625 155.663,17.425 154.863,17.425 154.863,20.526 155.663,20.526 155.663,21.526 169.663,21.526 169.663,20.526 170.463,20.526 170.463,17.425 169.663,17.425 169.663,11.625 170.463,11.625 170.463,8.525 169.663,8.525 169.663,7.525" style="fill:none;stroke-width:0.050000mm;stroke:black"/>
<polygon points="136.613,7.525 136.613,8.525 135.813,8.525 135.813,11.625 136.613,11.625 136.613,17.425 135.813,17.425 135.813,20.526 136.613,20.526 136.613,21.526 150.613,21.526 150.613,20.526 151.413,20.526 151.413,17.425 150.613,17.425 150.613,11.625 151.413,11.625 151.413,8.525 150.613,8.525 150.613,7.525" style="fill:none;stroke-width:0.050000mm;stroke:black"/>
<polygon points="84.226,7.526 84.226,8.526 83.426,8.526 83.426,11.626 84.226,11.626 84.226,17.426 83.426,17.426 83.426,20.526 84.226,20.526 84.226,21.526 98.226,21.526 98.226,20.526 99.025,20.526 99.025,17.426 98.226,17.426 98.226,11.626 99.025,11.626 99.025,8.526 98.226,8.526 98.226,7.526" style="fill:none;stroke-width:0.050000mm;stroke:black"/>
<polygon points="65.176,7.526 65.176,8.526 64.376,8.526 64.376,11.626 65.176,11.626 65.176,17.426 64.376,17.426 64.376,20.526 65.176,20.526 65.176,21.526 79.176,21.526 79.176,20.526 79.976,20.526 79.976,17.426 79.176,17.426 79.176,11.626 79.976,11.626 79.976,8.526 79.176,8.526 79.176,7.526" style="fill:none;stroke-width:0.050000mm;stroke:black"/>
<polygon points="46.126,7.526 46.126,8.526 45.326,8.526 45.326,11.626 46.126,11.626 46.126,17.426 45.326,17.426 45.326,20.526 46.126,20.526 46.126,21.526 60.126,21.526 60.126,20.526 60.926,20.526 60.926,17.426 60.126,17.426 60.126,11.626 60.926,11.626 60.926,8.526 60.126,8.526 60.126,7.526" style="fill:none;stroke-width:0.050000mm;stroke:black"/>
<polygon points="27.076,7.526 27.076,8.526 26.276,8.526 26.276,11.626 27.076,11.626 27.076,17.426 26.276,17.426 26.276,20.526 27.076,20.526 27.076,21.526 41.076,21.526 41.076,20.526 41.876,20.526 41.876,17.426 41.076,17.426 41.076,11.626 41.876,11.626 41.876,8.526 41.076,8.526 41.076,7.526" style="fill:none;stroke-width:0.050000mm;stroke:black"/>
<polygon points="8.026,7.526 8.026,8.526 7.226,8.526 7.226,11.626 8.026,11.626 8.026,17.426 7.226,17.426 7.226,20.526 8.026,20.526 8.026,21.526 22.026,21.526 22.026,20.526 22.826,20.526 22.826,17.426 22.026,17.426 22.026,11.626 22.826,11.626 22.826,8.526 22.026,8.526 22.026,7.526" style="fill:none;stroke-width:0.050000mm;stroke:black"/>
</svg>
