  0
SECTION
  2
HEADER
  9
$ACADVER
  1
AC1009
  9
$EXTMIN
 10
0.0
 20
0.0
 30
0.0
  9
$EXTMAX
 10
1000.0
 20
1000.0
 30
0.0
  9
$FILLMODE
 70
 0
  9
$SPLFRAME
 70
 1
  0
ENDSEC
  0
SECTION
  2
TABLES
  0
TABLE
  2
LAYER
 70
1
  0
LAYER
  2
0
 70
     0
 62
     7
  6
CONTINUOUS
  0
ENDTAB
  0
ENDSEC
  0
SECTION
  2
ENTITIES
  0
LINE
  8
0
 62
     0
 10
226.697
 20
76.4575
 30
0.0
 11
226.931
 21
76.448
 31
0.0
  0
LINE
  8
0
 62
     0
 10
226.931
 20
76.448
 30
0.0
 11
227.166
 21
76.4219
 31
0.0
  0
LINE
  8
0
 62
     0
 10
227.166
 20
76.4219
 30
0.0
 11
227.397
 21
76.375
 31
0.0
  0
LINE
  8
0
 62
     0
 10
227.397
 20
76.375
 30
0.0
 11
227.623
 21
76.3115
 31
0.0
  0
LINE
  8
0
 62
     0
 10
227.623
 20
76.3115
 30
0.0
 11
227.845
 21
76.2289
 31
0.0
  0
LINE
  8
0
 62
     0
 10
227.845
 20
76.2289
 30
0.0
 11
228.057
 21
76.1312
 31
0.0
  0
LINE
  8
0
 62
     0
 10
228.057
 20
76.1312
 30
0.0
 11
228.264
 21
76.0155
 31
0.0
  0
LINE
  8
0
 62
     0
 10
228.264
 20
76.0155
 30
0.0
 11
228.46
 21
75.8857
 31
0.0
  0
LINE
  8
0
 62
     0
 10
228.46
 20
75.8857
 30
0.0
 11
228.644
 21
75.7396
 31
0.0
  0
LINE
  8
0
 62
     0
 10
228.644
 20
75.7396
 30
0.0
 11
228.818
 21
75.5798
 31
0.0
  0
LINE
  8
0
 62
     0
 10
228.818
 20
75.5798
 30
0.0
 11
228.977
 21
75.4063
 31
0.0
  0
LINE
  8
0
 62
     0
 10
228.977
 20
75.4063
 30
0.0
 11
229.124
 21
75.2217
 31
0.0
  0
LINE
  8
0
 62
     0
 10
229.124
 20
75.2217
 30
0.0
 11
229.253
 21
75.026
 31
0.0
  0
LINE
  8
0
 62
     0
 10
229.253
 20
75.026
 30
0.0
 11
229.369
 21
74.8192
 31
0.0
  0
LINE
  8
0
 62
     0
 10
229.369
 20
74.8192
 30
0.0
 11
229.468
 21
74.6054
 31
0.0
  0
LINE
  8
0
 62
     0
 10
229.468
 20
74.6054
 30
0.0
 11
229.549
 21
74.385
 31
0.0
  0
LINE
  8
0
 62
     0
 10
229.549
 20
74.385
 30
0.0
 11
229.613
 21
74.1578
 31
0.0
  0
LINE
  8
0
 62
     0
 10
229.613
 20
74.1578
 30
0.0
 11
229.66
 21
73.9278
 31
0.0
  0
LINE
  8
0
 62
     0
 10
229.66
 20
73.9278
 30
0.0
 11
229.686
 21
73.6935
 31
0.0
  0
LINE
  8
0
 62
     0
 10
229.686
 20
73.6935
 30
0.0
 11
229.697
 21
73.4579
 31
0.0
  0
LINE
  8
0
 62
     0
 10
229.697
 20
73.4579
 30
0.0
 11
229.697
 21
3.2563
 31
0.0
  0
LINE
  8
0
 62
     0
 10
229.697
 20
3.2563
 30
0.0
 11
229.686
 21
3.02066
 31
0.0
  0
LINE
  8
0
 62
     0
 10
229.686
 20
3.02066
 30
0.0
 11
229.66
 21
2.78777
 31
0.0
  0
LINE
  8
0
 62
     0
 10
229.66
 20
2.78777
 30
0.0
 11
229.613
 21
2.55626
 31
0.0
  0
LINE
  8
0
 62
     0
 10
229.613
 20
2.55626
 30
0.0
 11
229.549
 21
2.32888
 31
0.0
  0
LINE
  8
0
 62
     0
 10
229.549
 20
2.32888
 30
0.0
 11
229.468
 21
2.1084
 31
0.0
  0
LINE
  8
0
 62
     0
 10
229.468
 20
2.1084
 30
0.0
 11
229.369
 21
1.8948
 31
0.0
  0
LINE
  8
0
 62
     0
 10
229.369
 20
1.8948
 30
0.0
 11
229.253
 21
1.68947
 31
0.0
  0
LINE
  8
0
 62
     0
 10
229.253
 20
1.68947
 30
0.0
 11
229.124
 21
1.4938
 31
0.0
  0
LINE
  8
0
 62
     0
 10
229.124
 20
1.4938
 30
0.0
 11
228.977
 21
1.30776
 31
0.0
  0
LINE
  8
0
 62
     0
 10
228.977
 20
1.30776
 30
0.0
 11
228.818
 21
1.1355
 31
0.0
  0
LINE
  8
0
 62
     0
 10
228.818
 20
1.1355
 30
0.0
 11
228.644
 21
0.975653
 31
0.0
  0
LINE
  8
0
 62
     0
 10
228.644
 20
0.975653
 30
0.0
 11
228.46
 21
0.829578
 31
0.0
  0
LINE
  8
0
 62
     0
 10
228.46
 20
0.829578
 30
0.0
 11
228.264
 21
0.698666
 31
0.0
  0
LINE
  8
0
 62
     0
 10
228.264
 20
0.698666
 30
0.0
 11
228.057
 21
0.582909
 31
0.0
  0
LINE
  8
0
 62
     0
 10
228.057
 20
0.582909
 30
0.0
 11
227.845
 21
0.485069
 31
0.0
  0
LINE
  8
0
 62
     0
 10
227.845
 20
0.485069
 30
0.0
 11
227.623
 21
0.403765
 31
0.0
  0
LINE
  8
0
 62
     0
 10
227.623
 20
0.403765
 30
0.0
 11
227.397
 21
0.338998
 31
0.0
  0
LINE
  8
0
 62
     0
 10
227.397
 20
0.338998
 30
0.0
 11
227.166
 21
0.293522
 31
0.0
  0
LINE
  8
0
 62
     0
 10
227.166
 20
0.293522
 30
0.0
 11
226.931
 21
0.265961
 31
0.0
  0
LINE
  8
0
 62
     0
 10
226.931
 20
0.265961
 30
0.0
 11
226.697
 21
0.256315
 31
0.0
  0
LINE
  8
0
 62
     0
 10
226.697
 20
0.256315
 30
0.0
 11
3.09507
 21
0.256315
 31
0.0
  0
LINE
  8
0
 62
     0
 10
3.09507
 20
0.256315
 30
0.0
 11
2.85943
 21
0.265961
 31
0.0
  0
LINE
  8
0
 62
     0
 10
2.85943
 20
0.265961
 30
0.0
 11
2.62516
 21
0.293522
 31
0.0
  0
LINE
  8
0
 62
     0
 10
2.62516
 20
0.293522
 30
0.0
 11
2.39503
 21
0.338998
 31
0.0
  0
LINE
  8
0
 62
     0
 10
2.39503
 20
0.338998
 30
0.0
 11
2.16765
 21
0.403765
 31
0.0
  0
LINE
  8
0
 62
     0
 10
2.16765
 20
0.403765
 30
0.0
 11
1.94717
 21
0.485069
 31
0.0
  0
LINE
  8
0
 62
     0
 10
1.94717
 20
0.485069
 30
0.0
 11
1.73357
 21
0.582909
 31
0.0
  0
LINE
  8
0
 62
     0
 10
1.73357
 20
0.582909
 30
0.0
 11
1.52687
 21
0.698666
 31
0.0
  0
LINE
  8
0
 62
     0
 10
1.52687
 20
0.698666
 30
0.0
 11
1.33119
 21
0.829578
 31
0.0
  0
LINE
  8
0
 62
     0
 10
1.33119
 20
0.829578
 30
0.0
 11
1.14653
 21
0.975653
 31
0.0
  0
LINE
  8
0
 62
     0
 10
1.14653
 20
0.975653
 30
0.0
 11
0.972894
 21
1.1355
 31
0.0
  0
LINE
  8
0
 62
     0
 10
0.972894
 20
1.1355
 30
0.0
 11
0.813043
 21
1.30776
 31
0.0
  0
LINE
  8
0
 62
     0
 10
0.813043
 20
1.30776
 30
0.0
 11
0.666972
 21
1.4938
 31
0.0
  0
LINE
  8
0
 62
     0
 10
0.666972
 20
1.4938
 30
0.0
 11
0.537436
 21
1.68947
 31
0.0
  0
LINE
  8
0
 62
     0
 10
0.537436
 20
1.68947
 30
0.0
 11
0.421679
 21
1.8948
 31
0.0
  0
LINE
  8
0
 62
     0
 10
0.421679
 20
1.8948
 30
0.0
 11
0.323839
 21
2.1084
 31
0.0
  0
LINE
  8
0
 62
     0
 10
0.323839
 20
2.1084
 30
0.0
 11
0.241157
 21
2.32888
 31
0.0
  0
LINE
  8
0
 62
     0
 10
0.241157
 20
2.32888
 30
0.0
 11
0.177767
 21
2.55626
 31
0.0
  0
LINE
  8
0
 62
     0
 10
0.177767
 20
2.55626
 30
0.0
 11
0.130914
 21
2.78777
 31
0.0
  0
LINE
  8
0
 62
     0
 10
0.130914
 20
2.78777
 30
0.0
 11
0.104731
 21
3.02066
 31
0.0
  0
LINE
  8
0
 62
     0
 10
0.104731
 20
3.02066
 30
0.0
 11
0.0950846
 21
3.25768
 31
0.0
  0
LINE
  8
0
 62
     0
 10
0.0950846
 20
3.25768
 30
0.0
 11
0.0950846
 21
73.4579
 31
0.0
  0
LINE
  8
0
 62
     0
 10
0.0950846
 20
73.4579
 30
0.0
 11
0.104731
 21
73.6935
 31
0.0
  0
LINE
  8
0
 62
     0
 10
0.104731
 20
73.6935
 30
0.0
 11
0.130914
 21
73.9278
 31
0.0
  0
LINE
  8
0
 62
     0
 10
0.130914
 20
73.9278
 30
0.0
 11
0.177767
 21
74.1578
 31
0.0
  0
LINE
  8
0
 62
     0
 10
0.177767
 20
74.1578
 30
0.0
 11
0.241157
 21
74.385
 31
0.0
  0
LINE
  8
0
 62
     0
 10
0.241157
 20
74.385
 30
0.0
 11
0.323839
 21
74.6054
 31
0.0
  0
LINE
  8
0
 62
     0
 10
0.323839
 20
74.6054
 30
0.0
 11
0.421679
 21
74.8192
 31
0.0
  0
LINE
  8
0
 62
     0
 10
0.421679
 20
74.8192
 30
0.0
 11
0.537436
 21
75.026
 31
0.0
  0
LINE
  8
0
 62
     0
 10
0.537436
 20
75.026
 30
0.0
 11
0.666972
 21
75.2217
 31
0.0
  0
LINE
  8
0
 62
     0
 10
0.666972
 20
75.2217
 30
0.0
 11
0.813043
 21
75.4063
 31
0.0
  0
LINE
  8
0
 62
     0
 10
0.813043
 20
75.4063
 30
0.0
 11
0.972894
 21
75.5798
 31
0.0
  0
LINE
  8
0
 62
     0
 10
0.972894
 20
75.5798
 30
0.0
 11
1.14653
 21
75.7396
 31
0.0
  0
LINE
  8
0
 62
     0
 10
1.14653
 20
75.7396
 30
0.0
 11
1.33119
 21
75.8857
 31
0.0
  0
LINE
  8
0
 62
     0
 10
1.33119
 20
75.8857
 30
0.0
 11
1.52687
 21
76.0155
 31
0.0
  0
LINE
  8
0
 62
     0
 10
1.52687
 20
76.0155
 30
0.0
 11
1.73357
 21
76.1312
 31
0.0
  0
LINE
  8
0
 62
     0
 10
1.73357
 20
76.1312
 30
0.0
 11
1.94717
 21
76.2289
 31
0.0
  0
LINE
  8
0
 62
     0
 10
1.94717
 20
76.2289
 30
0.0
 11
2.16765
 21
76.3115
 31
0.0
  0
LINE
  8
0
 62
     0
 10
2.16765
 20
76.3115
 30
0.0
 11
2.39503
 21
76.375
 31
0.0
  0
LINE
  8
0
 62
     0
 10
2.39503
 20
76.375
 30
0.0
 11
2.62516
 21
76.4219
 31
0.0
  0
LINE
  8
0
 62
     0
 10
2.62516
 20
76.4219
 30
0.0
 11
2.85943
 21
76.448
 31
0.0
  0
LINE
  8
0
 62
     0
 10
2.85943
 20
76.448
 30
0.0
 11
3.09507
 21
76.4575
 31
0.0
  0
LINE
  8
0
 62
     0
 10
3.09507
 20
76.4575
 30
0.0
 11
226.697
 21
76.4575
 31
0.0
  0
LINE
  8
0
 62
     0
 10
207.907
 20
16.7817
 30
0.0
 11
207.907
 21
15.7827
 31
0.0
  0
LINE
  8
0
 62
     0
 10
207.907
 20
15.7827
 30
0.0
 11
207.108
 21
15.7827
 31
0.0
  0
LINE
  8
0
 62
     0
 10
207.108
 20
15.7827
 30
0.0
 11
207.108
 21
12.6835
 31
0.0
  0
LINE
  8
0
 62
     0
 10
207.108
 20
12.6835
 30
0.0
 11
207.907
 21
12.6835
 31
0.0
  0
LINE
  8
0
 62
     0
 10
207.907
 20
12.6835
 30
0.0
 11
207.907
 21
6.88192
 31
0.0
  0
LINE
  8
0
 62
     0
 10
207.907
 20
6.88192
 30
0.0
 11
207.108
 21
6.88192
 31
0.0
  0
LINE
  8
0
 62
     0
 10
207.108
 20
6.88192
 30
0.0
 11
207.108
 21
3.78273
 31
0.0
  0
LINE
  8
0
 62
     0
 10
207.108
 20
3.78273
 30
0.0
 11
207.907
 21
3.78273
 31
0.0
  0
LINE
  8
0
 62
     0
 10
207.907
 20
3.78273
 30
0.0
 11
207.907
 21
2.78226
 31
0.0
  0
LINE
  8
0
 62
     0
 10
207.907
 20
2.78226
 30
0.0
 11
221.907
 21
2.78226
 31
0.0
  0
LINE
  8
0
 62
     0
 10
221.907
 20
2.78226
 30
0.0
 11
221.907
 21
3.78273
 31
0.0
  0
LINE
  8
0
 62
     0
 10
221.907
 20
3.78273
 30
0.0
 11
222.708
 21
3.78273
 31
0.0
  0
LINE
  8
0
 62
     0
 10
222.708
 20
3.78273
 30
0.0
 11
222.708
 21
6.88192
 31
0.0
  0
LINE
  8
0
 62
     0
 10
222.708
 20
6.88192
 30
0.0
 11
221.907
 21
6.88192
 31
0.0
  0
LINE
  8
0
 62
     0
 10
221.907
 20
6.88192
 30
0.0
 11
221.907
 21
12.6835
 31
0.0
  0
LINE
  8
0
 62
     0
 10
221.907
 20
12.6835
 30
0.0
 11
222.708
 21
12.6835
 31
0.0
  0
LINE
  8
0
 62
     0
 10
222.708
 20
12.6835
 30
0.0
 11
222.708
 21
15.7827
 31
0.0
  0
LINE
  8
0
 62
     0
 10
222.708
 20
15.7827
 30
0.0
 11
221.907
 21
15.7827
 31
0.0
  0
LINE
  8
0
 62
     0
 10
221.907
 20
15.7827
 30
0.0
 11
221.907
 21
16.7817
 31
0.0
  0
LINE
  8
0
 62
     0
 10
221.907
 20
16.7817
 30
0.0
 11
207.907
 21
16.7817
 31
0.0
  0
LINE
  8
0
 62
     0
 10
188.857
 20
16.7817
 30
0.0
 11
188.857
 21
15.7827
 31
0.0
  0
LINE
  8
0
 62
     0
 10
188.857
 20
15.7827
 30
0.0
 11
188.058
 21
15.7827
 31
0.0
  0
LINE
  8
0
 62
     0
 10
188.058
 20
15.7827
 30
0.0
 11
188.058
 21
12.6835
 31
0.0
  0
LINE
  8
0
 62
     0
 10
188.058
 20
12.6835
 30
0.0
 11
188.857
 21
12.6835
 31
0.0
  0
LINE
  8
0
 62
     0
 10
188.857
 20
12.6835
 30
0.0
 11
188.857
 21
6.88192
 31
0.0
  0
LINE
  8
0
 62
     0
 10
188.857
 20
6.88192
 30
0.0
 11
188.058
 21
6.88192
 31
0.0
  0
LINE
  8
0
 62
     0
 10
188.058
 20
6.88192
 30
0.0
 11
188.058
 21
3.78273
 31
0.0
  0
LINE
  8
0
 62
     0
 10
188.058
 20
3.78273
 30
0.0
 11
188.857
 21
3.78273
 31
0.0
  0
LINE
  8
0
 62
     0
 10
188.857
 20
3.78273
 30
0.0
 11
188.857
 21
2.78226
 31
0.0
  0
LINE
  8
0
 62
     0
 10
188.857
 20
2.78226
 30
0.0
 11
202.857
 21
2.78226
 31
0.0
  0
LINE
  8
0
 62
     0
 10
202.857
 20
2.78226
 30
0.0
 11
202.857
 21
3.78273
 31
0.0
  0
LINE
  8
0
 62
     0
 10
202.857
 20
3.78273
 30
0.0
 11
203.658
 21
3.78273
 31
0.0
  0
LINE
  8
0
 62
     0
 10
203.658
 20
3.78273
 30
0.0
 11
203.658
 21
6.88192
 31
0.0
  0
LINE
  8
0
 62
     0
 10
203.658
 20
6.88192
 30
0.0
 11
202.857
 21
6.88192
 31
0.0
  0
LINE
  8
0
 62
     0
 10
202.857
 20
6.88192
 30
0.0
 11
202.857
 21
12.6835
 31
0.0
  0
LINE
  8
0
 62
     0
 10
202.857
 20
12.6835
 30
0.0
 11
203.658
 21
12.6835
 31
0.0
  0
LINE
  8
0
 62
     0
 10
203.658
 20
12.6835
 30
0.0
 11
203.658
 21
15.7827
 31
0.0
  0
LINE
  8
0
 62
     0
 10
203.658
 20
15.7827
 30
0.0
 11
202.857
 21
15.7827
 31
0.0
  0
LINE
  8
0
 62
     0
 10
202.857
 20
15.7827
 30
0.0
 11
202.857
 21
16.7817
 31
0.0
  0
LINE
  8
0
 62
     0
 10
202.857
 20
16.7817
 30
0.0
 11
188.857
 21
16.7817
 31
0.0
  0
LINE
  8
0
 62
     0
 10
169.807
 20
16.7817
 30
0.0
 11
169.807
 21
15.7827
 31
0.0
  0
LINE
  8
0
 62
     0
 10
169.807
 20
15.7827
 30
0.0
 11
169.008
 21
15.7827
 31
0.0
  0
LINE
  8
0
 62
     0
 10
169.008
 20
15.7827
 30
0.0
 11
169.008
 21
12.6835
 31
0.0
  0
LINE
  8
0
 62
     0
 10
169.008
 20
12.6835
 30
0.0
 11
169.807
 21
12.6835
 31
0.0
  0
LINE
  8
0
 62
     0
 10
169.807
 20
12.6835
 30
0.0
 11
169.807
 21
6.88192
 31
0.0
  0
LINE
  8
0
 62
     0
 10
169.807
 20
6.88192
 30
0.0
 11
169.008
 21
6.88192
 31
0.0
  0
LINE
  8
0
 62
     0
 10
169.008
 20
6.88192
 30
0.0
 11
169.008
 21
3.78273
 31
0.0
  0
LINE
  8
0
 62
     0
 10
169.008
 20
3.78273
 30
0.0
 11
169.807
 21
3.78273
 31
0.0
  0
LINE
  8
0
 62
     0
 10
169.807
 20
3.78273
 30
0.0
 11
169.807
 21
2.78226
 31
0.0
  0
LINE
  8
0
 62
     0
 10
169.807
 20
2.78226
 30
0.0
 11
183.807
 21
2.78226
 31
0.0
  0
LINE
  8
0
 62
     0
 10
183.807
 20
2.78226
 30
0.0
 11
183.807
 21
3.78273
 31
0.0
  0
LINE
  8
0
 62
     0
 10
183.807
 20
3.78273
 30
0.0
 11
184.608
 21
3.78273
 31
0.0
  0
LINE
  8
0
 62
     0
 10
184.608
 20
3.78273
 30
0.0
 11
184.608
 21
6.88192
 31
0.0
  0
LINE
  8
0
 62
     0
 10
184.608
 20
6.88192
 30
0.0
 11
183.807
 21
6.88192
 31
0.0
  0
LINE
  8
0
 62
     0
 10
183.807
 20
6.88192
 30
0.0
 11
183.807
 21
12.6835
 31
0.0
  0
LINE
  8
0
 62
     0
 10
183.807
 20
12.6835
 30
0.0
 11
184.608
 21
12.6835
 31
0.0
  0
LINE
  8
0
 62
     0
 10
184.608
 20
12.6835
 30
0.0
 11
184.608
 21
15.7827
 31
0.0
  0
LINE
  8
0
 62
     0
 10
184.608
 20
15.7827
 30
0.0
 11
183.807
 21
15.7827
 31
0.0
  0
LINE
  8
0
 62
     0
 10
183.807
 20
15.7827
 30
0.0
 11
183.807
 21
16.7817
 31
0.0
  0
LINE
  8
0
 62
     0
 10
183.807
 20
16.7817
 30
0.0
 11
169.807
 21
16.7817
 31
0.0
  0
LINE
  8
0
 62
     0
 10
148.376
 20
16.7817
 30
0.0
 11
148.376
 21
15.7827
 31
0.0
  0
LINE
  8
0
 62
     0
 10
148.376
 20
15.7827
 30
0.0
 11
147.577
 21
15.7827
 31
0.0
  0
LINE
  8
0
 62
     0
 10
147.577
 20
15.7827
 30
0.0
 11
147.577
 21
12.6835
 31
0.0
  0
LINE
  8
0
 62
     0
 10
147.577
 20
12.6835
 30
0.0
 11
148.376
 21
12.6835
 31
0.0
  0
LINE
  8
0
 62
     0
 10
148.376
 20
12.6835
 30
0.0
 11
148.376
 21
6.88192
 31
0.0
  0
LINE
  8
0
 62
     0
 10
148.376
 20
6.88192
 30
0.0
 11
147.577
 21
6.88192
 31
0.0
  0
LINE
  8
0
 62
     0
 10
147.577
 20
6.88192
 30
0.0
 11
147.577
 21
3.78273
 31
0.0
  0
LINE
  8
0
 62
     0
 10
147.577
 20
3.78273
 30
0.0
 11
148.376
 21
3.78273
 31
0.0
  0
LINE
  8
0
 62
     0
 10
148.376
 20
3.78273
 30
0.0
 11
148.376
 21
2.78226
 31
0.0
  0
LINE
  8
0
 62
     0
 10
148.376
 20
2.78226
 30
0.0
 11
162.377
 21
2.78226
 31
0.0
  0
LINE
  8
0
 62
     0
 10
162.377
 20
2.78226
 30
0.0
 11
162.377
 21
3.78273
 31
0.0
  0
LINE
  8
0
 62
     0
 10
162.377
 20
3.78273
 30
0.0
 11
163.176
 21
3.78273
 31
0.0
  0
LINE
  8
0
 62
     0
 10
163.176
 20
3.78273
 30
0.0
 11
163.176
 21
6.88192
 31
0.0
  0
LINE
  8
0
 62
     0
 10
163.176
 20
6.88192
 30
0.0
 11
162.377
 21
6.88192
 31
0.0
  0
LINE
  8
0
 62
     0
 10
162.377
 20
6.88192
 30
0.0
 11
162.377
 21
12.6835
 31
0.0
  0
LINE
  8
0
 62
     0
 10
162.377
 20
12.6835
 30
0.0
 11
163.176
 21
12.6835
 31
0.0
  0
LINE
  8
0
 62
     0
 10
163.176
 20
12.6835
 30
0.0
 11
163.176
 21
15.7827
 31
0.0
  0
LINE
  8
0
 62
     0
 10
163.176
 20
15.7827
 30
0.0
 11
162.377
 21
15.7827
 31
0.0
  0
LINE
  8
0
 62
     0
 10
162.377
 20
15.7827
 30
0.0
 11
162.377
 21
16.7817
 31
0.0
  0
LINE
  8
0
 62
     0
 10
162.377
 20
16.7817
 30
0.0
 11
148.376
 21
16.7817
 31
0.0
  0
LINE
  8
0
 62
     0
 10
119.801
 20
16.7817
 30
0.0
 11
119.801
 21
15.7827
 31
0.0
  0
LINE
  8
0
 62
     0
 10
119.801
 20
15.7827
 30
0.0
 11
119.002
 21
15.7827
 31
0.0
  0
LINE
  8
0
 62
     0
 10
119.002
 20
15.7827
 30
0.0
 11
119.002
 21
12.6835
 31
0.0
  0
LINE
  8
0
 62
     0
 10
119.002
 20
12.6835
 30
0.0
 11
119.801
 21
12.6835
 31
0.0
  0
LINE
  8
0
 62
     0
 10
119.801
 20
12.6835
 30
0.0
 11
119.801
 21
6.88192
 31
0.0
  0
LINE
  8
0
 62
     0
 10
119.801
 20
6.88192
 30
0.0
 11
119.002
 21
6.88192
 31
0.0
  0
LINE
  8
0
 62
     0
 10
119.002
 20
6.88192
 30
0.0
 11
119.002
 21
3.78273
 31
0.0
  0
LINE
  8
0
 62
     0
 10
119.002
 20
3.78273
 30
0.0
 11
119.801
 21
3.78273
 31
0.0
  0
LINE
  8
0
 62
     0
 10
119.801
 20
3.78273
 30
0.0
 11
119.801
 21
2.78226
 31
0.0
  0
LINE
  8
0
 62
     0
 10
119.801
 20
2.78226
 30
0.0
 11
133.802
 21
2.78226
 31
0.0
  0
LINE
  8
0
 62
     0
 10
133.802
 20
2.78226
 30
0.0
 11
133.802
 21
3.78273
 31
0.0
  0
LINE
  8
0
 62
     0
 10
133.802
 20
3.78273
 30
0.0
 11
134.601
 21
3.78273
 31
0.0
  0
LINE
  8
0
 62
     0
 10
134.601
 20
3.78273
 30
0.0
 11
134.601
 21
6.88192
 31
0.0
  0
LINE
  8
0
 62
     0
 10
134.601
 20
6.88192
 30
0.0
 11
133.802
 21
6.88192
 31
0.0
  0
LINE
  8
0
 62
     0
 10
133.802
 20
6.88192
 30
0.0
 11
133.802
 21
12.6835
 31
0.0
  0
LINE
  8
0
 62
     0
 10
133.802
 20
12.6835
 30
0.0
 11
134.601
 21
12.6835
 31
0.0
  0
LINE
  8
0
 62
     0
 10
134.601
 20
12.6835
 30
0.0
 11
134.601
 21
15.7827
 31
0.0
  0
LINE
  8
0
 62
     0
 10
134.601
 20
15.7827
 30
0.0
 11
133.802
 21
15.7827
 31
0.0
  0
LINE
  8
0
 62
     0
 10
133.802
 20
15.7827
 30
0.0
 11
133.802
 21
16.7817
 31
0.0
  0
LINE
  8
0
 62
     0
 10
133.802
 20
16.7817
 30
0.0
 11
119.801
 21
16.7817
 31
0.0
  0
LINE
  8
0
 62
     0
 10
86.4637
 20
16.7817
 30
0.0
 11
86.4637
 21
15.7827
 31
0.0
  0
LINE
  8
0
 62
     0
 10
86.4637
 20
15.7827
 30
0.0
 11
85.6629
 21
15.7827
 31
0.0
  0
LINE
  8
0
 62
     0
 10
85.6629
 20
15.7827
 30
0.0
 11
85.6629
 21
12.6835
 31
0.0
  0
LINE
  8
0
 62
     0
 10
85.6629
 20
12.6835
 30
0.0
 11
86.4637
 21
12.6835
 31
0.0
  0
LINE
  8
0
 62
     0
 10
86.4637
 20
12.6835
 30
0.0
 11
86.4637
 21
6.88192
 31
0.0
  0
LINE
  8
0
 62
     0
 10
86.4637
 20
6.88192
 30
0.0
 11
85.6629
 21
6.88192
 31
0.0
  0
LINE
  8
0
 62
     0
 10
85.6629
 20
6.88192
 30
0.0
 11
85.6629
 21
3.78273
 31
0.0
  0
LINE
  8
0
 62
     0
 10
85.6629
 20
3.78273
 30
0.0
 11
86.4637
 21
3.78273
 31
0.0
  0
LINE
  8
0
 62
     0
 10
86.4637
 20
3.78273
 30
0.0
 11
86.4637
 21
2.78226
 31
0.0
  0
LINE
  8
0
 62
     0
 10
86.4637
 20
2.78226
 30
0.0
 11
100.463
 21
2.78226
 31
0.0
  0
LINE
  8
0
 62
     0
 10
100.463
 20
2.78226
 30
0.0
 11
100.463
 21
3.78273
 31
0.0
  0
LINE
  8
0
 62
     0
 10
100.463
 20
3.78273
 30
0.0
 11
101.264
 21
3.78273
 31
0.0
  0
LINE
  8
0
 62
     0
 10
101.264
 20
3.78273
 30
0.0
 11
101.264
 21
6.88192
 31
0.0
  0
LINE
  8
0
 62
     0
 10
101.264
 20
6.88192
 30
0.0
 11
100.463
 21
6.88192
 31
0.0
  0
LINE
  8
0
 62
     0
 10
100.463
 20
6.88192
 30
0.0
 11
100.463
 21
12.6835
 31
0.0
  0
LINE
  8
0
 62
     0
 10
100.463
 20
12.6835
 30
0.0
 11
101.264
 21
12.6835
 31
0.0
  0
LINE
  8
0
 62
     0
 10
101.264
 20
12.6835
 30
0.0
 11
101.264
 21
15.7827
 31
0.0
  0
LINE
  8
0
 62
     0
 10
101.264
 20
15.7827
 30
0.0
 11
100.463
 21
15.7827
 31
0.0
  0
LINE
  8
0
 62
     0
 10
100.463
 20
15.7827
 30
0.0
 11
100.463
 21
16.7817
 31
0.0
  0
LINE
  8
0
 62
     0
 10
100.463
 20
16.7817
 30
0.0
 11
86.4637
 21
16.7817
 31
0.0
  0
LINE
  8
0
 62
     0
 10
57.8887
 20
16.7817
 30
0.0
 11
57.8887
 21
15.7827
 31
0.0
  0
LINE
  8
0
 62
     0
 10
57.8887
 20
15.7827
 30
0.0
 11
57.0879
 21
15.7827
 31
0.0
  0
LINE
  8
0
 62
     0
 10
57.0879
 20
15.7827
 30
0.0
 11
57.0879
 21
12.6835
 31
0.0
  0
LINE
  8
0
 62
     0
 10
57.0879
 20
12.6835
 30
0.0
 11
57.8887
 21
12.6835
 31
0.0
  0
LINE
  8
0
 62
     0
 10
57.8887
 20
12.6835
 30
0.0
 11
57.8887
 21
6.88192
 31
0.0
  0
LINE
  8
0
 62
     0
 10
57.8887
 20
6.88192
 30
0.0
 11
57.0879
 21
6.88192
 31
0.0
  0
LINE
  8
0
 62
     0
 10
57.0879
 20
6.88192
 30
0.0
 11
57.0879
 21
3.78273
 31
0.0
  0
LINE
  8
0
 62
     0
 10
57.0879
 20
3.78273
 30
0.0
 11
57.8887
 21
3.78273
 31
0.0
  0
LINE
  8
0
 62
     0
 10
57.8887
 20
3.78273
 30
0.0
 11
57.8887
 21
2.78226
 31
0.0
  0
LINE
  8
0
 62
     0
 10
57.8887
 20
2.78226
 30
0.0
 11
71.888
 21
2.78226
 31
0.0
  0
LINE
  8
0
 62
     0
 10
71.888
 20
2.78226
 30
0.0
 11
71.888
 21
3.78273
 31
0.0
  0
LINE
  8
0
 62
     0
 10
71.888
 20
3.78273
 30
0.0
 11
72.6888
 21
3.78273
 31
0.0
  0
LINE
  8
0
 62
     0
 10
72.6888
 20
3.78273
 30
0.0
 11
72.6888
 21
6.88192
 31
0.0
  0
LINE
  8
0
 62
     0
 10
72.6888
 20
6.88192
 30
0.0
 11
71.888
 21
6.88192
 31
0.0
  0
LINE
  8
0
 62
     0
 10
71.888
 20
6.88192
 30
0.0
 11
71.888
 21
12.6835
 31
0.0
  0
LINE
  8
0
 62
     0
 10
71.888
 20
12.6835
 30
0.0
 11
72.6888
 21
12.6835
 31
0.0
  0
LINE
  8
0
 62
     0
 10
72.6888
 20
12.6835
 30
0.0
 11
72.6888
 21
15.7827
 31
0.0
  0
LINE
  8
0
 62
     0
 10
72.6888
 20
15.7827
 30
0.0
 11
71.888
 21
15.7827
 31
0.0
  0
LINE
  8
0
 62
     0
 10
71.888
 20
15.7827
 30
0.0
 11
71.888
 21
16.7817
 31
0.0
  0
LINE
  8
0
 62
     0
 10
71.888
 20
16.7817
 30
0.0
 11
57.8887
 21
16.7817
 31
0.0
  0
LINE
  8
0
 62
     0
 10
34.0761
 20
16.7817
 30
0.0
 11
34.0761
 21
15.7827
 31
0.0
  0
LINE
  8
0
 62
     0
 10
34.0761
 20
15.7827
 30
0.0
 11
33.2769
 21
15.7827
 31
0.0
  0
LINE
  8
0
 62
     0
 10
33.2769
 20
15.7827
 30
0.0
 11
33.2769
 21
12.6835
 31
0.0
  0
LINE
  8
0
 62
     0
 10
33.2769
 20
12.6835
 30
0.0
 11
34.0761
 21
12.6835
 31
0.0
  0
LINE
  8
0
 62
     0
 10
34.0761
 20
12.6835
 30
0.0
 11
34.0761
 21
6.88192
 31
0.0
  0
LINE
  8
0
 62
     0
 10
34.0761
 20
6.88192
 30
0.0
 11
33.2769
 21
6.88192
 31
0.0
  0
LINE
  8
0
 62
     0
 10
33.2769
 20
6.88192
 30
0.0
 11
33.2769
 21
3.78273
 31
0.0
  0
LINE
  8
0
 62
     0
 10
33.2769
 20
3.78273
 30
0.0
 11
34.0761
 21
3.78273
 31
0.0
  0
LINE
  8
0
 62
     0
 10
34.0761
 20
3.78273
 30
0.0
 11
34.0761
 21
2.78226
 31
0.0
  0
LINE
  8
0
 62
     0
 10
34.0761
 20
2.78226
 30
0.0
 11
48.0769
 21
2.78226
 31
0.0
  0
LINE
  8
0
 62
     0
 10
48.0769
 20
2.78226
 30
0.0
 11
48.0769
 21
3.78273
 31
0.0
  0
LINE
  8
0
 62
     0
 10
48.0769
 20
3.78273
 30
0.0
 11
48.8763
 21
3.78273
 31
0.0
  0
LINE
  8
0
 62
     0
 10
48.8763
 20
3.78273
 30
0.0
 11
48.8763
 21
6.88192
 31
0.0
  0
LINE
  8
0
 62
     0
 10
48.8763
 20
6.88192
 30
0.0
 11
48.0769
 21
6.88192
 31
0.0
  0
LINE
  8
0
 62
     0
 10
48.0769
 20
6.88192
 30
0.0
 11
48.0769
 21
12.6835
 31
0.0
  0
LINE
  8
0
 62
     0
 10
48.0769
 20
12.6835
 30
0.0
 11
48.8763
 21
12.6835
 31
0.0
  0
LINE
  8
0
 62
     0
 10
48.8763
 20
12.6835
 30
0.0
 11
48.8763
 21
15.7827
 31
0.0
  0
LINE
  8
0
 62
     0
 10
48.8763
 20
15.7827
 30
0.0
 11
48.0769
 21
15.7827
 31
0.0
  0
LINE
  8
0
 62
     0
 10
48.0769
 20
15.7827
 30
0.0
 11
48.0769
 21
16.7817
 31
0.0
  0
LINE
  8
0
 62
     0
 10
48.0769
 20
16.7817
 30
0.0
 11
34.0761
 21
16.7817
 31
0.0
  0
LINE
  8
0
 62
     0
 10
10.2636
 20
16.7817
 30
0.0
 11
10.2636
 21
15.7827
 31
0.0
  0
LINE
  8
0
 62
     0
 10
10.2636
 20
15.7827
 30
0.0
 11
9.46298
 21
15.7827
 31
0.0
  0
LINE
  8
0
 62
     0
 10
9.46298
 20
15.7827
 30
0.0
 11
9.46298
 21
12.6835
 31
0.0
  0
LINE
  8
0
 62
     0
 10
9.46298
 20
12.6835
 30
0.0
 11
10.2636
 21
12.6835
 31
0.0
  0
LINE
  8
0
 62
     0
 10
10.2636
 20
12.6835
 30
0.0
 11
10.2636
 21
6.88192
 31
0.0
  0
LINE
  8
0
 62
     0
 10
10.2636
 20
6.88192
 30
0.0
 11
9.46298
 21
6.88192
 31
0.0
  0
LINE
  8
0
 62
     0
 10
9.46298
 20
6.88192
 30
0.0
 11
9.46298
 21
3.78273
 31
0.0
  0
LINE
  8
0
 62
     0
 10
9.46298
 20
3.78273
 30
0.0
 11
10.2636
 21
3.78273
 31
0.0
  0
LINE
  8
0
 62
     0
 10
10.2636
 20
3.78273
 30
0.0
 11
10.2636
 21
2.78226
 31
0.0
  0
LINE
  8
0
 62
     0
 10
10.2636
 20
2.78226
 30
0.0
 11
24.2631
 21
2.78226
 31
0.0
  0
LINE
  8
0
 62
     0
 10
24.2631
 20
2.78226
 30
0.0
 11
24.2631
 21
3.78273
 31
0.0
  0
LINE
  8
0
 62
     0
 10
24.2631
 20
3.78273
 30
0.0
 11
25.0638
 21
3.78273
 31
0.0
  0
LINE
  8
0
 62
     0
 10
25.0638
 20
3.78273
 30
0.0
 11
25.0638
 21
6.88192
 31
0.0
  0
LINE
  8
0
 62
     0
 10
25.0638
 20
6.88192
 30
0.0
 11
24.2631
 21
6.88192
 31
0.0
  0
LINE
  8
0
 62
     0
 10
24.2631
 20
6.88192
 30
0.0
 11
24.2631
 21
12.6835
 31
0.0
  0
LINE
  8
0
 62
     0
 10
24.2631
 20
12.6835
 30
0.0
 11
25.0638
 21
12.6835
 31
0.0
  0
LINE
  8
0
 62
     0
 10
25.0638
 20
12.6835
 30
0.0
 11
25.0638
 21
15.7827
 31
0.0
  0
LINE
  8
0
 62
     0
 10
25.0638
 20
15.7827
 30
0.0
 11
24.2631
 21
15.7827
 31
0.0
  0
LINE
  8
0
 62
     0
 10
24.2631
 20
15.7827
 30
0.0
 11
24.2631
 21
16.7817
 31
0.0
  0
LINE
  8
0
 62
     0
 10
24.2631
 20
16.7817
 30
0.0
 11
10.2636
 21
16.7817
 31
0.0
  0
LINE
  8
0
 62
     0
 10
205.526
 20
35.8316
 30
0.0
 11
205.526
 21
34.8327
 31
0.0
  0
LINE
  8
0
 62
     0
 10
205.526
 20
34.8327
 30
0.0
 11
204.727
 21
34.8327
 31
0.0
  0
LINE
  8
0
 62
     0
 10
204.727
 20
34.8327
 30
0.0
 11
204.727
 21
31.7321
 31
0.0
  0
LINE
  8
0
 62
     0
 10
204.727
 20
31.7321
 30
0.0
 11
205.526
 21
31.7321
 31
0.0
  0
LINE
  8
0
 62
     0
 10
205.526
 20
31.7321
 30
0.0
 11
205.526
 21
25.9319
 31
0.0
  0
LINE
  8
0
 62
     0
 10
205.526
 20
25.9319
 30
0.0
 11
204.727
 21
25.9319
 31
0.0
  0
LINE
  8
0
 62
     0
 10
204.727
 20
25.9319
 30
0.0
 11
204.727
 21
22.8327
 31
0.0
  0
LINE
  8
0
 62
     0
 10
204.727
 20
22.8327
 30
0.0
 11
205.526
 21
22.8327
 31
0.0
  0
LINE
  8
0
 62
     0
 10
205.526
 20
22.8327
 30
0.0
 11
205.526
 21
21.8323
 31
0.0
  0
LINE
  8
0
 62
     0
 10
205.526
 20
21.8323
 30
0.0
 11
219.527
 21
21.8323
 31
0.0
  0
LINE
  8
0
 62
     0
 10
219.527
 20
21.8323
 30
0.0
 11
219.527
 21
22.8327
 31
0.0
  0
LINE
  8
0
 62
     0
 10
219.527
 20
22.8327
 30
0.0
 11
220.326
 21
22.8327
 31
0.0
  0
LINE
  8
0
 62
     0
 10
220.326
 20
22.8327
 30
0.0
 11
220.326
 21
25.9319
 31
0.0
  0
LINE
  8
0
 62
     0
 10
220.326
 20
25.9319
 30
0.0
 11
219.527
 21
25.9319
 31
0.0
  0
LINE
  8
0
 62
     0
 10
219.527
 20
25.9319
 30
0.0
 11
219.527
 21
31.7321
 31
0.0
  0
LINE
  8
0
 62
     0
 10
219.527
 20
31.7321
 30
0.0
 11
220.326
 21
31.7321
 31
0.0
  0
LINE
  8
0
 62
     0
 10
220.326
 20
31.7321
 30
0.0
 11
220.326
 21
34.8327
 31
0.0
  0
LINE
  8
0
 62
     0
 10
220.326
 20
34.8327
 30
0.0
 11
219.527
 21
34.8327
 31
0.0
  0
LINE
  8
0
 62
     0
 10
219.527
 20
34.8327
 30
0.0
 11
219.527
 21
35.8316
 31
0.0
  0
LINE
  8
0
 62
     0
 10
219.527
 20
35.8316
 30
0.0
 11
205.526
 21
35.8316
 31
0.0
  0
LINE
  8
0
 62
     0
 10
179.332
 20
35.8316
 30
0.0
 11
179.332
 21
34.8327
 31
0.0
  0
LINE
  8
0
 62
     0
 10
179.332
 20
34.8327
 30
0.0
 11
178.533
 21
34.8327
 31
0.0
  0
LINE
  8
0
 62
     0
 10
178.533
 20
34.8327
 30
0.0
 11
178.533
 21
31.7321
 31
0.0
  0
LINE
  8
0
 62
     0
 10
178.533
 20
31.7321
 30
0.0
 11
179.332
 21
31.7321
 31
0.0
  0
LINE
  8
0
 62
     0
 10
179.332
 20
31.7321
 30
0.0
 11
179.332
 21
25.9319
 31
0.0
  0
LINE
  8
0
 62
     0
 10
179.332
 20
25.9319
 30
0.0
 11
178.533
 21
25.9319
 31
0.0
  0
LINE
  8
0
 62
     0
 10
178.533
 20
25.9319
 30
0.0
 11
178.533
 21
22.8327
 31
0.0
  0
LINE
  8
0
 62
     0
 10
178.533
 20
22.8327
 30
0.0
 11
179.332
 21
22.8327
 31
0.0
  0
LINE
  8
0
 62
     0
 10
179.332
 20
22.8327
 30
0.0
 11
179.332
 21
21.8323
 31
0.0
  0
LINE
  8
0
 62
     0
 10
179.332
 20
21.8323
 30
0.0
 11
193.332
 21
21.8323
 31
0.0
  0
LINE
  8
0
 62
     0
 10
193.332
 20
21.8323
 30
0.0
 11
193.332
 21
22.8327
 31
0.0
  0
LINE
  8
0
 62
     0
 10
193.332
 20
22.8327
 30
0.0
 11
194.133
 21
22.8327
 31
0.0
  0
LINE
  8
0
 62
     0
 10
194.133
 20
22.8327
 30
0.0
 11
194.133
 21
25.9319
 31
0.0
  0
LINE
  8
0
 62
     0
 10
194.133
 20
25.9319
 30
0.0
 11
193.332
 21
25.9319
 31
0.0
  0
LINE
  8
0
 62
     0
 10
193.332
 20
25.9319
 30
0.0
 11
193.332
 21
31.7321
 31
0.0
  0
LINE
  8
0
 62
     0
 10
193.332
 20
31.7321
 30
0.0
 11
194.133
 21
31.7321
 31
0.0
  0
LINE
  8
0
 62
     0
 10
194.133
 20
31.7321
 30
0.0
 11
194.133
 21
34.8327
 31
0.0
  0
LINE
  8
0
 62
     0
 10
194.133
 20
34.8327
 30
0.0
 11
193.332
 21
34.8327
 31
0.0
  0
LINE
  8
0
 62
     0
 10
193.332
 20
34.8327
 30
0.0
 11
193.332
 21
35.8316
 31
0.0
  0
LINE
  8
0
 62
     0
 10
193.332
 20
35.8316
 30
0.0
 11
179.332
 21
35.8316
 31
0.0
  0
LINE
  8
0
 62
     0
 10
160.282
 20
35.8316
 30
0.0
 11
160.282
 21
34.8327
 31
0.0
  0
LINE
  8
0
 62
     0
 10
160.282
 20
34.8327
 30
0.0
 11
159.483
 21
34.8327
 31
0.0
  0
LINE
  8
0
 62
     0
 10
159.483
 20
34.8327
 30
0.0
 11
159.483
 21
31.7321
 31
0.0
  0
LINE
  8
0
 62
     0
 10
159.483
 20
31.7321
 30
0.0
 11
160.282
 21
31.7321
 31
0.0
  0
LINE
  8
0
 62
     0
 10
160.282
 20
31.7321
 30
0.0
 11
160.282
 21
25.9319
 31
0.0
  0
LINE
  8
0
 62
     0
 10
160.282
 20
25.9319
 30
0.0
 11
159.483
 21
25.9319
 31
0.0
  0
LINE
  8
0
 62
     0
 10
159.483
 20
25.9319
 30
0.0
 11
159.483
 21
22.8327
 31
0.0
  0
LINE
  8
0
 62
     0
 10
159.483
 20
22.8327
 30
0.0
 11
160.282
 21
22.8327
 31
0.0
  0
LINE
  8
0
 62
     0
 10
160.282
 20
22.8327
 30
0.0
 11
160.282
 21
21.8323
 31
0.0
  0
LINE
  8
0
 62
     0
 10
160.282
 20
21.8323
 30
0.0
 11
174.282
 21
21.8323
 31
0.0
  0
LINE
  8
0
 62
     0
 10
174.282
 20
21.8323
 30
0.0
 11
174.282
 21
22.8327
 31
0.0
  0
LINE
  8
0
 62
     0
 10
174.282
 20
22.8327
 30
0.0
 11
175.083
 21
22.8327
 31
0.0
  0
LINE
  8
0
 62
     0
 10
175.083
 20
22.8327
 30
0.0
 11
175.083
 21
25.9319
 31
0.0
  0
LINE
  8
0
 62
     0
 10
175.083
 20
25.9319
 30
0.0
 11
174.282
 21
25.9319
 31
0.0
  0
LINE
  8
0
 62
     0
 10
174.282
 20
25.9319
 30
0.0
 11
174.282
 21
31.7321
 31
0.0
  0
LINE
  8
0
 62
     0
 10
174.282
 20
31.7321
 30
0.0
 11
175.083
 21
31.7321
 31
0.0
  0
LINE
  8
0
 62
     0
 10
175.083
 20
31.7321
 30
0.0
 11
175.083
 21
34.8327
 31
0.0
  0
LINE
  8
0
 62
     0
 10
175.083
 20
34.8327
 30
0.0
 11
174.282
 21
34.8327
 31
0.0
  0
LINE
  8
0
 62
     0
 10
174.282
 20
34.8327
 30
0.0
 11
174.282
 21
35.8316
 31
0.0
  0
LINE
  8
0
 62
     0
 10
174.282
 20
35.8316
 30
0.0
 11
160.282
 21
35.8316
 31
0.0
  0
LINE
  8
0
 62
     0
 10
141.232
 20
35.8316
 30
0.0
 11
141.232
 21
34.8327
 31
0.0
  0
LINE
  8
0
 62
     0
 10
141.232
 20
34.8327
 30
0.0
 11
140.433
 21
34.8327
 31
0.0
  0
LINE
  8
0
 62
     0
 10
140.433
 20
34.8327
 30
0.0
 11
140.433
 21
31.7321
 31
0.0
  0
LINE
  8
0
 62
     0
 10
140.433
 20
31.7321
 30
0.0
 11
141.232
 21
31.7321
 31
0.0
  0
LINE
  8
0
 62
     0
 10
141.232
 20
31.7321
 30
0.0
 11
141.232
 21
25.9319
 31
0.0
  0
LINE
  8
0
 62
     0
 10
141.232
 20
25.9319
 30
0.0
 11
140.433
 21
25.9319
 31
0.0
  0
LINE
  8
0
 62
     0
 10
140.433
 20
25.9319
 30
0.0
 11
140.433
 21
22.8327
 31
0.0
  0
LINE
  8
0
 62
     0
 10
140.433
 20
22.8327
 30
0.0
 11
141.232
 21
22.8327
 31
0.0
  0
LINE
  8
0
 62
     0
 10
141.232
 20
22.8327
 30
0.0
 11
141.232
 21
21.8323
 31
0.0
  0
LINE
  8
0
 62
     0
 10
141.232
 20
21.8323
 30
0.0
 11
155.232
 21
21.8323
 31
0.0
  0
LINE
  8
0
 62
     0
 10
155.232
 20
21.8323
 30
0.0
 11
155.232
 21
22.8327
 31
0.0
  0
LINE
  8
0
 62
     0
 10
155.232
 20
22.8327
 30
0.0
 11
156.033
 21
22.8327
 31
0.0
  0
LINE
  8
0
 62
     0
 10
156.033
 20
22.8327
 30
0.0
 11
156.033
 21
25.9319
 31
0.0
  0
LINE
  8
0
 62
     0
 10
156.033
 20
25.9319
 30
0.0
 11
155.232
 21
25.9319
 31
0.0
  0
LINE
  8
0
 62
     0
 10
155.232
 20
25.9319
 30
0.0
 11
155.232
 21
31.7321
 31
0.0
  0
LINE
  8
0
 62
     0
 10
155.232
 20
31.7321
 30
0.0
 11
156.033
 21
31.7321
 31
0.0
  0
LINE
  8
0
 62
     0
 10
156.033
 20
31.7321
 30
0.0
 11
156.033
 21
34.8327
 31
0.0
  0
LINE
  8
0
 62
     0
 10
156.033
 20
34.8327
 30
0.0
 11
155.232
 21
34.8327
 31
0.0
  0
LINE
  8
0
 62
     0
 10
155.232
 20
34.8327
 30
0.0
 11
155.232
 21
35.8316
 31
0.0
  0
LINE
  8
0
 62
     0
 10
155.232
 20
35.8316
 30
0.0
 11
141.232
 21
35.8316
 31
0.0
  0
LINE
  8
0
 62
     0
 10
88.845
 20
35.8316
 30
0.0
 11
88.845
 21
34.8327
 31
0.0
  0
LINE
  8
0
 62
     0
 10
88.845
 20
34.8327
 30
0.0
 11
88.0456
 21
34.8327
 31
0.0
  0
LINE
  8
0
 62
     0
 10
88.0456
 20
34.8327
 30
0.0
 11
88.0456
 21
31.7321
 31
0.0
  0
LINE
  8
0
 62
     0
 10
88.0456
 20
31.7321
 30
0.0
 11
88.845
 21
31.7321
 31
0.0
  0
LINE
  8
0
 62
     0
 10
88.845
 20
31.7321
 30
0.0
 11
88.845
 21
25.9319
 31
0.0
  0
LINE
  8
0
 62
     0
 10
88.845
 20
25.9319
 30
0.0
 11
88.0456
 21
25.9319
 31
0.0
  0
LINE
  8
0
 62
     0
 10
88.0456
 20
25.9319
 30
0.0
 11
88.0456
 21
22.8327
 31
0.0
  0
LINE
  8
0
 62
     0
 10
88.0456
 20
22.8327
 30
0.0
 11
88.845
 21
22.8327
 31
0.0
  0
LINE
  8
0
 62
     0
 10
88.845
 20
22.8327
 30
0.0
 11
88.845
 21
21.8323
 31
0.0
  0
LINE
  8
0
 62
     0
 10
88.845
 20
21.8323
 30
0.0
 11
102.846
 21
21.8323
 31
0.0
  0
LINE
  8
0
 62
     0
 10
102.846
 20
21.8323
 30
0.0
 11
102.846
 21
22.8327
 31
0.0
  0
LINE
  8
0
 62
     0
 10
102.846
 20
22.8327
 30
0.0
 11
103.645
 21
22.8327
 31
0.0
  0
LINE
  8
0
 62
     0
 10
103.645
 20
22.8327
 30
0.0
 11
103.645
 21
25.9319
 31
0.0
  0
LINE
  8
0
 62
     0
 10
103.645
 20
25.9319
 30
0.0
 11
102.846
 21
25.9319
 31
0.0
  0
LINE
  8
0
 62
     0
 10
102.846
 20
25.9319
 30
0.0
 11
102.846
 21
31.7321
 31
0.0
  0
LINE
  8
0
 62
     0
 10
102.846
 20
31.7321
 30
0.0
 11
103.645
 21
31.7321
 31
0.0
  0
LINE
  8
0
 62
     0
 10
103.645
 20
31.7321
 30
0.0
 11
103.645
 21
34.8327
 31
0.0
  0
LINE
  8
0
 62
     0
 10
103.645
 20
34.8327
 30
0.0
 11
102.846
 21
34.8327
 31
0.0
  0
LINE
  8
0
 62
     0
 10
102.846
 20
34.8327
 30
0.0
 11
102.846
 21
35.8316
 31
0.0
  0
LINE
  8
0
 62
     0
 10
102.846
 20
35.8316
 30
0.0
 11
88.845
 21
35.8316
 31
0.0
  0
LINE
  8
0
 62
     0
 10
69.795
 20
35.8316
 30
0.0
 11
69.795
 21
34.8327
 31
0.0
  0
LINE
  8
0
 62
     0
 10
69.795
 20
34.8327
 30
0.0
 11
68.9956
 21
34.8327
 31
0.0
  0
LINE
  8
0
 62
     0
 10
68.9956
 20
34.8327
 30
0.0
 11
68.9956
 21
31.7321
 31
0.0
  0
LINE
  8
0
 62
     0
 10
68.9956
 20
31.7321
 30
0.0
 11
69.795
 21
31.7321
 31
0.0
  0
LINE
  8
0
 62
     0
 10
69.795
 20
31.7321
 30
0.0
 11
69.795
 21
25.9319
 31
0.0
  0
LINE
  8
0
 62
     0
 10
69.795
 20
25.9319
 30
0.0
 11
68.9956
 21
25.9319
 31
0.0
  0
LINE
  8
0
 62
     0
 10
68.9956
 20
25.9319
 30
0.0
 11
68.9956
 21
22.8327
 31
0.0
  0
LINE
  8
0
 62
     0
 10
68.9956
 20
22.8327
 30
0.0
 11
69.795
 21
22.8327
 31
0.0
  0
LINE
  8
0
 62
     0
 10
69.795
 20
22.8327
 30
0.0
 11
69.795
 21
21.8323
 31
0.0
  0
LINE
  8
0
 62
     0
 10
69.795
 20
21.8323
 30
0.0
 11
83.7957
 21
21.8323
 31
0.0
  0
LINE
  8
0
 62
     0
 10
83.7957
 20
21.8323
 30
0.0
 11
83.7957
 21
22.8327
 31
0.0
  0
LINE
  8
0
 62
     0
 10
83.7957
 20
22.8327
 30
0.0
 11
84.5951
 21
22.8327
 31
0.0
  0
LINE
  8
0
 62
     0
 10
84.5951
 20
22.8327
 30
0.0
 11
84.5951
 21
25.9319
 31
0.0
  0
LINE
  8
0
 62
     0
 10
84.5951
 20
25.9319
 30
0.0
 11
83.7957
 21
25.9319
 31
0.0
  0
LINE
  8
0
 62
     0
 10
83.7957
 20
25.9319
 30
0.0
 11
83.7957
 21
31.7321
 31
0.0
  0
LINE
  8
0
 62
     0
 10
83.7957
 20
31.7321
 30
0.0
 11
84.5951
 21
31.7321
 31
0.0
  0
LINE
  8
0
 62
     0
 10
84.5951
 20
31.7321
 30
0.0
 11
84.5951
 21
34.8327
 31
0.0
  0
LINE
  8
0
 62
     0
 10
84.5951
 20
34.8327
 30
0.0
 11
83.7957
 21
34.8327
 31
0.0
  0
LINE
  8
0
 62
     0
 10
83.7957
 20
34.8327
 30
0.0
 11
83.7957
 21
35.8316
 31
0.0
  0
LINE
  8
0
 62
     0
 10
83.7957
 20
35.8316
 30
0.0
 11
69.795
 21
35.8316
 31
0.0
  0
LINE
  8
0
 62
     0
 10
50.745
 20
35.8316
 30
0.0
 11
50.745
 21
34.8327
 31
0.0
  0
LINE
  8
0
 62
     0
 10
50.745
 20
34.8327
 30
0.0
 11
49.9456
 21
34.8327
 31
0.0
  0
LINE
  8
0
 62
     0
 10
49.9456
 20
34.8327
 30
0.0
 11
49.9456
 21
31.7321
 31
0.0
  0
LINE
  8
0
 62
     0
 10
49.9456
 20
31.7321
 30
0.0
 11
50.745
 21
31.7321
 31
0.0
  0
LINE
  8
0
 62
     0
 10
50.745
 20
31.7321
 30
0.0
 11
50.745
 21
25.9319
 31
0.0
  0
LINE
  8
0
 62
     0
 10
50.745
 20
25.9319
 30
0.0
 11
49.9456
 21
25.9319
 31
0.0
  0
LINE
  8
0
 62
     0
 10
49.9456
 20
25.9319
 30
0.0
 11
49.9456
 21
22.8327
 31
0.0
  0
LINE
  8
0
 62
     0
 10
49.9456
 20
22.8327
 30
0.0
 11
50.745
 21
22.8327
 31
0.0
  0
LINE
  8
0
 62
     0
 10
50.745
 20
22.8327
 30
0.0
 11
50.745
 21
21.8323
 31
0.0
  0
LINE
  8
0
 62
     0
 10
50.745
 20
21.8323
 30
0.0
 11
64.7457
 21
21.8323
 31
0.0
  0
LINE
  8
0
 62
     0
 10
64.7457
 20
21.8323
 30
0.0
 11
64.7457
 21
22.8327
 31
0.0
  0
LINE
  8
0
 62
     0
 10
64.7457
 20
22.8327
 30
0.0
 11
65.5451
 21
22.8327
 31
0.0
  0
LINE
  8
0
 62
     0
 10
65.5451
 20
22.8327
 30
0.0
 11
65.5451
 21
25.9319
 31
0.0
  0
LINE
  8
0
 62
     0
 10
65.5451
 20
25.9319
 30
0.0
 11
64.7457
 21
25.9319
 31
0.0
  0
LINE
  8
0
 62
     0
 10
64.7457
 20
25.9319
 30
0.0
 11
64.7457
 21
31.7321
 31
0.0
  0
LINE
  8
0
 62
     0
 10
64.7457
 20
31.7321
 30
0.0
 11
65.5451
 21
31.7321
 31
0.0
  0
LINE
  8
0
 62
     0
 10
65.5451
 20
31.7321
 30
0.0
 11
65.5451
 21
34.8327
 31
0.0
  0
LINE
  8
0
 62
     0
 10
65.5451
 20
34.8327
 30
0.0
 11
64.7457
 21
34.8327
 31
0.0
  0
LINE
  8
0
 62
     0
 10
64.7457
 20
34.8327
 30
0.0
 11
64.7457
 21
35.8316
 31
0.0
  0
LINE
  8
0
 62
     0
 10
64.7457
 20
35.8316
 30
0.0
 11
50.745
 21
35.8316
 31
0.0
  0
LINE
  8
0
 62
     0
 10
31.6949
 20
35.8316
 30
0.0
 11
31.6949
 21
34.8327
 31
0.0
  0
LINE
  8
0
 62
     0
 10
31.6949
 20
34.8327
 30
0.0
 11
30.8956
 21
34.8327
 31
0.0
  0
LINE
  8
0
 62
     0
 10
30.8956
 20
34.8327
 30
0.0
 11
30.8956
 21
31.7321
 31
0.0
  0
LINE
  8
0
 62
     0
 10
30.8956
 20
31.7321
 30
0.0
 11
31.6949
 21
31.7321
 31
0.0
  0
LINE
  8
0
 62
     0
 10
31.6949
 20
31.7321
 30
0.0
 11
31.6949
 21
25.9319
 31
0.0
  0
LINE
  8
0
 62
     0
 10
31.6949
 20
25.9319
 30
0.0
 11
30.8956
 21
25.9319
 31
0.0
  0
LINE
  8
0
 62
     0
 10
30.8956
 20
25.9319
 30
0.0
 11
30.8956
 21
22.8327
 31
0.0
  0
LINE
  8
0
 62
     0
 10
30.8956
 20
22.8327
 30
0.0
 11
31.6949
 21
22.8327
 31
0.0
  0
LINE
  8
0
 62
     0
 10
31.6949
 20
22.8327
 30
0.0
 11
31.6949
 21
21.8323
 31
0.0
  0
LINE
  8
0
 62
     0
 10
31.6949
 20
21.8323
 30
0.0
 11
45.6957
 21
21.8323
 31
0.0
  0
LINE
  8
0
 62
     0
 10
45.6957
 20
21.8323
 30
0.0
 11
45.6957
 21
22.8327
 31
0.0
  0
LINE
  8
0
 62
     0
 10
45.6957
 20
22.8327
 30
0.0
 11
46.4951
 21
22.8327
 31
0.0
  0
LINE
  8
0
 62
     0
 10
46.4951
 20
22.8327
 30
0.0
 11
46.4951
 21
25.9319
 31
0.0
  0
LINE
  8
0
 62
     0
 10
46.4951
 20
25.9319
 30
0.0
 11
45.6957
 21
25.9319
 31
0.0
  0
LINE
  8
0
 62
     0
 10
45.6957
 20
25.9319
 30
0.0
 11
45.6957
 21
31.7321
 31
0.0
  0
LINE
  8
0
 62
     0
 10
45.6957
 20
31.7321
 30
0.0
 11
46.4951
 21
31.7321
 31
0.0
  0
LINE
  8
0
 62
     0
 10
46.4951
 20
31.7321
 30
0.0
 11
46.4951
 21
34.8327
 31
0.0
  0
LINE
  8
0
 62
     0
 10
46.4951
 20
34.8327
 30
0.0
 11
45.6957
 21
34.8327
 31
0.0
  0
LINE
  8
0
 62
     0
 10
45.6957
 20
34.8327
 30
0.0
 11
45.6957
 21
35.8316
 31
0.0
  0
LINE
  8
0
 62
     0
 10
45.6957
 20
35.8316
 30
0.0
 11
31.6949
 21
35.8316
 31
0.0
  0
LINE
  8
0
 62
     0
 10
7.8824
 20
35.8316
 30
0.0
 11
7.8824
 21
34.8327
 31
0.0
  0
LINE
  8
0
 62
     0
 10
7.8824
 20
34.8327
 30
0.0
 11
7.08311
 21
34.8327
 31
0.0
  0
LINE
  8
0
 62
     0
 10
7.08311
 20
34.8327
 30
0.0
 11
7.08311
 21
31.7321
 31
0.0
  0
LINE
  8
0
 62
     0
 10
7.08311
 20
31.7321
 30
0.0
 11
7.8824
 21
31.7321
 31
0.0
  0
LINE
  8
0
 62
     0
 10
7.8824
 20
31.7321
 30
0.0
 11
7.8824
 21
25.9319
 31
0.0
  0
LINE
  8
0
 62
     0
 10
7.8824
 20
25.9319
 30
0.0
 11
7.08311
 21
25.9319
 31
0.0
  0
LINE
  8
0
 62
     0
 10
7.08311
 20
25.9319
 30
0.0
 11
7.08311
 21
22.8327
 31
0.0
  0
LINE
  8
0
 62
     0
 10
7.08311
 20
22.8327
 30
0.0
 11
7.8824
 21
22.8327
 31
0.0
  0
LINE
  8
0
 62
     0
 10
7.8824
 20
22.8327
 30
0.0
 11
7.8824
 21
21.8323
 31
0.0
  0
LINE
  8
0
 62
     0
 10
7.8824
 20
21.8323
 30
0.0
 11
21.8819
 21
21.8323
 31
0.0
  0
LINE
  8
0
 62
     0
 10
21.8819
 20
21.8323
 30
0.0
 11
21.8819
 21
22.8327
 31
0.0
  0
LINE
  8
0
 62
     0
 10
21.8819
 20
22.8327
 30
0.0
 11
22.6825
 21
22.8327
 31
0.0
  0
LINE
  8
0
 62
     0
 10
22.6825
 20
22.8327
 30
0.0
 11
22.6825
 21
25.9319
 31
0.0
  0
LINE
  8
0
 62
     0
 10
22.6825
 20
25.9319
 30
0.0
 11
21.8819
 21
25.9319
 31
0.0
  0
LINE
  8
0
 62
     0
 10
21.8819
 20
25.9319
 30
0.0
 11
21.8819
 21
31.7321
 31
0.0
  0
LINE
  8
0
 62
     0
 10
21.8819
 20
31.7321
 30
0.0
 11
22.6825
 21
31.7321
 31
0.0
  0
LINE
  8
0
 62
     0
 10
22.6825
 20
31.7321
 30
0.0
 11
22.6825
 21
34.8327
 31
0.0
  0
LINE
  8
0
 62
     0
 10
22.6825
 20
34.8327
 30
0.0
 11
21.8819
 21
34.8327
 31
0.0
  0
LINE
  8
0
 62
     0
 10
21.8819
 20
34.8327
 30
0.0
 11
21.8819
 21
35.8316
 31
0.0
  0
LINE
  8
0
 62
     0
 10
21.8819
 20
35.8316
 30
0.0
 11
7.8824
 21
35.8316
 31
0.0
  0
LINE
  8
0
 62
     0
 10
116.776
 20
71.1331
 30
0.0
 11
116.776
 21
70.3076
 31
0.0
  0
LINE
  8
0
 62
     0
 10
116.776
 20
70.3076
 30
0.0
 11
110.506
 21
70.3076
 31
0.0
  0
LINE
  8
0
 62
     0
 10
110.506
 20
70.3076
 30
0.0
 11
110.506
 21
68.5821
 31
0.0
  0
LINE
  8
0
 62
     0
 10
110.506
 20
68.5821
 30
0.0
 11
109.527
 21
68.5821
 31
0.0
  0
LINE
  8
0
 62
     0
 10
109.527
 20
68.5821
 30
0.0
 11
109.527
 21
65.2819
 31
0.0
  0
LINE
  8
0
 62
     0
 10
109.527
 20
65.2819
 30
0.0
 11
110.506
 21
65.2819
 31
0.0
  0
LINE
  8
0
 62
     0
 10
110.506
 20
65.2819
 30
0.0
 11
110.506
 21
63.5579
 31
0.0
  0
LINE
  8
0
 62
     0
 10
110.506
 20
63.5579
 30
0.0
 11
114.977
 21
63.5579
 31
0.0
  0
LINE
  8
0
 62
     0
 10
114.977
 20
63.5579
 30
0.0
 11
114.977
 21
54.8816
 31
0.0
  0
LINE
  8
0
 62
     0
 10
114.977
 20
54.8816
 30
0.0
 11
114.377
 21
54.8816
 31
0.0
  0
LINE
  8
0
 62
     0
 10
114.377
 20
54.8816
 30
0.0
 11
114.377
 21
55.6824
 31
0.0
  0
LINE
  8
0
 62
     0
 10
114.377
 20
55.6824
 30
0.0
 11
111.277
 21
55.6824
 31
0.0
  0
LINE
  8
0
 62
     0
 10
111.277
 20
55.6824
 30
0.0
 11
111.277
 21
54.8816
 31
0.0
  0
LINE
  8
0
 62
     0
 10
111.277
 20
54.8816
 30
0.0
 11
110.276
 21
54.8816
 31
0.0
  0
LINE
  8
0
 62
     0
 10
110.276
 20
54.8816
 30
0.0
 11
110.276
 21
40.8824
 31
0.0
  0
LINE
  8
0
 62
     0
 10
110.276
 20
40.8824
 30
0.0
 11
111.277
 21
40.8824
 31
0.0
  0
LINE
  8
0
 62
     0
 10
111.277
 20
40.8824
 30
0.0
 11
111.277
 21
40.0816
 31
0.0
  0
LINE
  8
0
 62
     0
 10
111.277
 20
40.0816
 30
0.0
 11
114.377
 21
40.0816
 31
0.0
  0
LINE
  8
0
 62
     0
 10
114.377
 20
40.0816
 30
0.0
 11
114.377
 21
40.8824
 31
0.0
  0
LINE
  8
0
 62
     0
 10
114.377
 20
40.8824
 30
0.0
 11
114.977
 21
40.8824
 31
0.0
  0
LINE
  8
0
 62
     0
 10
114.977
 20
40.8824
 30
0.0
 11
114.977
 21
32.2075
 31
0.0
  0
LINE
  8
0
 62
     0
 10
114.977
 20
32.2075
 30
0.0
 11
110.506
 21
32.2075
 31
0.0
  0
LINE
  8
0
 62
     0
 10
110.506
 20
32.2075
 30
0.0
 11
110.506
 21
30.4822
 31
0.0
  0
LINE
  8
0
 62
     0
 10
110.506
 20
30.4822
 30
0.0
 11
109.527
 21
30.4822
 31
0.0
  0
LINE
  8
0
 62
     0
 10
109.527
 20
30.4822
 30
0.0
 11
109.527
 21
27.1818
 31
0.0
  0
LINE
  8
0
 62
     0
 10
109.527
 20
27.1818
 30
0.0
 11
110.506
 21
27.1818
 31
0.0
  0
LINE
  8
0
 62
     0
 10
110.506
 20
27.1818
 30
0.0
 11
110.506
 21
25.4579
 31
0.0
  0
LINE
  8
0
 62
     0
 10
110.506
 20
25.4579
 30
0.0
 11
116.776
 21
25.4579
 31
0.0
  0
LINE
  8
0
 62
     0
 10
116.776
 20
25.4579
 30
0.0
 11
116.776
 21
24.6324
 31
0.0
  0
LINE
  8
0
 62
     0
 10
116.776
 20
24.6324
 30
0.0
 11
119.576
 21
24.6324
 31
0.0
  0
LINE
  8
0
 62
     0
 10
119.576
 20
24.6324
 30
0.0
 11
119.576
 21
25.4579
 31
0.0
  0
LINE
  8
0
 62
     0
 10
119.576
 20
25.4579
 30
0.0
 11
122.807
 21
25.4579
 31
0.0
  0
LINE
  8
0
 62
     0
 10
122.807
 20
25.4579
 30
0.0
 11
122.807
 21
27.1818
 31
0.0
  0
LINE
  8
0
 62
     0
 10
122.807
 20
27.1818
 30
0.0
 11
123.727
 21
27.1818
 31
0.0
  0
LINE
  8
0
 62
     0
 10
123.727
 20
27.1818
 30
0.0
 11
123.727
 21
30.4822
 31
0.0
  0
LINE
  8
0
 62
     0
 10
123.727
 20
30.4822
 30
0.0
 11
122.807
 21
30.4822
 31
0.0
  0
LINE
  8
0
 62
     0
 10
122.807
 20
30.4822
 30
0.0
 11
122.807
 21
32.2075
 31
0.0
  0
LINE
  8
0
 62
     0
 10
122.807
 20
32.2075
 30
0.0
 11
119.576
 21
32.2075
 31
0.0
  0
LINE
  8
0
 62
     0
 10
119.576
 20
32.2075
 30
0.0
 11
119.576
 21
40.8824
 31
0.0
  0
LINE
  8
0
 62
     0
 10
119.576
 20
40.8824
 30
0.0
 11
120.176
 21
40.8824
 31
0.0
  0
LINE
  8
0
 62
     0
 10
120.176
 20
40.8824
 30
0.0
 11
120.176
 21
40.0816
 31
0.0
  0
LINE
  8
0
 62
     0
 10
120.176
 20
40.0816
 30
0.0
 11
123.276
 21
40.0816
 31
0.0
  0
LINE
  8
0
 62
     0
 10
123.276
 20
40.0816
 30
0.0
 11
123.276
 21
40.8824
 31
0.0
  0
LINE
  8
0
 62
     0
 10
123.276
 20
40.8824
 30
0.0
 11
124.277
 21
40.8824
 31
0.0
  0
LINE
  8
0
 62
     0
 10
124.277
 20
40.8824
 30
0.0
 11
124.277
 21
54.8816
 31
0.0
  0
LINE
  8
0
 62
     0
 10
124.277
 20
54.8816
 30
0.0
 11
123.276
 21
54.8816
 31
0.0
  0
LINE
  8
0
 62
     0
 10
123.276
 20
54.8816
 30
0.0
 11
123.276
 21
55.6824
 31
0.0
  0
LINE
  8
0
 62
     0
 10
123.276
 20
55.6824
 30
0.0
 11
120.176
 21
55.6824
 31
0.0
  0
LINE
  8
0
 62
     0
 10
120.176
 20
55.6824
 30
0.0
 11
120.176
 21
54.8816
 31
0.0
  0
LINE
  8
0
 62
     0
 10
120.176
 20
54.8816
 30
0.0
 11
119.576
 21
54.8816
 31
0.0
  0
LINE
  8
0
 62
     0
 10
119.576
 20
54.8816
 30
0.0
 11
119.576
 21
63.5579
 31
0.0
  0
LINE
  8
0
 62
     0
 10
119.576
 20
63.5579
 30
0.0
 11
122.807
 21
63.5579
 31
0.0
  0
LINE
  8
0
 62
     0
 10
122.807
 20
63.5579
 30
0.0
 11
122.807
 21
65.2819
 31
0.0
  0
LINE
  8
0
 62
     0
 10
122.807
 20
65.2819
 30
0.0
 11
123.727
 21
65.2819
 31
0.0
  0
LINE
  8
0
 62
     0
 10
123.727
 20
65.2819
 30
0.0
 11
123.727
 21
68.5821
 31
0.0
  0
LINE
  8
0
 62
     0
 10
123.727
 20
68.5821
 30
0.0
 11
122.807
 21
68.5821
 31
0.0
  0
LINE
  8
0
 62
     0
 10
122.807
 20
68.5821
 30
0.0
 11
122.807
 21
70.3076
 31
0.0
  0
LINE
  8
0
 62
     0
 10
122.807
 20
70.3076
 30
0.0
 11
119.576
 21
70.3076
 31
0.0
  0
LINE
  8
0
 62
     0
 10
119.576
 20
70.3076
 30
0.0
 11
119.576
 21
71.1331
 31
0.0
  0
LINE
  8
0
 62
     0
 10
119.576
 20
71.1331
 30
0.0
 11
116.776
 21
71.1331
 31
0.0
  0
LINE
  8
0
 62
     0
 10
212.67
 20
54.8816
 30
0.0
 11
212.67
 21
53.8826
 31
0.0
  0
LINE
  8
0
 62
     0
 10
212.67
 20
53.8826
 30
0.0
 11
211.871
 21
53.8826
 31
0.0
  0
LINE
  8
0
 62
     0
 10
211.871
 20
53.8826
 30
0.0
 11
211.871
 21
50.782
 31
0.0
  0
LINE
  8
0
 62
     0
 10
211.871
 20
50.782
 30
0.0
 11
212.67
 21
50.782
 31
0.0
  0
LINE
  8
0
 62
     0
 10
212.67
 20
50.782
 30
0.0
 11
212.67
 21
44.982
 31
0.0
  0
LINE
  8
0
 62
     0
 10
212.67
 20
44.982
 30
0.0
 11
211.871
 21
44.982
 31
0.0
  0
LINE
  8
0
 62
     0
 10
211.871
 20
44.982
 30
0.0
 11
211.871
 21
41.8828
 31
0.0
  0
LINE
  8
0
 62
     0
 10
211.871
 20
41.8828
 30
0.0
 11
212.67
 21
41.8828
 31
0.0
  0
LINE
  8
0
 62
     0
 10
212.67
 20
41.8828
 30
0.0
 11
212.67
 21
40.8824
 31
0.0
  0
LINE
  8
0
 62
     0
 10
212.67
 20
40.8824
 30
0.0
 11
226.671
 21
40.8824
 31
0.0
  0
LINE
  8
0
 62
     0
 10
226.671
 20
40.8824
 30
0.0
 11
226.671
 21
41.8828
 31
0.0
  0
LINE
  8
0
 62
     0
 10
226.671
 20
41.8828
 30
0.0
 11
227.47
 21
41.8828
 31
0.0
  0
LINE
  8
0
 62
     0
 10
227.47
 20
41.8828
 30
0.0
 11
227.47
 21
44.982
 31
0.0
  0
LINE
  8
0
 62
     0
 10
227.47
 20
44.982
 30
0.0
 11
226.671
 21
44.982
 31
0.0
  0
LINE
  8
0
 62
     0
 10
226.671
 20
44.982
 30
0.0
 11
226.671
 21
50.782
 31
0.0
  0
LINE
  8
0
 62
     0
 10
226.671
 20
50.782
 30
0.0
 11
227.47
 21
50.782
 31
0.0
  0
LINE
  8
0
 62
     0
 10
227.47
 20
50.782
 30
0.0
 11
227.47
 21
53.8826
 31
0.0
  0
LINE
  8
0
 62
     0
 10
227.47
 20
53.8826
 30
0.0
 11
226.671
 21
53.8826
 31
0.0
  0
LINE
  8
0
 62
     0
 10
226.671
 20
53.8826
 30
0.0
 11
226.671
 21
54.8816
 31
0.0
  0
LINE
  8
0
 62
     0
 10
226.671
 20
54.8816
 30
0.0
 11
212.67
 21
54.8816
 31
0.0
  0
LINE
  8
0
 62
     0
 10
193.62
 20
54.8816
 30
0.0
 11
193.62
 21
53.8826
 31
0.0
  0
LINE
  8
0
 62
     0
 10
193.62
 20
53.8826
 30
0.0
 11
192.821
 21
53.8826
 31
0.0
  0
LINE
  8
0
 62
     0
 10
192.821
 20
53.8826
 30
0.0
 11
192.821
 21
50.782
 31
0.0
  0
LINE
  8
0
 62
     0
 10
192.821
 20
50.782
 30
0.0
 11
193.62
 21
50.782
 31
0.0
  0
LINE
  8
0
 62
     0
 10
193.62
 20
50.782
 30
0.0
 11
193.62
 21
44.982
 31
0.0
  0
LINE
  8
0
 62
     0
 10
193.62
 20
44.982
 30
0.0
 11
192.821
 21
44.982
 31
0.0
  0
LINE
  8
0
 62
     0
 10
192.821
 20
44.982
 30
0.0
 11
192.821
 21
41.8828
 31
0.0
  0
LINE
  8
0
 62
     0
 10
192.821
 20
41.8828
 30
0.0
 11
193.62
 21
41.8828
 31
0.0
  0
LINE
  8
0
 62
     0
 10
193.62
 20
41.8828
 30
0.0
 11
193.62
 21
40.8824
 31
0.0
  0
LINE
  8
0
 62
     0
 10
193.62
 20
40.8824
 30
0.0
 11
207.621
 21
40.8824
 31
0.0
  0
LINE
  8
0
 62
     0
 10
207.621
 20
40.8824
 30
0.0
 11
207.621
 21
41.8828
 31
0.0
  0
LINE
  8
0
 62
     0
 10
207.621
 20
41.8828
 30
0.0
 11
208.42
 21
41.8828
 31
0.0
  0
LINE
  8
0
 62
     0
 10
208.42
 20
41.8828
 30
0.0
 11
208.42
 21
44.982
 31
0.0
  0
LINE
  8
0
 62
     0
 10
208.42
 20
44.982
 30
0.0
 11
207.621
 21
44.982
 31
0.0
  0
LINE
  8
0
 62
     0
 10
207.621
 20
44.982
 30
0.0
 11
207.621
 21
50.782
 31
0.0
  0
LINE
  8
0
 62
     0
 10
207.621
 20
50.782
 30
0.0
 11
208.42
 21
50.782
 31
0.0
  0
LINE
  8
0
 62
     0
 10
208.42
 20
50.782
 30
0.0
 11
208.42
 21
53.8826
 31
0.0
  0
LINE
  8
0
 62
     0
 10
208.42
 20
53.8826
 30
0.0
 11
207.621
 21
53.8826
 31
0.0
  0
LINE
  8
0
 62
     0
 10
207.621
 20
53.8826
 30
0.0
 11
207.621
 21
54.8816
 31
0.0
  0
LINE
  8
0
 62
     0
 10
207.621
 20
54.8816
 30
0.0
 11
193.62
 21
54.8816
 31
0.0
  0
LINE
  8
0
 62
     0
 10
174.57
 20
54.8816
 30
0.0
 11
174.57
 21
53.8826
 31
0.0
  0
LINE
  8
0
 62
     0
 10
174.57
 20
53.8826
 30
0.0
 11
173.771
 21
53.8826
 31
0.0
  0
LINE
  8
0
 62
     0
 10
173.771
 20
53.8826
 30
0.0
 11
173.771
 21
50.782
 31
0.0
  0
LINE
  8
0
 62
     0
 10
173.771
 20
50.782
 30
0.0
 11
174.57
 21
50.782
 31
0.0
  0
LINE
  8
0
 62
     0
 10
174.57
 20
50.782
 30
0.0
 11
174.57
 21
44.982
 31
0.0
  0
LINE
  8
0
 62
     0
 10
174.57
 20
44.982
 30
0.0
 11
173.771
 21
44.982
 31
0.0
  0
LINE
  8
0
 62
     0
 10
173.771
 20
44.982
 30
0.0
 11
173.771
 21
41.8828
 31
0.0
  0
LINE
  8
0
 62
     0
 10
173.771
 20
41.8828
 30
0.0
 11
174.57
 21
41.8828
 31
0.0
  0
LINE
  8
0
 62
     0
 10
174.57
 20
41.8828
 30
0.0
 11
174.57
 21
40.8824
 31
0.0
  0
LINE
  8
0
 62
     0
 10
174.57
 20
40.8824
 30
0.0
 11
188.571
 21
40.8824
 31
0.0
  0
LINE
  8
0
 62
     0
 10
188.571
 20
40.8824
 30
0.0
 11
188.571
 21
41.8828
 31
0.0
  0
LINE
  8
0
 62
     0
 10
188.571
 20
41.8828
 30
0.0
 11
189.37
 21
41.8828
 31
0.0
  0
LINE
  8
0
 62
     0
 10
189.37
 20
41.8828
 30
0.0
 11
189.37
 21
44.982
 31
0.0
  0
LINE
  8
0
 62
     0
 10
189.37
 20
44.982
 30
0.0
 11
188.571
 21
44.982
 31
0.0
  0
LINE
  8
0
 62
     0
 10
188.571
 20
44.982
 30
0.0
 11
188.571
 21
50.782
 31
0.0
  0
LINE
  8
0
 62
     0
 10
188.571
 20
50.782
 30
0.0
 11
189.37
 21
50.782
 31
0.0
  0
LINE
  8
0
 62
     0
 10
189.37
 20
50.782
 30
0.0
 11
189.37
 21
53.8826
 31
0.0
  0
LINE
  8
0
 62
     0
 10
189.37
 20
53.8826
 30
0.0
 11
188.571
 21
53.8826
 31
0.0
  0
LINE
  8
0
 62
     0
 10
188.571
 20
53.8826
 30
0.0
 11
188.571
 21
54.8816
 31
0.0
  0
LINE
  8
0
 62
     0
 10
188.571
 20
54.8816
 30
0.0
 11
174.57
 21
54.8816
 31
0.0
  0
LINE
  8
0
 62
     0
 10
155.52
 20
54.8816
 30
0.0
 11
155.52
 21
53.8826
 31
0.0
  0
LINE
  8
0
 62
     0
 10
155.52
 20
53.8826
 30
0.0
 11
154.721
 21
53.8826
 31
0.0
  0
LINE
  8
0
 62
     0
 10
154.721
 20
53.8826
 30
0.0
 11
154.721
 21
50.782
 31
0.0
  0
LINE
  8
0
 62
     0
 10
154.721
 20
50.782
 30
0.0
 11
155.52
 21
50.782
 31
0.0
  0
LINE
  8
0
 62
     0
 10
155.52
 20
50.782
 30
0.0
 11
155.52
 21
44.982
 31
0.0
  0
LINE
  8
0
 62
     0
 10
155.52
 20
44.982
 30
0.0
 11
154.721
 21
44.982
 31
0.0
  0
LINE
  8
0
 62
     0
 10
154.721
 20
44.982
 30
0.0
 11
154.721
 21
41.8828
 31
0.0
  0
LINE
  8
0
 62
     0
 10
154.721
 20
41.8828
 30
0.0
 11
155.52
 21
41.8828
 31
0.0
  0
LINE
  8
0
 62
     0
 10
155.52
 20
41.8828
 30
0.0
 11
155.52
 21
40.8824
 31
0.0
  0
LINE
  8
0
 62
     0
 10
155.52
 20
40.8824
 30
0.0
 11
169.521
 21
40.8824
 31
0.0
  0
LINE
  8
0
 62
     0
 10
169.521
 20
40.8824
 30
0.0
 11
169.521
 21
41.8828
 31
0.0
  0
LINE
  8
0
 62
     0
 10
169.521
 20
41.8828
 30
0.0
 11
170.32
 21
41.8828
 31
0.0
  0
LINE
  8
0
 62
     0
 10
170.32
 20
41.8828
 30
0.0
 11
170.32
 21
44.982
 31
0.0
  0
LINE
  8
0
 62
     0
 10
170.32
 20
44.982
 30
0.0
 11
169.521
 21
44.982
 31
0.0
  0
LINE
  8
0
 62
     0
 10
169.521
 20
44.982
 30
0.0
 11
169.521
 21
50.782
 31
0.0
  0
LINE
  8
0
 62
     0
 10
169.521
 20
50.782
 30
0.0
 11
170.32
 21
50.782
 31
0.0
  0
LINE
  8
0
 62
     0
 10
170.32
 20
50.782
 30
0.0
 11
170.32
 21
53.8826
 31
0.0
  0
LINE
  8
0
 62
     0
 10
170.32
 20
53.8826
 30
0.0
 11
169.521
 21
53.8826
 31
0.0
  0
LINE
  8
0
 62
     0
 10
169.521
 20
53.8826
 30
0.0
 11
169.521
 21
54.8816
 31
0.0
  0
LINE
  8
0
 62
     0
 10
169.521
 20
54.8816
 30
0.0
 11
155.52
 21
54.8816
 31
0.0
  0
LINE
  8
0
 62
     0
 10
136.47
 20
54.8816
 30
0.0
 11
136.47
 21
53.8826
 31
0.0
  0
LINE
  8
0
 62
     0
 10
136.47
 20
53.8826
 30
0.0
 11
135.671
 21
53.8826
 31
0.0
  0
LINE
  8
0
 62
     0
 10
135.671
 20
53.8826
 30
0.0
 11
135.671
 21
50.782
 31
0.0
  0
LINE
  8
0
 62
     0
 10
135.671
 20
50.782
 30
0.0
 11
136.47
 21
50.782
 31
0.0
  0
LINE
  8
0
 62
     0
 10
136.47
 20
50.782
 30
0.0
 11
136.47
 21
44.982
 31
0.0
  0
LINE
  8
0
 62
     0
 10
136.47
 20
44.982
 30
0.0
 11
135.671
 21
44.982
 31
0.0
  0
LINE
  8
0
 62
     0
 10
135.671
 20
44.982
 30
0.0
 11
135.671
 21
41.8828
 31
0.0
  0
LINE
  8
0
 62
     0
 10
135.671
 20
41.8828
 30
0.0
 11
136.47
 21
41.8828
 31
0.0
  0
LINE
  8
0
 62
     0
 10
136.47
 20
41.8828
 30
0.0
 11
136.47
 21
40.8824
 31
0.0
  0
LINE
  8
0
 62
     0
 10
136.47
 20
40.8824
 30
0.0
 11
150.471
 21
40.8824
 31
0.0
  0
LINE
  8
0
 62
     0
 10
150.471
 20
40.8824
 30
0.0
 11
150.471
 21
41.8828
 31
0.0
  0
LINE
  8
0
 62
     0
 10
150.471
 20
41.8828
 30
0.0
 11
151.27
 21
41.8828
 31
0.0
  0
LINE
  8
0
 62
     0
 10
151.27
 20
41.8828
 30
0.0
 11
151.27
 21
44.982
 31
0.0
  0
LINE
  8
0
 62
     0
 10
151.27
 20
44.982
 30
0.0
 11
150.471
 21
44.982
 31
0.0
  0
LINE
  8
0
 62
     0
 10
150.471
 20
44.982
 30
0.0
 11
150.471
 21
50.782
 31
0.0
  0
LINE
  8
0
 62
     0
 10
150.471
 20
50.782
 30
0.0
 11
151.27
 21
50.782
 31
0.0
  0
LINE
  8
0
 62
     0
 10
151.27
 20
50.782
 30
0.0
 11
151.27
 21
53.8826
 31
0.0
  0
LINE
  8
0
 62
     0
 10
151.27
 20
53.8826
 30
0.0
 11
150.471
 21
53.8826
 31
0.0
  0
LINE
  8
0
 62
     0
 10
150.471
 20
53.8826
 30
0.0
 11
150.471
 21
54.8816
 31
0.0
  0
LINE
  8
0
 62
     0
 10
150.471
 20
54.8816
 30
0.0
 11
136.47
 21
54.8816
 31
0.0
  0
LINE
  8
0
 62
     0
 10
84.0825
 20
54.8816
 30
0.0
 11
84.0825
 21
53.8826
 31
0.0
  0
LINE
  8
0
 62
     0
 10
84.0825
 20
53.8826
 30
0.0
 11
83.2831
 21
53.8826
 31
0.0
  0
LINE
  8
0
 62
     0
 10
83.2831
 20
53.8826
 30
0.0
 11
83.2831
 21
50.782
 31
0.0
  0
LINE
  8
0
 62
     0
 10
83.2831
 20
50.782
 30
0.0
 11
84.0825
 21
50.782
 31
0.0
  0
LINE
  8
0
 62
     0
 10
84.0825
 20
50.782
 30
0.0
 11
84.0825
 21
44.982
 31
0.0
  0
LINE
  8
0
 62
     0
 10
84.0825
 20
44.982
 30
0.0
 11
83.2831
 21
44.982
 31
0.0
  0
LINE
  8
0
 62
     0
 10
83.2831
 20
44.982
 30
0.0
 11
83.2831
 21
41.8828
 31
0.0
  0
LINE
  8
0
 62
     0
 10
83.2831
 20
41.8828
 30
0.0
 11
84.0825
 21
41.8828
 31
0.0
  0
LINE
  8
0
 62
     0
 10
84.0825
 20
41.8828
 30
0.0
 11
84.0825
 21
40.8824
 31
0.0
  0
LINE
  8
0
 62
     0
 10
84.0825
 20
40.8824
 30
0.0
 11
98.0818
 21
40.8824
 31
0.0
  0
LINE
  8
0
 62
     0
 10
98.0818
 20
40.8824
 30
0.0
 11
98.0818
 21
41.8828
 31
0.0
  0
LINE
  8
0
 62
     0
 10
98.0818
 20
41.8828
 30
0.0
 11
98.8826
 21
41.8828
 31
0.0
  0
LINE
  8
0
 62
     0
 10
98.8826
 20
41.8828
 30
0.0
 11
98.8826
 21
44.982
 31
0.0
  0
LINE
  8
0
 62
     0
 10
98.8826
 20
44.982
 30
0.0
 11
98.0818
 21
44.982
 31
0.0
  0
LINE
  8
0
 62
     0
 10
98.0818
 20
44.982
 30
0.0
 11
98.0818
 21
50.782
 31
0.0
  0
LINE
  8
0
 62
     0
 10
98.0818
 20
50.782
 30
0.0
 11
98.8826
 21
50.782
 31
0.0
  0
LINE
  8
0
 62
     0
 10
98.8826
 20
50.782
 30
0.0
 11
98.8826
 21
53.8826
 31
0.0
  0
LINE
  8
0
 62
     0
 10
98.8826
 20
53.8826
 30
0.0
 11
98.0818
 21
53.8826
 31
0.0
  0
LINE
  8
0
 62
     0
 10
98.0818
 20
53.8826
 30
0.0
 11
98.0818
 21
54.8816
 31
0.0
  0
LINE
  8
0
 62
     0
 10
98.0818
 20
54.8816
 30
0.0
 11
84.0825
 21
54.8816
 31
0.0
  0
LINE
  8
0
 62
     0
 10
65.0325
 20
54.8816
 30
0.0
 11
65.0325
 21
53.8826
 31
0.0
  0
LINE
  8
0
 62
     0
 10
65.0325
 20
53.8826
 30
0.0
 11
64.2331
 21
53.8826
 31
0.0
  0
LINE
  8
0
 62
     0
 10
64.2331
 20
53.8826
 30
0.0
 11
64.2331
 21
50.782
 31
0.0
  0
LINE
  8
0
 62
     0
 10
64.2331
 20
50.782
 30
0.0
 11
65.0325
 21
50.782
 31
0.0
  0
LINE
  8
0
 62
     0
 10
65.0325
 20
50.782
 30
0.0
 11
65.0325
 21
44.982
 31
0.0
  0
LINE
  8
0
 62
     0
 10
65.0325
 20
44.982
 30
0.0
 11
64.2331
 21
44.982
 31
0.0
  0
LINE
  8
0
 62
     0
 10
64.2331
 20
44.982
 30
0.0
 11
64.2331
 21
41.8828
 31
0.0
  0
LINE
  8
0
 62
     0
 10
64.2331
 20
41.8828
 30
0.0
 11
65.0325
 21
41.8828
 31
0.0
  0
LINE
  8
0
 62
     0
 10
65.0325
 20
41.8828
 30
0.0
 11
65.0325
 21
40.8824
 31
0.0
  0
LINE
  8
0
 62
     0
 10
65.0325
 20
40.8824
 30
0.0
 11
79.0317
 21
40.8824
 31
0.0
  0
LINE
  8
0
 62
     0
 10
79.0317
 20
40.8824
 30
0.0
 11
79.0317
 21
41.8828
 31
0.0
  0
LINE
  8
0
 62
     0
 10
79.0317
 20
41.8828
 30
0.0
 11
79.8326
 21
41.8828
 31
0.0
  0
LINE
  8
0
 62
     0
 10
79.8326
 20
41.8828
 30
0.0
 11
79.8326
 21
44.982
 31
0.0
  0
LINE
  8
0
 62
     0
 10
79.8326
 20
44.982
 30
0.0
 11
79.0317
 21
44.982
 31
0.0
  0
LINE
  8
0
 62
     0
 10
79.0317
 20
44.982
 30
0.0
 11
79.0317
 21
50.782
 31
0.0
  0
LINE
  8
0
 62
     0
 10
79.0317
 20
50.782
 30
0.0
 11
79.8326
 21
50.782
 31
0.0
  0
LINE
  8
0
 62
     0
 10
79.8326
 20
50.782
 30
0.0
 11
79.8326
 21
53.8826
 31
0.0
  0
LINE
  8
0
 62
     0
 10
79.8326
 20
53.8826
 30
0.0
 11
79.0317
 21
53.8826
 31
0.0
  0
LINE
  8
0
 62
     0
 10
79.0317
 20
53.8826
 30
0.0
 11
79.0317
 21
54.8816
 31
0.0
  0
LINE
  8
0
 62
     0
 10
79.0317
 20
54.8816
 30
0.0
 11
65.0325
 21
54.8816
 31
0.0
  0
LINE
  8
0
 62
     0
 10
45.9825
 20
54.8816
 30
0.0
 11
45.9825
 21
53.8826
 31
0.0
  0
LINE
  8
0
 62
     0
 10
45.9825
 20
53.8826
 30
0.0
 11
45.1831
 21
53.8826
 31
0.0
  0
LINE
  8
0
 62
     0
 10
45.1831
 20
53.8826
 30
0.0
 11
45.1831
 21
50.782
 31
0.0
  0
LINE
  8
0
 62
     0
 10
45.1831
 20
50.782
 30
0.0
 11
45.9825
 21
50.782
 31
0.0
  0
LINE
  8
0
 62
     0
 10
45.9825
 20
50.782
 30
0.0
 11
45.9825
 21
44.982
 31
0.0
  0
LINE
  8
0
 62
     0
 10
45.9825
 20
44.982
 30
0.0
 11
45.1831
 21
44.982
 31
0.0
  0
LINE
  8
0
 62
     0
 10
45.1831
 20
44.982
 30
0.0
 11
45.1831
 21
41.8828
 31
0.0
  0
LINE
  8
0
 62
     0
 10
45.1831
 20
41.8828
 30
0.0
 11
45.9825
 21
41.8828
 31
0.0
  0
LINE
  8
0
 62
     0
 10
45.9825
 20
41.8828
 30
0.0
 11
45.9825
 21
40.8824
 31
0.0
  0
LINE
  8
0
 62
     0
 10
45.9825
 20
40.8824
 30
0.0
 11
59.9817
 21
40.8824
 31
0.0
  0
LINE
  8
0
 62
     0
 10
59.9817
 20
40.8824
 30
0.0
 11
59.9817
 21
41.8828
 31
0.0
  0
LINE
  8
0
 62
     0
 10
59.9817
 20
41.8828
 30
0.0
 11
60.7826
 21
41.8828
 31
0.0
  0
LINE
  8
0
 62
     0
 10
60.7826
 20
41.8828
 30
0.0
 11
60.7826
 21
44.982
 31
0.0
  0
LINE
  8
0
 62
     0
 10
60.7826
 20
44.982
 30
0.0
 11
59.9817
 21
44.982
 31
0.0
  0
LINE
  8
0
 62
     0
 10
59.9817
 20
44.982
 30
0.0
 11
59.9817
 21
50.782
 31
0.0
  0
LINE
  8
0
 62
     0
 10
59.9817
 20
50.782
 30
0.0
 11
60.7826
 21
50.782
 31
0.0
  0
LINE
  8
0
 62
     0
 10
60.7826
 20
50.782
 30
0.0
 11
60.7826
 21
53.8826
 31
0.0
  0
LINE
  8
0
 62
     0
 10
60.7826
 20
53.8826
 30
0.0
 11
59.9817
 21
53.8826
 31
0.0
  0
LINE
  8
0
 62
     0
 10
59.9817
 20
53.8826
 30
0.0
 11
59.9817
 21
54.8816
 31
0.0
  0
LINE
  8
0
 62
     0
 10
59.9817
 20
54.8816
 30
0.0
 11
45.9825
 21
54.8816
 31
0.0
  0
LINE
  8
0
 62
     0
 10
26.9324
 20
54.8816
 30
0.0
 11
26.9324
 21
53.8826
 31
0.0
  0
LINE
  8
0
 62
     0
 10
26.9324
 20
53.8826
 30
0.0
 11
26.1331
 21
53.8826
 31
0.0
  0
LINE
  8
0
 62
     0
 10
26.1331
 20
53.8826
 30
0.0
 11
26.1331
 21
50.782
 31
0.0
  0
LINE
  8
0
 62
     0
 10
26.1331
 20
50.782
 30
0.0
 11
26.9324
 21
50.782
 31
0.0
  0
LINE
  8
0
 62
     0
 10
26.9324
 20
50.782
 30
0.0
 11
26.9324
 21
44.982
 31
0.0
  0
LINE
  8
0
 62
     0
 10
26.9324
 20
44.982
 30
0.0
 11
26.1331
 21
44.982
 31
0.0
  0
LINE
  8
0
 62
     0
 10
26.1331
 20
44.982
 30
0.0
 11
26.1331
 21
41.8828
 31
0.0
  0
LINE
  8
0
 62
     0
 10
26.1331
 20
41.8828
 30
0.0
 11
26.9324
 21
41.8828
 31
0.0
  0
LINE
  8
0
 62
     0
 10
26.9324
 20
41.8828
 30
0.0
 11
26.9324
 21
40.8824
 31
0.0
  0
LINE
  8
0
 62
     0
 10
26.9324
 20
40.8824
 30
0.0
 11
40.9317
 21
40.8824
 31
0.0
  0
LINE
  8
0
 62
     0
 10
40.9317
 20
40.8824
 30
0.0
 11
40.9317
 21
41.8828
 31
0.0
  0
LINE
  8
0
 62
     0
 10
40.9317
 20
41.8828
 30
0.0
 11
41.7326
 21
41.8828
 31
0.0
  0
LINE
  8
0
 62
     0
 10
41.7326
 20
41.8828
 30
0.0
 11
41.7326
 21
44.982
 31
0.0
  0
LINE
  8
0
 62
     0
 10
41.7326
 20
44.982
 30
0.0
 11
40.9317
 21
44.982
 31
0.0
  0
LINE
  8
0
 62
     0
 10
40.9317
 20
44.982
 30
0.0
 11
40.9317
 21
50.782
 31
0.0
  0
LINE
  8
0
 62
     0
 10
40.9317
 20
50.782
 30
0.0
 11
41.7326
 21
50.782
 31
0.0
  0
LINE
  8
0
 62
     0
 10
41.7326
 20
50.782
 30
0.0
 11
41.7326
 21
53.8826
 31
0.0
  0
LINE
  8
0
 62
     0
 10
41.7326
 20
53.8826
 30
0.0
 11
40.9317
 21
53.8826
 31
0.0
  0
LINE
  8
0
 62
     0
 10
40.9317
 20
53.8826
 30
0.0
 11
40.9317
 21
54.8816
 31
0.0
  0
LINE
  8
0
 62
     0
 10
40.9317
 20
54.8816
 30
0.0
 11
26.9324
 21
54.8816
 31
0.0
  0
LINE
  8
0
 62
     0
 10
5.50115
 20
54.8816
 30
0.0
 11
5.50115
 21
53.8826
 31
0.0
  0
LINE
  8
0
 62
     0
 10
5.50115
 20
53.8826
 30
0.0
 11
4.70186
 21
53.8826
 31
0.0
  0
LINE
  8
0
 62
     0
 10
4.70186
 20
53.8826
 30
0.0
 11
4.70186
 21
50.782
 31
0.0
  0
LINE
  8
0
 62
     0
 10
4.70186
 20
50.782
 30
0.0
 11
5.50115
 21
50.782
 31
0.0
  0
LINE
  8
0
 62
     0
 10
5.50115
 20
50.782
 30
0.0
 11
5.50115
 21
44.982
 31
0.0
  0
LINE
  8
0
 62
     0
 10
5.50115
 20
44.982
 30
0.0
 11
4.70186
 21
44.982
 31
0.0
  0
LINE
  8
0
 62
     0
 10
4.70186
 20
44.982
 30
0.0
 11
4.70186
 21
41.8828
 31
0.0
  0
LINE
  8
0
 62
     0
 10
4.70186
 20
41.8828
 30
0.0
 11
5.50115
 21
41.8828
 31
0.0
  0
LINE
  8
0
 62
     0
 10
5.50115
 20
41.8828
 30
0.0
 11
5.50115
 21
40.8824
 31
0.0
  0
LINE
  8
0
 62
     0
 10
5.50115
 20
40.8824
 30
0.0
 11
19.502
 21
40.8824
 31
0.0
  0
LINE
  8
0
 62
     0
 10
19.502
 20
40.8824
 30
0.0
 11
19.502
 21
41.8828
 31
0.0
  0
LINE
  8
0
 62
     0
 10
19.502
 20
41.8828
 30
0.0
 11
20.3013
 21
41.8828
 31
0.0
  0
LINE
  8
0
 62
     0
 10
20.3013
 20
41.8828
 30
0.0
 11
20.3013
 21
44.982
 31
0.0
  0
LINE
  8
0
 62
     0
 10
20.3013
 20
44.982
 30
0.0
 11
19.502
 21
44.982
 31
0.0
  0
LINE
  8
0
 62
     0
 10
19.502
 20
44.982
 30
0.0
 11
19.502
 21
50.782
 31
0.0
  0
LINE
  8
0
 62
     0
 10
19.502
 20
50.782
 30
0.0
 11
20.3013
 21
50.782
 31
0.0
  0
LINE
  8
0
 62
     0
 10
20.3013
 20
50.782
 30
0.0
 11
20.3013
 21
53.8826
 31
0.0
  0
LINE
  8
0
 62
     0
 10
20.3013
 20
53.8826
 30
0.0
 11
19.502
 21
53.8826
 31
0.0
  0
LINE
  8
0
 62
     0
 10
19.502
 20
53.8826
 30
0.0
 11
19.502
 21
54.8816
 31
0.0
  0
LINE
  8
0
 62
     0
 10
19.502
 20
54.8816
 30
0.0
 11
5.50115
 21
54.8816
 31
0.0
  0
LINE
  8
0
 62
     0
 10
210.289
 20
73.9331
 30
0.0
 11
210.289
 21
72.9326
 31
0.0
  0
LINE
  8
0
 62
     0
 10
210.289
 20
72.9326
 30
0.0
 11
209.488
 21
72.9326
 31
0.0
  0
LINE
  8
0
 62
     0
 10
209.488
 20
72.9326
 30
0.0
 11
209.488
 21
69.8334
 31
0.0
  0
LINE
  8
0
 62
     0
 10
209.488
 20
69.8334
 30
0.0
 11
210.289
 21
69.8334
 31
0.0
  0
LINE
  8
0
 62
     0
 10
210.289
 20
69.8334
 30
0.0
 11
210.289
 21
64.0334
 31
0.0
  0
LINE
  8
0
 62
     0
 10
210.289
 20
64.0334
 30
0.0
 11
209.488
 21
64.0334
 31
0.0
  0
LINE
  8
0
 62
     0
 10
209.488
 20
64.0334
 30
0.0
 11
209.488
 21
60.9328
 31
0.0
  0
LINE
  8
0
 62
     0
 10
209.488
 20
60.9328
 30
0.0
 11
210.289
 21
60.9328
 31
0.0
  0
LINE
  8
0
 62
     0
 10
210.289
 20
60.9328
 30
0.0
 11
210.289
 21
59.9324
 31
0.0
  0
LINE
  8
0
 62
     0
 10
210.289
 20
59.9324
 30
0.0
 11
224.288
 21
59.9324
 31
0.0
  0
LINE
  8
0
 62
     0
 10
224.288
 20
59.9324
 30
0.0
 11
224.288
 21
60.9328
 31
0.0
  0
LINE
  8
0
 62
     0
 10
224.288
 20
60.9328
 30
0.0
 11
225.089
 21
60.9328
 31
0.0
  0
LINE
  8
0
 62
     0
 10
225.089
 20
60.9328
 30
0.0
 11
225.089
 21
64.0334
 31
0.0
  0
LINE
  8
0
 62
     0
 10
225.089
 20
64.0334
 30
0.0
 11
224.288
 21
64.0334
 31
0.0
  0
LINE
  8
0
 62
     0
 10
224.288
 20
64.0334
 30
0.0
 11
224.288
 21
69.8334
 31
0.0
  0
LINE
  8
0
 62
     0
 10
224.288
 20
69.8334
 30
0.0
 11
225.089
 21
69.8334
 31
0.0
  0
LINE
  8
0
 62
     0
 10
225.089
 20
69.8334
 30
0.0
 11
225.089
 21
72.9326
 31
0.0
  0
LINE
  8
0
 62
     0
 10
225.089
 20
72.9326
 30
0.0
 11
224.288
 21
72.9326
 31
0.0
  0
LINE
  8
0
 62
     0
 10
224.288
 20
72.9326
 30
0.0
 11
224.288
 21
73.9331
 31
0.0
  0
LINE
  8
0
 62
     0
 10
224.288
 20
73.9331
 30
0.0
 11
210.289
 21
73.9331
 31
0.0
  0
LINE
  8
0
 62
     0
 10
188.857
 20
73.9331
 30
0.0
 11
188.857
 21
72.9326
 31
0.0
  0
LINE
  8
0
 62
     0
 10
188.857
 20
72.9326
 30
0.0
 11
188.058
 21
72.9326
 31
0.0
  0
LINE
  8
0
 62
     0
 10
188.058
 20
72.9326
 30
0.0
 11
188.058
 21
69.8334
 31
0.0
  0
LINE
  8
0
 62
     0
 10
188.058
 20
69.8334
 30
0.0
 11
188.857
 21
69.8334
 31
0.0
  0
LINE
  8
0
 62
     0
 10
188.857
 20
69.8334
 30
0.0
 11
188.857
 21
64.0334
 31
0.0
  0
LINE
  8
0
 62
     0
 10
188.857
 20
64.0334
 30
0.0
 11
188.058
 21
64.0334
 31
0.0
  0
LINE
  8
0
 62
     0
 10
188.058
 20
64.0334
 30
0.0
 11
188.058
 21
60.9328
 31
0.0
  0
LINE
  8
0
 62
     0
 10
188.058
 20
60.9328
 30
0.0
 11
188.857
 21
60.9328
 31
0.0
  0
LINE
  8
0
 62
     0
 10
188.857
 20
60.9328
 30
0.0
 11
188.857
 21
59.9324
 31
0.0
  0
LINE
  8
0
 62
     0
 10
188.857
 20
59.9324
 30
0.0
 11
202.857
 21
59.9324
 31
0.0
  0
LINE
  8
0
 62
     0
 10
202.857
 20
59.9324
 30
0.0
 11
202.857
 21
60.9328
 31
0.0
  0
LINE
  8
0
 62
     0
 10
202.857
 20
60.9328
 30
0.0
 11
203.658
 21
60.9328
 31
0.0
  0
LINE
  8
0
 62
     0
 10
203.658
 20
60.9328
 30
0.0
 11
203.658
 21
64.0334
 31
0.0
  0
LINE
  8
0
 62
     0
 10
203.658
 20
64.0334
 30
0.0
 11
202.857
 21
64.0334
 31
0.0
  0
LINE
  8
0
 62
     0
 10
202.857
 20
64.0334
 30
0.0
 11
202.857
 21
69.8334
 31
0.0
  0
LINE
  8
0
 62
     0
 10
202.857
 20
69.8334
 30
0.0
 11
203.658
 21
69.8334
 31
0.0
  0
LINE
  8
0
 62
     0
 10
203.658
 20
69.8334
 30
0.0
 11
203.658
 21
72.9326
 31
0.0
  0
LINE
  8
0
 62
     0
 10
203.658
 20
72.9326
 30
0.0
 11
202.857
 21
72.9326
 31
0.0
  0
LINE
  8
0
 62
     0
 10
202.857
 20
72.9326
 30
0.0
 11
202.857
 21
73.9331
 31
0.0
  0
LINE
  8
0
 62
     0
 10
202.857
 20
73.9331
 30
0.0
 11
188.857
 21
73.9331
 31
0.0
  0
LINE
  8
0
 62
     0
 10
169.807
 20
73.9331
 30
0.0
 11
169.807
 21
72.9326
 31
0.0
  0
LINE
  8
0
 62
     0
 10
169.807
 20
72.9326
 30
0.0
 11
169.008
 21
72.9326
 31
0.0
  0
LINE
  8
0
 62
     0
 10
169.008
 20
72.9326
 30
0.0
 11
169.008
 21
69.8334
 31
0.0
  0
LINE
  8
0
 62
     0
 10
169.008
 20
69.8334
 30
0.0
 11
169.807
 21
69.8334
 31
0.0
  0
LINE
  8
0
 62
     0
 10
169.807
 20
69.8334
 30
0.0
 11
169.807
 21
64.0334
 31
0.0
  0
LINE
  8
0
 62
     0
 10
169.807
 20
64.0334
 30
0.0
 11
169.008
 21
64.0334
 31
0.0
  0
LINE
  8
0
 62
     0
 10
169.008
 20
64.0334
 30
0.0
 11
169.008
 21
60.9328
 31
0.0
  0
LINE
  8
0
 62
     0
 10
169.008
 20
60.9328
 30
0.0
 11
169.807
 21
60.9328
 31
0.0
  0
LINE
  8
0
 62
     0
 10
169.807
 20
60.9328
 30
0.0
 11
169.807
 21
59.9324
 31
0.0
  0
LINE
  8
0
 62
     0
 10
169.807
 20
59.9324
 30
0.0
 11
183.807
 21
59.9324
 31
0.0
  0
LINE
  8
0
 62
     0
 10
183.807
 20
59.9324
 30
0.0
 11
183.807
 21
60.9328
 31
0.0
  0
LINE
  8
0
 62
     0
 10
183.807
 20
60.9328
 30
0.0
 11
184.608
 21
60.9328
 31
0.0
  0
LINE
  8
0
 62
     0
 10
184.608
 20
60.9328
 30
0.0
 11
184.608
 21
64.0334
 31
0.0
  0
LINE
  8
0
 62
     0
 10
184.608
 20
64.0334
 30
0.0
 11
183.807
 21
64.0334
 31
0.0
  0
LINE
  8
0
 62
     0
 10
183.807
 20
64.0334
 30
0.0
 11
183.807
 21
69.8334
 31
0.0
  0
LINE
  8
0
 62
     0
 10
183.807
 20
69.8334
 30
0.0
 11
184.608
 21
69.8334
 31
0.0
  0
LINE
  8
0
 62
     0
 10
184.608
 20
69.8334
 30
0.0
 11
184.608
 21
72.9326
 31
0.0
  0
LINE
  8
0
 62
     0
 10
184.608
 20
72.9326
 30
0.0
 11
183.807
 21
72.9326
 31
0.0
  0
LINE
  8
0
 62
     0
 10
183.807
 20
72.9326
 30
0.0
 11
183.807
 21
73.9331
 31
0.0
  0
LINE
  8
0
 62
     0
 10
183.807
 20
73.9331
 30
0.0
 11
169.807
 21
73.9331
 31
0.0
  0
LINE
  8
0
 62
     0
 10
150.757
 20
73.9331
 30
0.0
 11
150.757
 21
72.9326
 31
0.0
  0
LINE
  8
0
 62
     0
 10
150.757
 20
72.9326
 30
0.0
 11
149.958
 21
72.9326
 31
0.0
  0
LINE
  8
0
 62
     0
 10
149.958
 20
72.9326
 30
0.0
 11
149.958
 21
69.8334
 31
0.0
  0
LINE
  8
0
 62
     0
 10
149.958
 20
69.8334
 30
0.0
 11
150.757
 21
69.8334
 31
0.0
  0
LINE
  8
0
 62
     0
 10
150.757
 20
69.8334
 30
0.0
 11
150.757
 21
64.0334
 31
0.0
  0
LINE
  8
0
 62
     0
 10
150.757
 20
64.0334
 30
0.0
 11
149.958
 21
64.0334
 31
0.0
  0
LINE
  8
0
 62
     0
 10
149.958
 20
64.0334
 30
0.0
 11
149.958
 21
60.9328
 31
0.0
  0
LINE
  8
0
 62
     0
 10
149.958
 20
60.9328
 30
0.0
 11
150.757
 21
60.9328
 31
0.0
  0
LINE
  8
0
 62
     0
 10
150.757
 20
60.9328
 30
0.0
 11
150.757
 21
59.9324
 31
0.0
  0
LINE
  8
0
 62
     0
 10
150.757
 20
59.9324
 30
0.0
 11
164.757
 21
59.9324
 31
0.0
  0
LINE
  8
0
 62
     0
 10
164.757
 20
59.9324
 30
0.0
 11
164.757
 21
60.9328
 31
0.0
  0
LINE
  8
0
 62
     0
 10
164.757
 20
60.9328
 30
0.0
 11
165.558
 21
60.9328
 31
0.0
  0
LINE
  8
0
 62
     0
 10
165.558
 20
60.9328
 30
0.0
 11
165.558
 21
64.0334
 31
0.0
  0
LINE
  8
0
 62
     0
 10
165.558
 20
64.0334
 30
0.0
 11
164.757
 21
64.0334
 31
0.0
  0
LINE
  8
0
 62
     0
 10
164.757
 20
64.0334
 30
0.0
 11
164.757
 21
69.8334
 31
0.0
  0
LINE
  8
0
 62
     0
 10
164.757
 20
69.8334
 30
0.0
 11
165.558
 21
69.8334
 31
0.0
  0
LINE
  8
0
 62
     0
 10
165.558
 20
69.8334
 30
0.0
 11
165.558
 21
72.9326
 31
0.0
  0
LINE
  8
0
 62
     0
 10
165.558
 20
72.9326
 30
0.0
 11
164.757
 21
72.9326
 31
0.0
  0
LINE
  8
0
 62
     0
 10
164.757
 20
72.9326
 30
0.0
 11
164.757
 21
73.9331
 31
0.0
  0
LINE
  8
0
 62
     0
 10
164.757
 20
73.9331
 30
0.0
 11
150.757
 21
73.9331
 31
0.0
  0
LINE
  8
0
 62
     0
 10
131.707
 20
73.9331
 30
0.0
 11
131.707
 21
72.9326
 31
0.0
  0
LINE
  8
0
 62
     0
 10
131.707
 20
72.9326
 30
0.0
 11
130.908
 21
72.9326
 31
0.0
  0
LINE
  8
0
 62
     0
 10
130.908
 20
72.9326
 30
0.0
 11
130.908
 21
69.8334
 31
0.0
  0
LINE
  8
0
 62
     0
 10
130.908
 20
69.8334
 30
0.0
 11
131.707
 21
69.8334
 31
0.0
  0
LINE
  8
0
 62
     0
 10
131.707
 20
69.8334
 30
0.0
 11
131.707
 21
64.0334
 31
0.0
  0
LINE
  8
0
 62
     0
 10
131.707
 20
64.0334
 30
0.0
 11
130.908
 21
64.0334
 31
0.0
  0
LINE
  8
0
 62
     0
 10
130.908
 20
64.0334
 30
0.0
 11
130.908
 21
60.9328
 31
0.0
  0
LINE
  8
0
 62
     0
 10
130.908
 20
60.9328
 30
0.0
 11
131.707
 21
60.9328
 31
0.0
  0
LINE
  8
0
 62
     0
 10
131.707
 20
60.9328
 30
0.0
 11
131.707
 21
59.9324
 31
0.0
  0
LINE
  8
0
 62
     0
 10
131.707
 20
59.9324
 30
0.0
 11
145.707
 21
59.9324
 31
0.0
  0
LINE
  8
0
 62
     0
 10
145.707
 20
59.9324
 30
0.0
 11
145.707
 21
60.9328
 31
0.0
  0
LINE
  8
0
 62
     0
 10
145.707
 20
60.9328
 30
0.0
 11
146.508
 21
60.9328
 31
0.0
  0
LINE
  8
0
 62
     0
 10
146.508
 20
60.9328
 30
0.0
 11
146.508
 21
64.0334
 31
0.0
  0
LINE
  8
0
 62
     0
 10
146.508
 20
64.0334
 30
0.0
 11
145.707
 21
64.0334
 31
0.0
  0
LINE
  8
0
 62
     0
 10
145.707
 20
64.0334
 30
0.0
 11
145.707
 21
69.8334
 31
0.0
  0
LINE
  8
0
 62
     0
 10
145.707
 20
69.8334
 30
0.0
 11
146.508
 21
69.8334
 31
0.0
  0
LINE
  8
0
 62
     0
 10
146.508
 20
69.8334
 30
0.0
 11
146.508
 21
72.9326
 31
0.0
  0
LINE
  8
0
 62
     0
 10
146.508
 20
72.9326
 30
0.0
 11
145.707
 21
72.9326
 31
0.0
  0
LINE
  8
0
 62
     0
 10
145.707
 20
72.9326
 30
0.0
 11
145.707
 21
73.9331
 31
0.0
  0
LINE
  8
0
 62
     0
 10
145.707
 20
73.9331
 30
0.0
 11
131.707
 21
73.9331
 31
0.0
  0
LINE
  8
0
 62
     0
 10
79.32
 20
73.9316
 30
0.0
 11
79.32
 21
72.9326
 31
0.0
  0
LINE
  8
0
 62
     0
 10
79.32
 20
72.9326
 30
0.0
 11
78.5206
 21
72.9326
 31
0.0
  0
LINE
  8
0
 62
     0
 10
78.5206
 20
72.9326
 30
0.0
 11
78.5206
 21
69.832
 31
0.0
  0
LINE
  8
0
 62
     0
 10
78.5206
 20
69.832
 30
0.0
 11
79.32
 21
69.832
 31
0.0
  0
LINE
  8
0
 62
     0
 10
79.32
 20
69.832
 30
0.0
 11
79.32
 21
64.032
 31
0.0
  0
LINE
  8
0
 62
     0
 10
79.32
 20
64.032
 30
0.0
 11
78.5206
 21
64.032
 31
0.0
  0
LINE
  8
0
 62
     0
 10
78.5206
 20
64.032
 30
0.0
 11
78.5206
 21
60.9328
 31
0.0
  0
LINE
  8
0
 62
     0
 10
78.5206
 20
60.9328
 30
0.0
 11
79.32
 21
60.9328
 31
0.0
  0
LINE
  8
0
 62
     0
 10
79.32
 20
60.9328
 30
0.0
 11
79.32
 21
59.9324
 31
0.0
  0
LINE
  8
0
 62
     0
 10
79.32
 20
59.9324
 30
0.0
 11
93.3207
 21
59.9324
 31
0.0
  0
LINE
  8
0
 62
     0
 10
93.3207
 20
59.9324
 30
0.0
 11
93.3207
 21
60.9328
 31
0.0
  0
LINE
  8
0
 62
     0
 10
93.3207
 20
60.9328
 30
0.0
 11
94.1201
 21
60.9328
 31
0.0
  0
LINE
  8
0
 62
     0
 10
94.1201
 20
60.9328
 30
0.0
 11
94.1201
 21
64.032
 31
0.0
  0
LINE
  8
0
 62
     0
 10
94.1201
 20
64.032
 30
0.0
 11
93.3207
 21
64.032
 31
0.0
  0
LINE
  8
0
 62
     0
 10
93.3207
 20
64.032
 30
0.0
 11
93.3207
 21
69.832
 31
0.0
  0
LINE
  8
0
 62
     0
 10
93.3207
 20
69.832
 30
0.0
 11
94.1201
 21
69.832
 31
0.0
  0
LINE
  8
0
 62
     0
 10
94.1201
 20
69.832
 30
0.0
 11
94.1201
 21
72.9326
 31
0.0
  0
LINE
  8
0
 62
     0
 10
94.1201
 20
72.9326
 30
0.0
 11
93.3207
 21
72.9326
 31
0.0
  0
LINE
  8
0
 62
     0
 10
93.3207
 20
72.9326
 30
0.0
 11
93.3207
 21
73.9316
 31
0.0
  0
LINE
  8
0
 62
     0
 10
93.3207
 20
73.9316
 30
0.0
 11
79.32
 21
73.9316
 31
0.0
  0
LINE
  8
0
 62
     0
 10
60.27
 20
73.9316
 30
0.0
 11
60.27
 21
72.9326
 31
0.0
  0
LINE
  8
0
 62
     0
 10
60.27
 20
72.9326
 30
0.0
 11
59.4706
 21
72.9326
 31
0.0
  0
LINE
  8
0
 62
     0
 10
59.4706
 20
72.9326
 30
0.0
 11
59.4706
 21
69.832
 31
0.0
  0
LINE
  8
0
 62
     0
 10
59.4706
 20
69.832
 30
0.0
 11
60.27
 21
69.832
 31
0.0
  0
LINE
  8
0
 62
     0
 10
60.27
 20
69.832
 30
0.0
 11
60.27
 21
64.032
 31
0.0
  0
LINE
  8
0
 62
     0
 10
60.27
 20
64.032
 30
0.0
 11
59.4706
 21
64.032
 31
0.0
  0
LINE
  8
0
 62
     0
 10
59.4706
 20
64.032
 30
0.0
 11
59.4706
 21
60.9328
 31
0.0
  0
LINE
  8
0
 62
     0
 10
59.4706
 20
60.9328
 30
0.0
 11
60.27
 21
60.9328
 31
0.0
  0
LINE
  8
0
 62
     0
 10
60.27
 20
60.9328
 30
0.0
 11
60.27
 21
59.9324
 31
0.0
  0
LINE
  8
0
 62
     0
 10
60.27
 20
59.9324
 30
0.0
 11
74.2707
 21
59.9324
 31
0.0
  0
LINE
  8
0
 62
     0
 10
74.2707
 20
59.9324
 30
0.0
 11
74.2707
 21
60.9328
 31
0.0
  0
LINE
  8
0
 62
     0
 10
74.2707
 20
60.9328
 30
0.0
 11
75.0701
 21
60.9328
 31
0.0
  0
LINE
  8
0
 62
     0
 10
75.0701
 20
60.9328
 30
0.0
 11
75.0701
 21
64.032
 31
0.0
  0
LINE
  8
0
 62
     0
 10
75.0701
 20
64.032
 30
0.0
 11
74.2707
 21
64.032
 31
0.0
  0
LINE
  8
0
 62
     0
 10
74.2707
 20
64.032
 30
0.0
 11
74.2707
 21
69.832
 31
0.0
  0
LINE
  8
0
 62
     0
 10
74.2707
 20
69.832
 30
0.0
 11
75.0701
 21
69.832
 31
0.0
  0
LINE
  8
0
 62
     0
 10
75.0701
 20
69.832
 30
0.0
 11
75.0701
 21
72.9326
 31
0.0
  0
LINE
  8
0
 62
     0
 10
75.0701
 20
72.9326
 30
0.0
 11
74.2707
 21
72.9326
 31
0.0
  0
LINE
  8
0
 62
     0
 10
74.2707
 20
72.9326
 30
0.0
 11
74.2707
 21
73.9316
 31
0.0
  0
LINE
  8
0
 62
     0
 10
74.2707
 20
73.9316
 30
0.0
 11
60.27
 21
73.9316
 31
0.0
  0
LINE
  8
0
 62
     0
 10
41.22
 20
73.9316
 30
0.0
 11
41.22
 21
72.9326
 31
0.0
  0
LINE
  8
0
 62
     0
 10
41.22
 20
72.9326
 30
0.0
 11
40.4206
 21
72.9326
 31
0.0
  0
LINE
  8
0
 62
     0
 10
40.4206
 20
72.9326
 30
0.0
 11
40.4206
 21
69.832
 31
0.0
  0
LINE
  8
0
 62
     0
 10
40.4206
 20
69.832
 30
0.0
 11
41.22
 21
69.832
 31
0.0
  0
LINE
  8
0
 62
     0
 10
41.22
 20
69.832
 30
0.0
 11
41.22
 21
64.032
 31
0.0
  0
LINE
  8
0
 62
     0
 10
41.22
 20
64.032
 30
0.0
 11
40.4206
 21
64.032
 31
0.0
  0
LINE
  8
0
 62
     0
 10
40.4206
 20
64.032
 30
0.0
 11
40.4206
 21
60.9328
 31
0.0
  0
LINE
  8
0
 62
     0
 10
40.4206
 20
60.9328
 30
0.0
 11
41.22
 21
60.9328
 31
0.0
  0
LINE
  8
0
 62
     0
 10
41.22
 20
60.9328
 30
0.0
 11
41.22
 21
59.9324
 31
0.0
  0
LINE
  8
0
 62
     0
 10
41.22
 20
59.9324
 30
0.0
 11
55.2207
 21
59.9324
 31
0.0
  0
LINE
  8
0
 62
     0
 10
55.2207
 20
59.9324
 30
0.0
 11
55.2207
 21
60.9328
 31
0.0
  0
LINE
  8
0
 62
     0
 10
55.2207
 20
60.9328
 30
0.0
 11
56.0201
 21
60.9328
 31
0.0
  0
LINE
  8
0
 62
     0
 10
56.0201
 20
60.9328
 30
0.0
 11
56.0201
 21
64.032
 31
0.0
  0
LINE
  8
0
 62
     0
 10
56.0201
 20
64.032
 30
0.0
 11
55.2207
 21
64.032
 31
0.0
  0
LINE
  8
0
 62
     0
 10
55.2207
 20
64.032
 30
0.0
 11
55.2207
 21
69.832
 31
0.0
  0
LINE
  8
0
 62
     0
 10
55.2207
 20
69.832
 30
0.0
 11
56.0201
 21
69.832
 31
0.0
  0
LINE
  8
0
 62
     0
 10
56.0201
 20
69.832
 30
0.0
 11
56.0201
 21
72.9326
 31
0.0
  0
LINE
  8
0
 62
     0
 10
56.0201
 20
72.9326
 30
0.0
 11
55.2207
 21
72.9326
 31
0.0
  0
LINE
  8
0
 62
     0
 10
55.2207
 20
72.9326
 30
0.0
 11
55.2207
 21
73.9316
 31
0.0
  0
LINE
  8
0
 62
     0
 10
55.2207
 20
73.9316
 30
0.0
 11
41.22
 21
73.9316
 31
0.0
  0
LINE
  8
0
 62
     0
 10
22.1699
 20
73.9316
 30
0.0
 11
22.1699
 21
72.9326
 31
0.0
  0
LINE
  8
0
 62
     0
 10
22.1699
 20
72.9326
 30
0.0
 11
21.3706
 21
72.9326
 31
0.0
  0
LINE
  8
0
 62
     0
 10
21.3706
 20
72.9326
 30
0.0
 11
21.3706
 21
69.832
 31
0.0
  0
LINE
  8
0
 62
     0
 10
21.3706
 20
69.832
 30
0.0
 11
22.1699
 21
69.832
 31
0.0
  0
LINE
  8
0
 62
     0
 10
22.1699
 20
69.832
 30
0.0
 11
22.1699
 21
64.032
 31
0.0
  0
LINE
  8
0
 62
     0
 10
22.1699
 20
64.032
 30
0.0
 11
21.3706
 21
64.032
 31
0.0
  0
LINE
  8
0
 62
     0
 10
21.3706
 20
64.032
 30
0.0
 11
21.3706
 21
60.9328
 31
0.0
  0
LINE
  8
0
 62
     0
 10
21.3706
 20
60.9328
 30
0.0
 11
22.1699
 21
60.9328
 31
0.0
  0
LINE
  8
0
 62
     0
 10
22.1699
 20
60.9328
 30
0.0
 11
22.1699
 21
59.9324
 31
0.0
  0
LINE
  8
0
 62
     0
 10
22.1699
 20
59.9324
 30
0.0
 11
36.1707
 21
59.9324
 31
0.0
  0
LINE
  8
0
 62
     0
 10
36.1707
 20
59.9324
 30
0.0
 11
36.1707
 21
60.9328
 31
0.0
  0
LINE
  8
0
 62
     0
 10
36.1707
 20
60.9328
 30
0.0
 11
36.9701
 21
60.9328
 31
0.0
  0
LINE
  8
0
 62
     0
 10
36.9701
 20
60.9328
 30
0.0
 11
36.9701
 21
64.032
 31
0.0
  0
LINE
  8
0
 62
     0
 10
36.9701
 20
64.032
 30
0.0
 11
36.1707
 21
64.032
 31
0.0
  0
LINE
  8
0
 62
     0
 10
36.1707
 20
64.032
 30
0.0
 11
36.1707
 21
69.832
 31
0.0
  0
LINE
  8
0
 62
     0
 10
36.1707
 20
69.832
 30
0.0
 11
36.9701
 21
69.832
 31
0.0
  0
LINE
  8
0
 62
     0
 10
36.9701
 20
69.832
 30
0.0
 11
36.9701
 21
72.9326
 31
0.0
  0
LINE
  8
0
 62
     0
 10
36.9701
 20
72.9326
 30
0.0
 11
36.1707
 21
72.9326
 31
0.0
  0
LINE
  8
0
 62
     0
 10
36.1707
 20
72.9326
 30
0.0
 11
36.1707
 21
73.9316
 31
0.0
  0
LINE
  8
0
 62
     0
 10
36.1707
 20
73.9316
 30
0.0
 11
22.1699
 21
73.9316
 31
0.0
  0
LINE
  8
0
 62
     0
 10
3.11988
 20
73.9316
 30
0.0
 11
3.11988
 21
72.9326
 31
0.0
  0
LINE
  8
0
 62
     0
 10
3.11988
 20
72.9326
 30
0.0
 11
2.32062
 21
72.9326
 31
0.0
  0
LINE
  8
0
 62
     0
 10
2.32062
 20
72.9326
 30
0.0
 11
2.32062
 21
69.832
 31
0.0
  0
LINE
  8
0
 62
     0
 10
2.32062
 20
69.832
 30
0.0
 11
3.11988
 21
69.832
 31
0.0
  0
LINE
  8
0
 62
     0
 10
3.11988
 20
69.832
 30
0.0
 11
3.11988
 21
64.032
 31
0.0
  0
LINE
  8
0
 62
     0
 10
3.11988
 20
64.032
 30
0.0
 11
2.32062
 21
64.032
 31
0.0
  0
LINE
  8
0
 62
     0
 10
2.32062
 20
64.032
 30
0.0
 11
2.32062
 21
60.9328
 31
0.0
  0
LINE
  8
0
 62
     0
 10
2.32062
 20
60.9328
 30
0.0
 11
3.11988
 21
60.9328
 31
0.0
  0
LINE
  8
0
 62
     0
 10
3.11988
 20
60.9328
 30
0.0
 11
3.11988
 21
59.9324
 31
0.0
  0
LINE
  8
0
 62
     0
 10
3.11988
 20
59.9324
 30
0.0
 11
17.1208
 21
59.9324
 31
0.0
  0
LINE
  8
0
 62
     0
 10
17.1208
 20
59.9324
 30
0.0
 11
17.1208
 21
60.9328
 31
0.0
  0
LINE
  8
0
 62
     0
 10
17.1208
 20
60.9328
 30
0.0
 11
17.92
 21
60.9328
 31
0.0
  0
LINE
  8
0
 62
     0
 10
17.92
 20
60.9328
 30
0.0
 11
17.92
 21
64.032
 31
0.0
  0
LINE
  8
0
 62
     0
 10
17.92
 20
64.032
 30
0.0
 11
17.1208
 21
64.032
 31
0.0
  0
LINE
  8
0
 62
     0
 10
17.1208
 20
64.032
 30
0.0
 11
17.1208
 21
69.832
 31
0.0
  0
LINE
  8
0
 62
     0
 10
17.1208
 20
69.832
 30
0.0
 11
17.92
 21
69.832
 31
0.0
  0
LINE
  8
0
 62
     0
 10
17.92
 20
69.832
 30
0.0
 11
17.92
 21
72.9326
 31
0.0
  0
LINE
  8
0
 62
     0
 10
17.92
 20
72.9326
 30
0.0
 11
17.1208
 21
72.9326
 31
0.0
  0
LINE
  8
0
 62
     0
 10
17.1208
 20
72.9326
 30
0.0
 11
17.1208
 21
73.9316
 31
0.0
  0
LINE
  8
0
 62
     0
 10
17.1208
 20
73.9316
 30
0.0
 11
3.11988
 21
73.9316
 31
0.0
  0
ENDSEC
  0
EOF
