M48
; DRILL file {KiCad (6.0.2)} date Sun Mar  6 15:17:32 2022
; FORMAT={-:-/ absolute / inch / decimal}
; #@! TF.CreationDate,2022-03-06T15:17:32+09:00
; #@! TF.GenerationSoftware,Kicad,Pcbnew,(6.0.2)
; #@! TF.FileFunction,NonPlated,1,2,NPTH
FMAT,2
INCH
; #@! TA.AperFunction,NonPlated,NPTH,ComponentDrill
T1C0.0748
; #@! TA.AperFunction,NonPlated,NPTH,ComponentDrill
T2C0.0846
; #@! TA.AperFunction,NonPlated,NPTH,ComponentDrill
T3C0.1575
%
G90
G05
T1
X1.1006Y-1.2516
X1.1955Y-2.0022
X1.2886Y-2.7516
X1.3831Y-3.5006
X1.5006Y-1.2516
X1.5955Y-2.0022
X1.6886Y-2.7516
X1.7831Y-3.5006
X1.8516Y-1.2526
X2.04Y-2.0022
X2.228Y-2.7522
X2.2516Y-1.2526
X2.322Y-3.5026
X2.44Y-2.0022
X2.6006Y-1.2516
X2.628Y-2.7522
X2.722Y-3.5026
X2.7906Y-2.0016
X2.9776Y-2.7506
X3.0006Y-1.2516
X3.1906Y-2.0016
X3.2594Y-3.5012
X3.3526Y-1.2526
X3.3776Y-2.7506
X3.5406Y-2.0016
X3.6594Y-3.5012
X3.728Y-2.7512
X3.7526Y-1.2526
X3.9406Y-2.0016
X4.1035Y-1.2506
X4.128Y-2.7512
X4.2906Y-2.0016
X4.3841Y-3.5026
X4.4789Y-2.7522
X4.5035Y-1.2506
X4.6906Y-2.0016
X4.7841Y-3.5026
X4.8789Y-2.7522
X5.697Y-3.5016
X6.097Y-3.5016
X6.1646Y-1.2516
X6.3516Y-2.0026
X6.5396Y-2.7522
X6.5646Y-1.2516
X6.7516Y-2.0026
X6.822Y-3.5026
X6.9156Y-1.2506
X6.9396Y-2.7522
X7.1026Y-2.0026
X7.222Y-3.5026
X7.2906Y-2.7522
X7.3156Y-1.2506
X7.5026Y-2.0026
X7.6656Y-3.5016
X7.6665Y-1.2516
X7.6906Y-2.7522
X7.8535Y-2.0026
X8.0415Y-2.7516
X8.0656Y-3.5016
X8.0665Y-1.2516
X8.2535Y-2.0026
X8.4156Y-1.2516
X8.4156Y-3.5016
X8.4415Y-2.7516
X8.6035Y-2.0026
X8.8156Y-1.2516
X8.8156Y-3.5016
X9.0035Y-2.0026
X9.072Y-2.7516
X9.1657Y-3.5016
X9.2591Y-1.2506
X9.3549Y-2.0022
X9.472Y-2.7516
X9.5657Y-3.5016
X9.6591Y-1.2506
X9.7549Y-2.0022
T2
X0.9498Y-0.9557
X0.9498Y-3.7835
X1.6761Y-2.3778
X3.1762Y-3.127
X3.1772Y-1.6269
X3.1772Y-0.9557
X4.1624Y-3.7835
X4.9154Y-0.9557
X6.4144Y-3.7835
X7.4921Y-0.9557
X7.6043Y-3.1259
X7.6052Y-1.6259
X8.2411Y-3.7835
X9.1791Y-2.3759
X9.8209Y-3.7835
X9.8228Y-0.9557
T3
X1.3006Y-1.2516
X1.3955Y-2.0022
X1.4886Y-2.7516
X1.5831Y-3.5006
X2.0516Y-1.2526
X2.24Y-2.0022
X2.428Y-2.7522
X2.522Y-3.5026
X2.8006Y-1.2516
X2.9906Y-2.0016
X3.1776Y-2.7506
X3.4594Y-3.5012
X3.5526Y-1.2526
X3.7406Y-2.0016
X3.928Y-2.7512
X4.3035Y-1.2506
X4.4906Y-2.0016
X4.5841Y-3.5026
X4.6789Y-2.7522
X5.897Y-3.5016
X6.3646Y-1.2516
X6.5516Y-2.0026
X6.7396Y-2.7522
X7.022Y-3.5026
X7.1156Y-1.2506
X7.3026Y-2.0026
X7.4906Y-2.7522
X7.8656Y-3.5016
X7.8665Y-1.2516
X8.0535Y-2.0026
X8.2415Y-2.7516
X8.6156Y-1.2516
X8.6156Y-3.5016
X8.8035Y-2.0026
X9.272Y-2.7516
X9.3657Y-3.5016
X9.4591Y-1.2506
X9.5549Y-2.0022
T0
M30
