%TF.GenerationSoftware,KiCad,Pcbnew,(6.0.2)*%
%TF.CreationDate,2022-03-06T15:17:29+09:00*%
%TF.ProjectId,presplit_39key,70726573-706c-4697-945f-33396b65792e,rev?*%
%TF.SameCoordinates,Original*%
%TF.FileFunction,Legend,Bot*%
%TF.FilePolarity,Positive*%
%FSLAX46Y46*%
G04 Gerber Fmt 4.6, Leading zero omitted, Abs format (unit mm)*
G04 Created by KiCad (PCBNEW (6.0.2)) date 2022-03-06 15:17:29*
%MOMM*%
%LPD*%
G01*
G04 APERTURE LIST*
%ADD10C,0.150000*%
G04 APERTURE END LIST*
D10*
%TO.C,SW41*%
X131837380Y-88614619D02*
X131361190Y-88281285D01*
X131837380Y-88043190D02*
X130837380Y-88043190D01*
X130837380Y-88424142D01*
X130885000Y-88519380D01*
X130932619Y-88567000D01*
X131027857Y-88614619D01*
X131170714Y-88614619D01*
X131265952Y-88567000D01*
X131313571Y-88519380D01*
X131361190Y-88424142D01*
X131361190Y-88043190D01*
X131313571Y-89043190D02*
X131313571Y-89376523D01*
X131837380Y-89519380D02*
X131837380Y-89043190D01*
X130837380Y-89043190D01*
X130837380Y-89519380D01*
X131789761Y-89900333D02*
X131837380Y-90043190D01*
X131837380Y-90281285D01*
X131789761Y-90376523D01*
X131742142Y-90424142D01*
X131646904Y-90471761D01*
X131551666Y-90471761D01*
X131456428Y-90424142D01*
X131408809Y-90376523D01*
X131361190Y-90281285D01*
X131313571Y-90090809D01*
X131265952Y-89995571D01*
X131218333Y-89947952D01*
X131123095Y-89900333D01*
X131027857Y-89900333D01*
X130932619Y-89947952D01*
X130885000Y-89995571D01*
X130837380Y-90090809D01*
X130837380Y-90328904D01*
X130885000Y-90471761D01*
X131313571Y-90900333D02*
X131313571Y-91233666D01*
X131837380Y-91376523D02*
X131837380Y-90900333D01*
X130837380Y-90900333D01*
X130837380Y-91376523D01*
X130837380Y-91662238D02*
X130837380Y-92233666D01*
X131837380Y-91947952D02*
X130837380Y-91947952D01*
X133135000Y-86940000D02*
X133135000Y-92940000D01*
X129635000Y-92940000D02*
X129635000Y-86940000D01*
X129635000Y-86940000D02*
X129885000Y-86940000D01*
X133135000Y-92940000D02*
X132885000Y-92940000D01*
X129885000Y-92940000D02*
X129635000Y-92940000D01*
X132885000Y-86940000D02*
X133135000Y-86940000D01*
%TO.C,D37*%
X243135000Y-41665000D02*
X243135000Y-40665000D01*
X243135000Y-40665000D02*
X242235000Y-41165000D01*
X242135000Y-41665000D02*
X242135000Y-40665000D01*
X242235000Y-41165000D02*
X243135000Y-41665000D01*
%TO.C,D27*%
X199710000Y-68665000D02*
X199210000Y-69565000D01*
X200210000Y-69565000D02*
X199710000Y-68665000D01*
X199210000Y-68565000D02*
X200210000Y-68565000D01*
X199210000Y-69565000D02*
X200210000Y-69565000D01*
%TO.C,D30*%
X205285000Y-59365000D02*
X205285000Y-58365000D01*
X205385000Y-58865000D02*
X206285000Y-59365000D01*
X206285000Y-58365000D02*
X205385000Y-58865000D01*
X206285000Y-59365000D02*
X206285000Y-58365000D01*
%TO.C,D35*%
X222085000Y-68615000D02*
X223085000Y-68615000D01*
X222085000Y-67615000D02*
X223085000Y-67615000D01*
X223085000Y-68615000D02*
X222585000Y-67715000D01*
X222585000Y-67715000D02*
X222085000Y-68615000D01*
%TO.C,D2*%
X36710000Y-61065000D02*
X35810000Y-61565000D01*
X36710000Y-62065000D02*
X36710000Y-61065000D01*
X35810000Y-61565000D02*
X36710000Y-62065000D01*
X35710000Y-62065000D02*
X35710000Y-61065000D01*
%TO.C,D9*%
X74085000Y-39790000D02*
X73185000Y-40290000D01*
X74085000Y-40790000D02*
X74085000Y-39790000D01*
X73185000Y-40290000D02*
X74085000Y-40790000D01*
X73085000Y-40790000D02*
X73085000Y-39790000D01*
%TO.C,D25*%
X182310000Y-42065000D02*
X182310000Y-41065000D01*
X182310000Y-41065000D02*
X181410000Y-41565000D01*
X181410000Y-41565000D02*
X182310000Y-42065000D01*
X181310000Y-42065000D02*
X181310000Y-41065000D01*
%TO.C,D20*%
X137435000Y-89540000D02*
X136935000Y-90440000D01*
X137935000Y-90440000D02*
X137435000Y-89540000D01*
X136935000Y-90440000D02*
X137935000Y-90440000D01*
X136935000Y-89440000D02*
X137935000Y-89440000D01*
%TO.C,D24*%
X187010000Y-88165000D02*
X188010000Y-88165000D01*
X188010000Y-89165000D02*
X187510000Y-88265000D01*
X187510000Y-88265000D02*
X187010000Y-89165000D01*
X187010000Y-89165000D02*
X188010000Y-89165000D01*
%TO.C,D8*%
X53585000Y-89815000D02*
X53085000Y-88915000D01*
X52585000Y-88815000D02*
X53585000Y-88815000D01*
X52585000Y-89815000D02*
X53585000Y-89815000D01*
X53085000Y-88915000D02*
X52585000Y-89815000D01*
%TO.C,D32*%
X208735000Y-87490000D02*
X209735000Y-87490000D01*
X208735000Y-88490000D02*
X209735000Y-88490000D01*
X209735000Y-88490000D02*
X209235000Y-87590000D01*
X209235000Y-87590000D02*
X208735000Y-88490000D01*
%TO.C,D36*%
X228185000Y-87915000D02*
X227685000Y-88815000D01*
X227685000Y-87815000D02*
X228685000Y-87815000D01*
X227685000Y-88815000D02*
X228685000Y-88815000D01*
X228685000Y-88815000D02*
X228185000Y-87915000D01*
%TO.C,D7*%
X67435000Y-80240000D02*
X67435000Y-79240000D01*
X67435000Y-79240000D02*
X66535000Y-79740000D01*
X66435000Y-80240000D02*
X66435000Y-79240000D01*
X66535000Y-79740000D02*
X67435000Y-80240000D01*
%TO.C,D23*%
X177360000Y-79290000D02*
X178260000Y-79790000D01*
X177260000Y-79790000D02*
X177260000Y-78790000D01*
X178260000Y-78790000D02*
X177360000Y-79290000D01*
X178260000Y-79790000D02*
X178260000Y-78790000D01*
%TO.C,D10*%
X81785000Y-60040000D02*
X80885000Y-60540000D01*
X80785000Y-61040000D02*
X80785000Y-60040000D01*
X80885000Y-60540000D02*
X81785000Y-61040000D01*
X81785000Y-61040000D02*
X81785000Y-60040000D01*
%TO.C,D21*%
X168035000Y-42140000D02*
X168035000Y-41140000D01*
X167135000Y-41640000D02*
X168035000Y-42140000D01*
X168035000Y-41140000D02*
X167135000Y-41640000D01*
X167035000Y-42140000D02*
X167035000Y-41140000D01*
%TO.C,D11*%
X87910000Y-78240000D02*
X87910000Y-77240000D01*
X88010000Y-77740000D02*
X88910000Y-78240000D01*
X88910000Y-77240000D02*
X88010000Y-77740000D01*
X88910000Y-78240000D02*
X88910000Y-77240000D01*
%TO.C,D15*%
X103735000Y-61265000D02*
X102835000Y-61765000D01*
X102835000Y-61765000D02*
X103735000Y-62265000D01*
X102735000Y-62265000D02*
X102735000Y-61265000D01*
X103735000Y-62265000D02*
X103735000Y-61265000D01*
%TO.C,D3*%
X42085000Y-79465000D02*
X42985000Y-79965000D01*
X42985000Y-79965000D02*
X42985000Y-78965000D01*
X41985000Y-79965000D02*
X41985000Y-78965000D01*
X42985000Y-78965000D02*
X42085000Y-79465000D01*
%TO.C,D26*%
X185910000Y-60690000D02*
X185910000Y-59690000D01*
X186010000Y-60190000D02*
X186910000Y-60690000D01*
X186910000Y-59690000D02*
X186010000Y-60190000D01*
X186910000Y-60690000D02*
X186910000Y-59690000D01*
%TO.C,D6*%
X63385000Y-60015000D02*
X62485000Y-60515000D01*
X62385000Y-61015000D02*
X62385000Y-60015000D01*
X63385000Y-61015000D02*
X63385000Y-60015000D01*
X62485000Y-60515000D02*
X63385000Y-61015000D01*
%TO.C,D22*%
X169510000Y-60190000D02*
X170410000Y-60690000D01*
X170410000Y-59690000D02*
X169510000Y-60190000D01*
X170410000Y-60690000D02*
X170410000Y-59690000D01*
X169410000Y-60690000D02*
X169410000Y-59690000D01*
%TO.C,D14*%
X100585000Y-60090000D02*
X100585000Y-59090000D01*
X100585000Y-59090000D02*
X99685000Y-59590000D01*
X99585000Y-60090000D02*
X99585000Y-59090000D01*
X99685000Y-59590000D02*
X100585000Y-60090000D01*
%TO.C,D4*%
X50535000Y-89765000D02*
X50035000Y-88865000D01*
X50035000Y-88865000D02*
X49535000Y-89765000D01*
X49535000Y-88765000D02*
X50535000Y-88765000D01*
X49535000Y-89765000D02*
X50535000Y-89765000D01*
%TO.C,D33*%
X224235000Y-42265000D02*
X224235000Y-41265000D01*
X225235000Y-41265000D02*
X224335000Y-41765000D01*
X224335000Y-41765000D02*
X225235000Y-42265000D01*
X225235000Y-42265000D02*
X225235000Y-41265000D01*
%TO.C,D16*%
X99635000Y-90090000D02*
X99135000Y-90990000D01*
X99135000Y-90990000D02*
X100135000Y-90990000D01*
X100135000Y-90990000D02*
X99635000Y-90090000D01*
X99135000Y-89990000D02*
X100135000Y-89990000D01*
%TO.C,D38*%
X241785000Y-60090000D02*
X242685000Y-60590000D01*
X242685000Y-60590000D02*
X242685000Y-59590000D01*
X241685000Y-60590000D02*
X241685000Y-59590000D01*
X242685000Y-59590000D02*
X241785000Y-60090000D01*
%TO.C,D5*%
X56935000Y-41765000D02*
X56935000Y-40765000D01*
X57935000Y-40765000D02*
X57035000Y-41265000D01*
X57935000Y-41765000D02*
X57935000Y-40765000D01*
X57035000Y-41265000D02*
X57935000Y-41765000D01*
%TO.C,D34*%
X225635000Y-60540000D02*
X225635000Y-59540000D01*
X224635000Y-60540000D02*
X224635000Y-59540000D01*
X224735000Y-60040000D02*
X225635000Y-60540000D01*
X225635000Y-59540000D02*
X224735000Y-60040000D01*
%TO.C,D28*%
X190035000Y-89165000D02*
X191035000Y-89165000D01*
X190535000Y-88265000D02*
X190035000Y-89165000D01*
X191035000Y-89165000D02*
X190535000Y-88265000D01*
X190035000Y-88165000D02*
X191035000Y-88165000D01*
%TO.C,D19*%
X110160000Y-70140000D02*
X109660000Y-69240000D01*
X109160000Y-70140000D02*
X110160000Y-70140000D01*
X109660000Y-69240000D02*
X109160000Y-70140000D01*
X109160000Y-69140000D02*
X110160000Y-69140000D01*
%TO.C,D18*%
X123685000Y-52215000D02*
X123185000Y-53115000D01*
X124185000Y-53115000D02*
X123685000Y-52215000D01*
X123185000Y-52115000D02*
X124185000Y-52115000D01*
X123185000Y-53115000D02*
X124185000Y-53115000D01*
%TO.C,D13*%
X97010000Y-40940000D02*
X97010000Y-39940000D01*
X97010000Y-39940000D02*
X96110000Y-40440000D01*
X96010000Y-40940000D02*
X96010000Y-39940000D01*
X96110000Y-40440000D02*
X97010000Y-40940000D01*
%TO.C,D31*%
X218510000Y-79890000D02*
X218510000Y-78890000D01*
X217610000Y-79390000D02*
X218510000Y-79890000D01*
X218510000Y-78890000D02*
X217610000Y-79390000D01*
X217510000Y-79890000D02*
X217510000Y-78890000D01*
%TO.C,D17*%
X115285000Y-41090000D02*
X115285000Y-40090000D01*
X114385000Y-40590000D02*
X115285000Y-41090000D01*
X115285000Y-40090000D02*
X114385000Y-40590000D01*
X114285000Y-41090000D02*
X114285000Y-40090000D01*
%TO.C,D1*%
X38560000Y-41415000D02*
X39460000Y-41915000D01*
X39460000Y-40915000D02*
X38560000Y-41415000D01*
X39460000Y-41915000D02*
X39460000Y-40915000D01*
X38460000Y-41915000D02*
X38460000Y-40915000D01*
%TO.C,D29*%
X204460000Y-41690000D02*
X204460000Y-40690000D01*
X205460000Y-41690000D02*
X205460000Y-40690000D01*
X204560000Y-41190000D02*
X205460000Y-41690000D01*
X205460000Y-40690000D02*
X204560000Y-41190000D01*
%TO.C,D12*%
X75210000Y-90065000D02*
X74710000Y-90965000D01*
X74710000Y-89965000D02*
X75710000Y-89965000D01*
X75710000Y-90965000D02*
X75210000Y-90065000D01*
X74710000Y-90965000D02*
X75710000Y-90965000D01*
%TD*%
M02*
