M48
; DRILL file {KiCad (6.0.2)} date Sun Mar  6 15:17:32 2022
; FORMAT={-:-/ absolute / inch / decimal}
; #@! TF.CreationDate,2022-03-06T15:17:32+09:00
; #@! TF.GenerationSoftware,Kicad,Pcbnew,(6.0.2)
; #@! TF.FileFunction,Plated,1,2,PTH
FMAT,2
INCH
; #@! TA.AperFunction,Plated,PTH,ViaDrill
T1C0.0157
; #@! TA.AperFunction,Plated,PTH,ComponentDrill
T2C0.0315
; #@! TA.AperFunction,Plated,PTH,ComponentDrill
T3C0.0320
; #@! TA.AperFunction,Plated,PTH,ComponentDrill
T4C0.0402
; #@! TA.AperFunction,Plated,PTH,ComponentDrill
T5C0.0512
%
G90
G05
T1
X2.9827Y-3.0744
X3.5555Y-2.951
X3.75Y-2.4419
X5.2618Y-2.9262
X5.2884Y-2.1319
X5.3248Y-2.9252
X5.3278Y-2.5866
X5.3868Y-2.9262
X6.5122Y-2.5272
X7.1926Y-2.4639
T3
X1.3075Y-2.4238
X1.4157Y-1.6305
X1.5437Y-2.4238
X1.5545Y-3.1285
X1.652Y-1.6305
X1.7907Y-3.1285
X1.9699Y-3.3963
X1.9699Y-3.6325
X2.09Y-3.3982
X2.09Y-3.6344
X2.1431Y-1.6246
X2.3577Y-2.3825
X2.3793Y-1.6246
X2.5171Y-3.1394
X2.5939Y-2.3825
X2.7533Y-3.1394
X2.7789Y-1.5862
X2.961Y-3.4435
X2.961Y-3.6797
X3.0152Y-1.5862
X3.0821Y-2.3835
X3.3183Y-2.3835
X3.3626Y-3.0606
X3.5988Y-3.0606
X3.6815Y-1.5921
X3.8222Y-2.3461
X3.9177Y-1.5921
X3.9226Y-3.4445
X3.9226Y-3.6807
X3.9463Y-2.4317
X4.0585Y-2.3461
X4.1825Y-2.4317
X4.3173Y-2.6236
X4.3173Y-2.8598
X4.401Y-1.598
X4.6372Y-1.598
X4.8695Y-1.9533
X4.8695Y-2.1896
X5.4108Y-3.4228
X5.4108Y-3.6591
X6.4778Y-1.6394
X6.5713Y-2.3697
X6.714Y-1.6394
X6.8075Y-2.3697
X6.8803Y-3.1217
X7.0398Y-1.6364
X7.1165Y-3.1217
X7.2209Y-2.3697
X7.276Y-1.6364
X7.3823Y-3.3726
X7.3823Y-3.6089
X7.4571Y-2.3697
X7.5014Y-3.3726
X7.5014Y-3.6089
X7.8626Y-2.601
X7.8626Y-2.8372
X7.9512Y-1.6217
X7.9837Y-2.3175
X8.1874Y-1.6217
X8.2199Y-2.3175
X8.2376Y-3.3461
X8.2376Y-3.5823
X8.465Y-3.1256
X8.7012Y-3.1256
X8.7297Y-1.6443
X8.7455Y-2.3638
X8.7632Y-2.5636
X8.7632Y-2.7998
X8.9659Y-1.6443
X8.9817Y-2.3638
X8.9837Y-3.3589
X8.9837Y-3.5951
X9.4167Y-2.3657
X9.4344Y-1.6207
X9.653Y-2.3657
X9.6707Y-1.6207
T4
X5.174Y-1.1795
X5.174Y-1.2795
X5.174Y-1.3795
X5.174Y-1.4795
X5.174Y-1.5795
X5.174Y-1.6795
X5.174Y-1.7795
X5.174Y-1.8795
X5.174Y-1.9795
X5.174Y-2.0795
X5.174Y-2.1795
X5.174Y-2.2795
X5.174Y-2.3795
X5.174Y-2.4795
X5.174Y-2.5795
X5.174Y-2.6795
X5.174Y-2.7795
X5.174Y-2.8795
X5.174Y-2.9795
X5.174Y-3.0795
X5.424Y-3.0705
X5.524Y-3.0705
X5.624Y-3.0705
X5.874Y-1.1795
X5.874Y-1.2795
X5.874Y-1.3795
X5.874Y-1.4795
X5.874Y-1.5795
X5.874Y-1.6795
X5.874Y-1.7795
X5.874Y-1.8795
X5.874Y-1.9795
X5.874Y-2.0795
X5.874Y-2.1795
X5.874Y-2.2795
X5.874Y-2.3795
X5.874Y-2.4795
X5.874Y-2.5795
X5.874Y-2.6795
X5.874Y-2.7795
X5.874Y-2.8795
X5.874Y-2.9795
X5.874Y-3.0795
T5
X5.1726Y-3.413
X5.1726Y-3.6689
T2
G00X1.1427Y-1.1516
M15
G01X1.1585Y-1.1516
M16
G05
G00X1.2376Y-1.9022
M15
G01X1.2533Y-1.9022
M16
G05
G00X1.3307Y-2.6516
M15
G01X1.3465Y-2.6516
M16
G05
G00X1.3927Y-1.0516
M15
G01X1.4085Y-1.0516
M16
G05
G00X1.4252Y-3.4006
M15
G01X1.4409Y-3.4006
M16
G05
G00X1.4876Y-1.8022
M15
G01X1.5033Y-1.8022
M16
G05
G00X1.5807Y-2.5516
M15
G01X1.5965Y-2.5516
M16
G05
G00X1.6752Y-3.3006
M15
G01X1.6909Y-3.3006
M16
G05
G00X1.8937Y-1.1526
M15
G01X1.9094Y-1.1526
M16
G05
G00X2.0821Y-1.9022
M15
G01X2.0978Y-1.9022
M16
G05
G00X2.1437Y-1.0526
M15
G01X2.1594Y-1.0526
M16
G05
G00X2.2701Y-2.6522
M15
G01X2.2858Y-2.6522
M16
G05
G00X2.3321Y-1.8022
M15
G01X2.3478Y-1.8022
M16
G05
G00X2.3642Y-3.4026
M15
G01X2.3799Y-3.4026
M16
G05
G00X2.5201Y-2.5522
M15
G01X2.5358Y-2.5522
M16
G05
G00X2.6142Y-3.3026
M15
G01X2.6299Y-3.3026
M16
G05
G00X2.6427Y-1.1516
M15
G01X2.6585Y-1.1516
M16
G05
G00X2.8327Y-1.9016
M15
G01X2.8484Y-1.9016
M16
G05
G00X2.8927Y-1.0516
M15
G01X2.9085Y-1.0516
M16
G05
G00X3.0197Y-2.6506
M15
G01X3.0354Y-2.6506
M16
G05
G00X3.0827Y-1.8016
M15
G01X3.0984Y-1.8016
M16
G05
G00X3.2697Y-2.5506
M15
G01X3.2854Y-2.5506
M16
G05
G00X3.3016Y-3.4012
M15
G01X3.3173Y-3.4012
M16
G05
G00X3.3947Y-1.1526
M15
G01X3.4104Y-1.1526
M16
G05
G00X3.5516Y-3.3012
M15
G01X3.5673Y-3.3012
M16
G05
G00X3.5827Y-1.9016
M15
G01X3.5984Y-1.9016
M16
G05
G00X3.6447Y-1.0526
M15
G01X3.6604Y-1.0526
M16
G05
G00X3.7701Y-2.6512
M15
G01X3.7858Y-2.6512
M16
G05
G00X3.8327Y-1.8016
M15
G01X3.8484Y-1.8016
M16
G05
G00X4.0201Y-2.5512
M15
G01X4.0358Y-2.5512
M16
G05
G00X4.1457Y-1.1506
M15
G01X4.1614Y-1.1506
M16
G05
G00X4.3327Y-1.9016
M15
G01X4.3484Y-1.9016
M16
G05
G00X4.3957Y-1.0506
M15
G01X4.4114Y-1.0506
M16
G05
G00X4.4262Y-3.4026
M15
G01X4.4419Y-3.4026
M16
G05
G00X4.5211Y-2.6522
M15
G01X4.5368Y-2.6522
M16
G05
G00X4.5827Y-1.8016
M15
G01X4.5984Y-1.8016
M16
G05
G00X4.6762Y-3.3026
M15
G01X4.6919Y-3.3026
M16
G05
G00X4.7711Y-2.5522
M15
G01X4.7868Y-2.5522
M16
G05
G00X5.7392Y-3.4016
M15
G01X5.7549Y-3.4016
M16
G05
G00X5.9892Y-3.3016
M15
G01X6.0049Y-3.3016
M16
G05
G00X6.2067Y-1.1516
M15
G01X6.2224Y-1.1516
M16
G05
G00X6.3937Y-1.9026
M15
G01X6.4094Y-1.9026
M16
G05
G00X6.4567Y-1.0516
M15
G01X6.4724Y-1.0516
M16
G05
G00X6.5817Y-2.6522
M15
G01X6.5974Y-2.6522
M16
G05
G00X6.6437Y-1.8026
M15
G01X6.6594Y-1.8026
M16
G05
G00X6.8317Y-2.5522
M15
G01X6.8474Y-2.5522
M16
G05
G00X6.8642Y-3.4026
M15
G01X6.8799Y-3.4026
M16
G05
G00X6.9577Y-1.1506
M15
G01X6.9734Y-1.1506
M16
G05
G00X7.1142Y-3.3026
M15
G01X7.1299Y-3.3026
M16
G05
G00X7.1447Y-1.9026
M15
G01X7.1604Y-1.9026
M16
G05
G00X7.2077Y-1.0506
M15
G01X7.2234Y-1.0506
M16
G05
G00X7.3327Y-2.6522
M15
G01X7.3484Y-2.6522
M16
G05
G00X7.3947Y-1.8026
M15
G01X7.4104Y-1.8026
M16
G05
G00X7.5827Y-2.5522
M15
G01X7.5984Y-2.5522
M16
G05
G00X7.7077Y-3.4016
M15
G01X7.7234Y-3.4016
M16
G05
G00X7.7087Y-1.1516
M15
G01X7.7244Y-1.1516
M16
G05
G00X7.8957Y-1.9026
M15
G01X7.9114Y-1.9026
M16
G05
G00X7.9577Y-3.3016
M15
G01X7.9734Y-3.3016
M16
G05
G00X7.9587Y-1.0516
M15
G01X7.9744Y-1.0516
M16
G05
G00X8.0837Y-2.6516
M15
G01X8.0994Y-2.6516
M16
G05
G00X8.1457Y-1.8026
M15
G01X8.1614Y-1.8026
M16
G05
G00X8.3337Y-2.5516
M15
G01X8.3494Y-2.5516
M16
G05
G00X8.4577Y-1.1516
M15
G01X8.4734Y-1.1516
M16
G05
G00X8.4577Y-3.4016
M15
G01X8.4734Y-3.4016
M16
G05
G00X8.6457Y-1.9026
M15
G01X8.6614Y-1.9026
M16
G05
G00X8.7077Y-1.0516
M15
G01X8.7234Y-1.0516
M16
G05
G00X8.7077Y-3.3016
M15
G01X8.7234Y-3.3016
M16
G05
G00X8.8957Y-1.8026
M15
G01X8.9114Y-1.8026
M16
G05
G00X9.1142Y-2.6516
M15
G01X9.1299Y-2.6516
M16
G05
G00X9.2079Y-3.4016
M15
G01X9.2236Y-3.4016
M16
G05
G00X9.3012Y-1.1506
M15
G01X9.3169Y-1.1506
M16
G05
G00X9.3642Y-2.5516
M15
G01X9.3799Y-2.5516
M16
G05
G00X9.397Y-1.9022
M15
G01X9.4128Y-1.9022
M16
G05
G00X9.4579Y-3.3016
M15
G01X9.4736Y-3.3016
M16
G05
G00X9.5512Y-1.0506
M15
G01X9.5669Y-1.0506
M16
G05
G00X9.647Y-1.8022
M15
G01X9.6628Y-1.8022
M16
G05
T0
M30
