%TF.GenerationSoftware,KiCad,Pcbnew,(6.0.2)*%
%TF.CreationDate,2022-03-07T01:54:04+09:00*%
%TF.ProjectId,presplit_39key_plate2,70726573-706c-4697-945f-33396b65795f,rev?*%
%TF.SameCoordinates,Original*%
%TF.FileFunction,Profile,NP*%
%FSLAX46Y46*%
G04 Gerber Fmt 4.6, Leading zero omitted, Abs format (unit mm)*
G04 Created by KiCad (PCBNEW (6.0.2)) date 2022-03-07 01:54:04*
%MOMM*%
%LPD*%
G01*
G04 APERTURE LIST*
%TA.AperFunction,Profile*%
%ADD10C,0.100000*%
%TD*%
%TA.AperFunction,Profile*%
%ADD11C,0.150000*%
%TD*%
G04 APERTURE END LIST*
D10*
X129700000Y-25425000D02*
X129707949Y-23825000D01*
X25050000Y-98250000D02*
X248850000Y-98250000D01*
X152410964Y-22052424D02*
G75*
G03*
X152154723Y-22289600I-7040J-249402D01*
G01*
X150947576Y-22310964D02*
G75*
G03*
X152154723Y-22289600I599688J230225D01*
G01*
X129662826Y-27043759D02*
G75*
G03*
X128420786Y-27270786I-600230J-227253D01*
G01*
X22125000Y-25000000D02*
X22125000Y-95400000D01*
X150888316Y-25425000D02*
X150896265Y-23825000D01*
X128392051Y-25425000D02*
X128400000Y-23825000D01*
X152225000Y-27300000D02*
X152225000Y-79575000D01*
X128425000Y-79575000D02*
X128420786Y-27270786D01*
X25000000Y-22049999D02*
G75*
G03*
X22125000Y-25000000I-30658J-2846075D01*
G01*
X22125001Y-95400000D02*
G75*
G03*
X25050000Y-98250000I2771045J-82019D01*
G01*
X152196265Y-25425000D02*
X152204214Y-23825000D01*
X251725762Y-24925000D02*
X251725000Y-95342553D01*
X251725762Y-24925000D02*
G75*
G03*
X248818315Y-22050000I-2793422J82682D01*
G01*
X129707948Y-23825000D02*
G75*
G03*
X128400000Y-23825000I-653974J-239D01*
G01*
X150689036Y-27297576D02*
G75*
G03*
X150945277Y-27060400I7040J249402D01*
G01*
X248850000Y-98250000D02*
G75*
G03*
X251725000Y-95342553I82682J2793422D01*
G01*
X129662824Y-27043759D02*
G75*
G03*
X129900000Y-27300000I249402J-7040D01*
G01*
X150888317Y-25425000D02*
G75*
G03*
X152196265Y-25425000I653974J240D01*
G01*
X150947576Y-22310964D02*
G75*
G03*
X150710400Y-22054723I-249402J7040D01*
G01*
X128447576Y-22310964D02*
G75*
G03*
X128210400Y-22054723I-249402J7040D01*
G01*
X129935964Y-22052424D02*
G75*
G03*
X129679723Y-22289600I-7040J-249402D01*
G01*
X25000000Y-22050000D02*
X128210400Y-22054723D01*
X129935964Y-22052425D02*
X150710400Y-22054723D01*
X152410964Y-22052425D02*
X248818315Y-22050000D01*
X128447574Y-22310964D02*
G75*
G03*
X129679723Y-22289600I612185J235010D01*
G01*
X128392052Y-25425000D02*
G75*
G03*
X129700000Y-25425000I653974J238D01*
G01*
X129900000Y-27300000D02*
X150689036Y-27297575D01*
X152204215Y-23825000D02*
G75*
G03*
X150896265Y-23825000I-653975J-240D01*
G01*
X152225001Y-27300000D02*
G75*
G03*
X150945277Y-27060400I-656839J29126D01*
G01*
X152225000Y-79575000D02*
X128425000Y-79575000D01*
D11*
%TO.C,SW3*%
X30810000Y-62890000D02*
X30810000Y-76890000D01*
X44810000Y-62890000D02*
X44810000Y-76890000D01*
X44810000Y-76890000D02*
X30810000Y-76890000D01*
X44810000Y-62890000D02*
X30810000Y-62890000D01*
%TO.C,SW27*%
X197260000Y-76905000D02*
X183260000Y-76905000D01*
X197260000Y-62905000D02*
X197260000Y-76905000D01*
X183260000Y-62905000D02*
X183260000Y-76905000D01*
X197260000Y-62905000D02*
X183260000Y-62905000D01*
%TO.C,SW38*%
X249695000Y-57855000D02*
X235695000Y-57855000D01*
X235695000Y-43855000D02*
X235695000Y-57855000D01*
X249695000Y-43855000D02*
X235695000Y-43855000D01*
X249695000Y-43855000D02*
X249695000Y-57855000D01*
%TO.C,SW25*%
X173735000Y-24765000D02*
X173735000Y-38765000D01*
X187735000Y-38765000D02*
X173735000Y-38765000D01*
X187735000Y-24765000D02*
X173735000Y-24765000D01*
X187735000Y-24765000D02*
X187735000Y-38765000D01*
%TO.C,SW13*%
X97235000Y-24815000D02*
X97235000Y-38815000D01*
X83235000Y-24815000D02*
X83235000Y-38815000D01*
X97235000Y-24815000D02*
X83235000Y-24815000D01*
X97235000Y-38815000D02*
X83235000Y-38815000D01*
%TO.C,SW9*%
X78135000Y-24790000D02*
X64135000Y-24790000D01*
X78135000Y-38790000D02*
X64135000Y-38790000D01*
X78135000Y-24790000D02*
X78135000Y-38790000D01*
X64135000Y-24790000D02*
X64135000Y-38790000D01*
%TO.C,SW14*%
X88010000Y-43840000D02*
X88010000Y-57840000D01*
X102010000Y-57840000D02*
X88010000Y-57840000D01*
X102010000Y-43840000D02*
X102010000Y-57840000D01*
X102010000Y-43840000D02*
X88010000Y-43840000D01*
%TO.C,SW15*%
X92770000Y-62880000D02*
X92770000Y-76880000D01*
X106770000Y-62880000D02*
X106770000Y-76880000D01*
X106770000Y-62880000D02*
X92770000Y-62880000D01*
X106770000Y-76880000D02*
X92770000Y-76880000D01*
%TO.C,SW12*%
X94870000Y-95930000D02*
X80870000Y-95930000D01*
X94870000Y-81930000D02*
X94870000Y-95930000D01*
X80870000Y-81930000D02*
X80870000Y-95930000D01*
X94870000Y-81930000D02*
X80870000Y-81930000D01*
%TO.C,SW26*%
X192485000Y-57865000D02*
X178485000Y-57865000D01*
X192485000Y-43865000D02*
X192485000Y-57865000D01*
X178485000Y-43865000D02*
X178485000Y-57865000D01*
X192485000Y-43865000D02*
X178485000Y-43865000D01*
%TO.C,SW1*%
X40035000Y-24790000D02*
X40035000Y-38790000D01*
X40035000Y-38790000D02*
X26035000Y-38790000D01*
X40035000Y-24790000D02*
X26035000Y-24790000D01*
X26035000Y-24790000D02*
X26035000Y-38790000D01*
%TO.C,SW19*%
X125845000Y-76905000D02*
X111845000Y-76905000D01*
X125845000Y-62905000D02*
X125845000Y-76905000D01*
X125845000Y-62905000D02*
X111845000Y-62905000D01*
X111845000Y-62905000D02*
X111845000Y-76905000D01*
%TO.C,SW31*%
X202335000Y-62890000D02*
X202335000Y-76890000D01*
X216335000Y-62890000D02*
X216335000Y-76890000D01*
X216335000Y-62890000D02*
X202335000Y-62890000D01*
X216335000Y-76890000D02*
X202335000Y-76890000D01*
%TO.C,SW21*%
X168660000Y-24790000D02*
X168660000Y-38790000D01*
X168660000Y-38790000D02*
X154660000Y-38790000D01*
X154660000Y-24790000D02*
X154660000Y-38790000D01*
X168660000Y-24790000D02*
X154660000Y-24790000D01*
%TO.C,SW18*%
X121060000Y-57840000D02*
X107060000Y-57840000D01*
X121060000Y-43840000D02*
X121060000Y-57840000D01*
X107060000Y-43840000D02*
X107060000Y-57840000D01*
X121060000Y-43840000D02*
X107060000Y-43840000D01*
%TO.C,SW11*%
X87710000Y-62865000D02*
X73710000Y-62865000D01*
X87710000Y-62865000D02*
X87710000Y-76865000D01*
X87710000Y-76865000D02*
X73710000Y-76865000D01*
X73710000Y-62865000D02*
X73710000Y-76865000D01*
%TO.C,SW10*%
X82960000Y-57840000D02*
X68960000Y-57840000D01*
X68960000Y-43840000D02*
X68960000Y-57840000D01*
X82960000Y-43840000D02*
X82960000Y-57840000D01*
X82960000Y-43840000D02*
X68960000Y-43840000D01*
%TO.C,SW35*%
X228510000Y-62890000D02*
X228510000Y-76890000D01*
X242510000Y-62890000D02*
X228510000Y-62890000D01*
X242510000Y-62890000D02*
X242510000Y-76890000D01*
X242510000Y-76890000D02*
X228510000Y-76890000D01*
%TO.C,SW2*%
X42445000Y-43855000D02*
X42445000Y-57855000D01*
X42445000Y-57855000D02*
X28445000Y-57855000D01*
X42445000Y-43855000D02*
X28445000Y-43855000D01*
X28445000Y-43855000D02*
X28445000Y-57855000D01*
%TO.C,SW23*%
X164185000Y-62905000D02*
X164185000Y-76905000D01*
X178185000Y-62905000D02*
X178185000Y-76905000D01*
X178185000Y-62905000D02*
X164185000Y-62905000D01*
X178185000Y-76905000D02*
X164185000Y-76905000D01*
%TO.C,SW24*%
X185360000Y-95965000D02*
X171360000Y-95965000D01*
X185360000Y-81965000D02*
X185360000Y-95965000D01*
X185360000Y-81965000D02*
X171360000Y-81965000D01*
X171360000Y-81965000D02*
X171360000Y-95965000D01*
%TO.C,SW37*%
X247260000Y-24765000D02*
X247260000Y-38765000D01*
X233260000Y-24765000D02*
X233260000Y-38765000D01*
X247260000Y-38765000D02*
X233260000Y-38765000D01*
X247260000Y-24765000D02*
X233260000Y-24765000D01*
%TO.C,SW8*%
X71060000Y-81965000D02*
X71060000Y-95965000D01*
X71060000Y-95965000D02*
X57060000Y-95965000D01*
X57060000Y-81965000D02*
X57060000Y-95965000D01*
X71060000Y-81965000D02*
X57060000Y-81965000D01*
%TO.C,SW34*%
X216610000Y-43865000D02*
X216610000Y-57865000D01*
X230610000Y-57865000D02*
X216610000Y-57865000D01*
X230610000Y-43865000D02*
X216610000Y-43865000D01*
X230610000Y-43865000D02*
X230610000Y-57865000D01*
%TO.C,SW16*%
X123435000Y-95965000D02*
X109435000Y-95965000D01*
X109435000Y-81965000D02*
X109435000Y-95965000D01*
X123435000Y-81965000D02*
X109435000Y-81965000D01*
X123435000Y-81965000D02*
X123435000Y-95965000D01*
%TO.C,SW22*%
X173410000Y-43865000D02*
X173410000Y-57865000D01*
X159410000Y-43865000D02*
X159410000Y-57865000D01*
X173410000Y-43865000D02*
X159410000Y-43865000D01*
X173410000Y-57865000D02*
X159410000Y-57865000D01*
%TO.C,SW20*%
X156785000Y-81940000D02*
X142785000Y-81940000D01*
X156785000Y-81940000D02*
X156785000Y-95940000D01*
X142785000Y-81940000D02*
X142785000Y-95940000D01*
X156785000Y-95940000D02*
X142785000Y-95940000D01*
%TO.C,SW7*%
X54670000Y-62905000D02*
X54670000Y-76905000D01*
X68670000Y-62905000D02*
X54670000Y-62905000D01*
X68670000Y-76905000D02*
X54670000Y-76905000D01*
X68670000Y-62905000D02*
X68670000Y-76905000D01*
%TO.C,SW17*%
X116310000Y-38765000D02*
X102310000Y-38765000D01*
X116310000Y-24765000D02*
X116310000Y-38765000D01*
X102310000Y-24765000D02*
X102310000Y-38765000D01*
X116310000Y-24765000D02*
X102310000Y-24765000D01*
%TO.C,SW6*%
X63895000Y-43855000D02*
X49895000Y-43855000D01*
X63895000Y-43855000D02*
X63895000Y-57855000D01*
X63895000Y-57855000D02*
X49895000Y-57855000D01*
X49895000Y-43855000D02*
X49895000Y-57855000D01*
%TO.C,SW30*%
X211560000Y-43865000D02*
X197560000Y-43865000D01*
X211560000Y-57865000D02*
X197560000Y-57865000D01*
X197560000Y-43865000D02*
X197560000Y-57865000D01*
X211560000Y-43865000D02*
X211560000Y-57865000D01*
%TO.C,SW32*%
X225835000Y-95940000D02*
X211835000Y-95940000D01*
X225835000Y-81940000D02*
X225835000Y-95940000D01*
X211835000Y-81940000D02*
X211835000Y-95940000D01*
X225835000Y-81940000D02*
X211835000Y-81940000D01*
%TO.C,SW29*%
X192810000Y-24790000D02*
X192810000Y-38790000D01*
X206810000Y-38790000D02*
X192810000Y-38790000D01*
X206810000Y-24790000D02*
X192810000Y-24790000D01*
X206810000Y-24790000D02*
X206810000Y-38790000D01*
%TO.C,SW4*%
X47210000Y-81915000D02*
X33210000Y-81915000D01*
X33210000Y-81915000D02*
X33210000Y-95915000D01*
X47210000Y-81915000D02*
X47210000Y-95915000D01*
X47210000Y-95915000D02*
X33210000Y-95915000D01*
%TO.C,SW5*%
X45110000Y-24815000D02*
X45110000Y-38815000D01*
X59110000Y-38815000D02*
X45110000Y-38815000D01*
X59110000Y-24815000D02*
X59110000Y-38815000D01*
X59110000Y-24815000D02*
X45110000Y-24815000D01*
%TO.C,SW28*%
X206785000Y-81940000D02*
X192785000Y-81940000D01*
X206785000Y-81940000D02*
X206785000Y-95940000D01*
X192785000Y-81940000D02*
X192785000Y-95940000D01*
X206785000Y-95940000D02*
X192785000Y-95940000D01*
%TO.C,SW33*%
X225835000Y-38790000D02*
X211835000Y-38790000D01*
X225835000Y-24790000D02*
X225835000Y-38790000D01*
X211835000Y-24790000D02*
X211835000Y-38790000D01*
X225835000Y-24790000D02*
X211835000Y-24790000D01*
%TO.C,SW36*%
X244890000Y-81940000D02*
X244890000Y-95940000D01*
X230890000Y-81940000D02*
X230890000Y-95940000D01*
X244890000Y-95940000D02*
X230890000Y-95940000D01*
X244890000Y-81940000D02*
X230890000Y-81940000D01*
%TD*%
M02*
